G04 #@! TF.GenerationSoftware,KiCad,Pcbnew,(5.1.5)-3*
G04 #@! TF.CreationDate,2020-07-14T22:45:08+08:00*
G04 #@! TF.ProjectId,ProtoCV,50726f74-6f43-4562-9e6b-696361645f70,rev?*
G04 #@! TF.SameCoordinates,Original*
G04 #@! TF.FileFunction,Legend,Top*
G04 #@! TF.FilePolarity,Positive*
%FSLAX46Y46*%
G04 Gerber Fmt 4.6, Leading zero omitted, Abs format (unit mm)*
G04 Created by KiCad (PCBNEW (5.1.5)-3) date 2020-07-14 22:45:08*
%MOMM*%
%LPD*%
G04 APERTURE LIST*
%ADD10C,0.150000*%
%ADD11C,0.500000*%
%ADD12C,0.300000*%
%ADD13C,0.120000*%
G04 APERTURE END LIST*
D10*
X177522952Y-123007380D02*
X177522952Y-122007380D01*
X177856285Y-122721666D01*
X178189619Y-122007380D01*
X178189619Y-123007380D01*
X179094380Y-123007380D02*
X179094380Y-122483571D01*
X179046761Y-122388333D01*
X178951523Y-122340714D01*
X178761047Y-122340714D01*
X178665809Y-122388333D01*
X179094380Y-122959761D02*
X178999142Y-123007380D01*
X178761047Y-123007380D01*
X178665809Y-122959761D01*
X178618190Y-122864523D01*
X178618190Y-122769285D01*
X178665809Y-122674047D01*
X178761047Y-122626428D01*
X178999142Y-122626428D01*
X179094380Y-122578809D01*
X179570571Y-123007380D02*
X179570571Y-122340714D01*
X179570571Y-122531190D02*
X179618190Y-122435952D01*
X179665809Y-122388333D01*
X179761047Y-122340714D01*
X179856285Y-122340714D01*
X180618190Y-123007380D02*
X180618190Y-122483571D01*
X180570571Y-122388333D01*
X180475333Y-122340714D01*
X180284857Y-122340714D01*
X180189619Y-122388333D01*
X180618190Y-122959761D02*
X180522952Y-123007380D01*
X180284857Y-123007380D01*
X180189619Y-122959761D01*
X180142000Y-122864523D01*
X180142000Y-122769285D01*
X180189619Y-122674047D01*
X180284857Y-122626428D01*
X180522952Y-122626428D01*
X180618190Y-122578809D01*
X181094380Y-122340714D02*
X181094380Y-123007380D01*
X181094380Y-122435952D02*
X181142000Y-122388333D01*
X181237238Y-122340714D01*
X181380095Y-122340714D01*
X181475333Y-122388333D01*
X181522952Y-122483571D01*
X181522952Y-123007380D01*
X182427714Y-122340714D02*
X182427714Y-123150238D01*
X182380095Y-123245476D01*
X182332476Y-123293095D01*
X182237238Y-123340714D01*
X182094380Y-123340714D01*
X181999142Y-123293095D01*
X182427714Y-122959761D02*
X182332476Y-123007380D01*
X182142000Y-123007380D01*
X182046761Y-122959761D01*
X181999142Y-122912142D01*
X181951523Y-122816904D01*
X181951523Y-122531190D01*
X181999142Y-122435952D01*
X182046761Y-122388333D01*
X182142000Y-122340714D01*
X182332476Y-122340714D01*
X182427714Y-122388333D01*
X182903904Y-123007380D02*
X182903904Y-122340714D01*
X182903904Y-122007380D02*
X182856285Y-122055000D01*
X182903904Y-122102619D01*
X182951523Y-122055000D01*
X182903904Y-122007380D01*
X182903904Y-122102619D01*
X183332476Y-122959761D02*
X183427714Y-123007380D01*
X183618190Y-123007380D01*
X183713428Y-122959761D01*
X183761047Y-122864523D01*
X183761047Y-122816904D01*
X183713428Y-122721666D01*
X183618190Y-122674047D01*
X183475333Y-122674047D01*
X183380095Y-122626428D01*
X183332476Y-122531190D01*
X183332476Y-122483571D01*
X183380095Y-122388333D01*
X183475333Y-122340714D01*
X183618190Y-122340714D01*
X183713428Y-122388333D01*
X184046761Y-122340714D02*
X184427714Y-122340714D01*
X184189619Y-122007380D02*
X184189619Y-122864523D01*
X184237238Y-122959761D01*
X184332476Y-123007380D01*
X184427714Y-123007380D01*
X184903904Y-123007380D02*
X184808666Y-122959761D01*
X184761047Y-122912142D01*
X184713428Y-122816904D01*
X184713428Y-122531190D01*
X184761047Y-122435952D01*
X184808666Y-122388333D01*
X184903904Y-122340714D01*
X185046761Y-122340714D01*
X185142000Y-122388333D01*
X185189619Y-122435952D01*
X185237238Y-122531190D01*
X185237238Y-122816904D01*
X185189619Y-122912142D01*
X185142000Y-122959761D01*
X185046761Y-123007380D01*
X184903904Y-123007380D01*
X186380095Y-122102619D02*
X186427714Y-122055000D01*
X186522952Y-122007380D01*
X186761047Y-122007380D01*
X186856285Y-122055000D01*
X186903904Y-122102619D01*
X186951523Y-122197857D01*
X186951523Y-122293095D01*
X186903904Y-122435952D01*
X186332476Y-123007380D01*
X186951523Y-123007380D01*
X187570571Y-122007380D02*
X187665809Y-122007380D01*
X187761047Y-122055000D01*
X187808666Y-122102619D01*
X187856285Y-122197857D01*
X187903904Y-122388333D01*
X187903904Y-122626428D01*
X187856285Y-122816904D01*
X187808666Y-122912142D01*
X187761047Y-122959761D01*
X187665809Y-123007380D01*
X187570571Y-123007380D01*
X187475333Y-122959761D01*
X187427714Y-122912142D01*
X187380095Y-122816904D01*
X187332476Y-122626428D01*
X187332476Y-122388333D01*
X187380095Y-122197857D01*
X187427714Y-122102619D01*
X187475333Y-122055000D01*
X187570571Y-122007380D01*
X188284857Y-122102619D02*
X188332476Y-122055000D01*
X188427714Y-122007380D01*
X188665809Y-122007380D01*
X188761047Y-122055000D01*
X188808666Y-122102619D01*
X188856285Y-122197857D01*
X188856285Y-122293095D01*
X188808666Y-122435952D01*
X188237238Y-123007380D01*
X188856285Y-123007380D01*
X189475333Y-122007380D02*
X189570571Y-122007380D01*
X189665809Y-122055000D01*
X189713428Y-122102619D01*
X189761047Y-122197857D01*
X189808666Y-122388333D01*
X189808666Y-122626428D01*
X189761047Y-122816904D01*
X189713428Y-122912142D01*
X189665809Y-122959761D01*
X189570571Y-123007380D01*
X189475333Y-123007380D01*
X189380095Y-122959761D01*
X189332476Y-122912142D01*
X189284857Y-122816904D01*
X189237238Y-122626428D01*
X189237238Y-122388333D01*
X189284857Y-122197857D01*
X189332476Y-122102619D01*
X189380095Y-122055000D01*
X189475333Y-122007380D01*
X166838476Y-54681380D02*
X166505142Y-54205190D01*
X166267047Y-54681380D02*
X166267047Y-53681380D01*
X166648000Y-53681380D01*
X166743238Y-53729000D01*
X166790857Y-53776619D01*
X166838476Y-53871857D01*
X166838476Y-54014714D01*
X166790857Y-54109952D01*
X166743238Y-54157571D01*
X166648000Y-54205190D01*
X166267047Y-54205190D01*
X167648000Y-54633761D02*
X167552761Y-54681380D01*
X167362285Y-54681380D01*
X167267047Y-54633761D01*
X167219428Y-54538523D01*
X167219428Y-54157571D01*
X167267047Y-54062333D01*
X167362285Y-54014714D01*
X167552761Y-54014714D01*
X167648000Y-54062333D01*
X167695619Y-54157571D01*
X167695619Y-54252809D01*
X167219428Y-54348047D01*
X168028952Y-54014714D02*
X168267047Y-54681380D01*
X168505142Y-54014714D01*
X169600380Y-54395666D02*
X170076571Y-54395666D01*
X169505142Y-54681380D02*
X169838476Y-53681380D01*
X170171809Y-54681380D01*
D11*
X109657571Y-62007523D02*
X109657571Y-58007523D01*
X110800428Y-58007523D01*
X111086142Y-58198000D01*
X111229000Y-58388476D01*
X111371857Y-58769428D01*
X111371857Y-59340857D01*
X111229000Y-59721809D01*
X111086142Y-59912285D01*
X110800428Y-60102761D01*
X109657571Y-60102761D01*
X112657571Y-62007523D02*
X112657571Y-59340857D01*
X112657571Y-60102761D02*
X112800428Y-59721809D01*
X112943285Y-59531333D01*
X113229000Y-59340857D01*
X113514714Y-59340857D01*
X114943285Y-62007523D02*
X114657571Y-61817047D01*
X114514714Y-61626571D01*
X114371857Y-61245619D01*
X114371857Y-60102761D01*
X114514714Y-59721809D01*
X114657571Y-59531333D01*
X114943285Y-59340857D01*
X115371857Y-59340857D01*
X115657571Y-59531333D01*
X115800428Y-59721809D01*
X115943285Y-60102761D01*
X115943285Y-61245619D01*
X115800428Y-61626571D01*
X115657571Y-61817047D01*
X115371857Y-62007523D01*
X114943285Y-62007523D01*
X116800428Y-59340857D02*
X117943285Y-59340857D01*
X117229000Y-58007523D02*
X117229000Y-61436095D01*
X117371857Y-61817047D01*
X117657571Y-62007523D01*
X117943285Y-62007523D01*
X119371857Y-62007523D02*
X119086142Y-61817047D01*
X118943285Y-61626571D01*
X118800428Y-61245619D01*
X118800428Y-60102761D01*
X118943285Y-59721809D01*
X119086142Y-59531333D01*
X119371857Y-59340857D01*
X119800428Y-59340857D01*
X120086142Y-59531333D01*
X120229000Y-59721809D01*
X120371857Y-60102761D01*
X120371857Y-61245619D01*
X120229000Y-61626571D01*
X120086142Y-61817047D01*
X119800428Y-62007523D01*
X119371857Y-62007523D01*
X123371857Y-61626571D02*
X123229000Y-61817047D01*
X122800428Y-62007523D01*
X122514714Y-62007523D01*
X122086142Y-61817047D01*
X121800428Y-61436095D01*
X121657571Y-61055142D01*
X121514714Y-60293238D01*
X121514714Y-59721809D01*
X121657571Y-58959904D01*
X121800428Y-58578952D01*
X122086142Y-58198000D01*
X122514714Y-58007523D01*
X122800428Y-58007523D01*
X123229000Y-58198000D01*
X123371857Y-58388476D01*
X124229000Y-58007523D02*
X125229000Y-62007523D01*
X126229000Y-58007523D01*
D10*
X161615428Y-57387904D02*
X161615428Y-56626000D01*
X161996380Y-57006952D02*
X161234476Y-57006952D01*
X161996380Y-55626000D02*
X161996380Y-56197428D01*
X161996380Y-55911714D02*
X160996380Y-55911714D01*
X161139238Y-56006952D01*
X161234476Y-56102190D01*
X161282095Y-56197428D01*
X161091619Y-55245047D02*
X161044000Y-55197428D01*
X160996380Y-55102190D01*
X160996380Y-54864095D01*
X161044000Y-54768857D01*
X161091619Y-54721238D01*
X161186857Y-54673619D01*
X161282095Y-54673619D01*
X161424952Y-54721238D01*
X161996380Y-55292666D01*
X161996380Y-54673619D01*
X160996380Y-54387904D02*
X161996380Y-54054571D01*
X160996380Y-53721238D01*
X146248428Y-57260904D02*
X146248428Y-56499000D01*
X146629380Y-55499000D02*
X146629380Y-56070428D01*
X146629380Y-55784714D02*
X145629380Y-55784714D01*
X145772238Y-55879952D01*
X145867476Y-55975190D01*
X145915095Y-56070428D01*
X145724619Y-55118047D02*
X145677000Y-55070428D01*
X145629380Y-54975190D01*
X145629380Y-54737095D01*
X145677000Y-54641857D01*
X145724619Y-54594238D01*
X145819857Y-54546619D01*
X145915095Y-54546619D01*
X146057952Y-54594238D01*
X146629380Y-55165666D01*
X146629380Y-54546619D01*
X145629380Y-54260904D02*
X146629380Y-53927571D01*
X145629380Y-53594238D01*
D12*
X147193000Y-52832000D02*
X147193000Y-57912000D01*
D13*
X180541500Y-112810000D02*
X180541500Y-113285000D01*
X180541500Y-113285000D02*
X180066500Y-113285000D01*
X177321500Y-110540000D02*
X177321500Y-110065000D01*
X177321500Y-110065000D02*
X177796500Y-110065000D01*
X177321500Y-112810000D02*
X177321500Y-113285000D01*
X177321500Y-113285000D02*
X177796500Y-113285000D01*
X180541500Y-110540000D02*
X180541500Y-110065000D01*
X173645100Y-112829121D02*
X173645100Y-113154679D01*
X174665100Y-112829121D02*
X174665100Y-113154679D01*
X171445422Y-63067000D02*
X171962578Y-63067000D01*
X171445422Y-61647000D02*
X171962578Y-61647000D01*
X133791000Y-107885000D02*
X133791000Y-109215000D01*
X132461000Y-107885000D02*
X133791000Y-107885000D01*
X131191000Y-107885000D02*
X131191000Y-110545000D01*
X131191000Y-110545000D02*
X131131000Y-110545000D01*
X131191000Y-107885000D02*
X131131000Y-107885000D01*
X131131000Y-107885000D02*
X131131000Y-110545000D01*
X112970000Y-143280000D02*
X114300000Y-143280000D01*
X112970000Y-144610000D02*
X112970000Y-143280000D01*
X112970000Y-145880000D02*
X115630000Y-145880000D01*
X115630000Y-145880000D02*
X115630000Y-145940000D01*
X112970000Y-145880000D02*
X112970000Y-145940000D01*
X112970000Y-145940000D02*
X115630000Y-145940000D01*
X123130000Y-143280000D02*
X124460000Y-143280000D01*
X123130000Y-144610000D02*
X123130000Y-143280000D01*
X123130000Y-145880000D02*
X125790000Y-145880000D01*
X125790000Y-145880000D02*
X125790000Y-145940000D01*
X123130000Y-145880000D02*
X123130000Y-145940000D01*
X123130000Y-145940000D02*
X125790000Y-145940000D01*
X133290000Y-143280000D02*
X134620000Y-143280000D01*
X133290000Y-144610000D02*
X133290000Y-143280000D01*
X133290000Y-145880000D02*
X135950000Y-145880000D01*
X135950000Y-145880000D02*
X135950000Y-145940000D01*
X133290000Y-145880000D02*
X133290000Y-145940000D01*
X133290000Y-145940000D02*
X135950000Y-145940000D01*
X143450000Y-143280000D02*
X144780000Y-143280000D01*
X143450000Y-144610000D02*
X143450000Y-143280000D01*
X143450000Y-145880000D02*
X146110000Y-145880000D01*
X146110000Y-145880000D02*
X146110000Y-145940000D01*
X143450000Y-145880000D02*
X143450000Y-145940000D01*
X143450000Y-145940000D02*
X146110000Y-145940000D01*
X153610000Y-143280000D02*
X154940000Y-143280000D01*
X153610000Y-144610000D02*
X153610000Y-143280000D01*
X153610000Y-145880000D02*
X156270000Y-145880000D01*
X156270000Y-145880000D02*
X156270000Y-145940000D01*
X153610000Y-145880000D02*
X153610000Y-145940000D01*
X153610000Y-145940000D02*
X156270000Y-145940000D01*
X163770000Y-143280000D02*
X165100000Y-143280000D01*
X163770000Y-144610000D02*
X163770000Y-143280000D01*
X163770000Y-145880000D02*
X166430000Y-145880000D01*
X166430000Y-145880000D02*
X166430000Y-145940000D01*
X163770000Y-145880000D02*
X163770000Y-145940000D01*
X163770000Y-145940000D02*
X166430000Y-145940000D01*
X173930000Y-143280000D02*
X175260000Y-143280000D01*
X173930000Y-144610000D02*
X173930000Y-143280000D01*
X173930000Y-145880000D02*
X176590000Y-145880000D01*
X176590000Y-145880000D02*
X176590000Y-145940000D01*
X173930000Y-145880000D02*
X173930000Y-145940000D01*
X173930000Y-145940000D02*
X176590000Y-145940000D01*
X184090000Y-143280000D02*
X185420000Y-143280000D01*
X184090000Y-144610000D02*
X184090000Y-143280000D01*
X184090000Y-145880000D02*
X186750000Y-145880000D01*
X186750000Y-145880000D02*
X186750000Y-145940000D01*
X184090000Y-145880000D02*
X184090000Y-145940000D01*
X184090000Y-145940000D02*
X186750000Y-145940000D01*
X133791000Y-118553000D02*
X133791000Y-119883000D01*
X132461000Y-118553000D02*
X133791000Y-118553000D01*
X131191000Y-118553000D02*
X131191000Y-121213000D01*
X131191000Y-121213000D02*
X131131000Y-121213000D01*
X131191000Y-118553000D02*
X131131000Y-118553000D01*
X131131000Y-118553000D02*
X131131000Y-121213000D01*
X133791000Y-113224000D02*
X133791000Y-114554000D01*
X132461000Y-113224000D02*
X133791000Y-113224000D01*
X131191000Y-113224000D02*
X131191000Y-115884000D01*
X131191000Y-115884000D02*
X131131000Y-115884000D01*
X131191000Y-113224000D02*
X131131000Y-113224000D01*
X131131000Y-113224000D02*
X131131000Y-115884000D01*
X136697000Y-65595000D02*
X136697000Y-71605000D01*
X129877000Y-67845000D02*
X129877000Y-71605000D01*
X136697000Y-71605000D02*
X135437000Y-71605000D01*
X129877000Y-71605000D02*
X131137000Y-71605000D01*
D10*
X116018000Y-72538000D02*
X110043000Y-72538000D01*
X114493000Y-65638000D02*
X110043000Y-65638000D01*
D13*
X188454500Y-115707000D02*
X188454500Y-114507000D01*
X192454500Y-115707000D02*
X188454500Y-115707000D01*
X188454500Y-110907000D02*
X191154500Y-110907000D01*
X188454500Y-112107000D02*
X188454500Y-110907000D01*
X180326000Y-61286000D02*
X180326000Y-62526000D01*
X181566000Y-61286000D02*
X180326000Y-61286000D01*
X189186000Y-73247000D02*
X180566000Y-73247000D01*
X189186000Y-61526000D02*
X180566000Y-61526000D01*
X180566000Y-61526000D02*
X180566000Y-73247000D01*
X189186000Y-61526000D02*
X189186000Y-73247000D01*
D10*
X151629400Y-112416000D02*
X150279400Y-112416000D01*
X151629400Y-117541000D02*
X156279400Y-117541000D01*
X151629400Y-112291000D02*
X156279400Y-112291000D01*
X151629400Y-117541000D02*
X151629400Y-117316000D01*
X156279400Y-117541000D02*
X156279400Y-117316000D01*
X156279400Y-112291000D02*
X156279400Y-112516000D01*
X151629400Y-112291000D02*
X151629400Y-112416000D01*
X113504000Y-112416000D02*
X112154000Y-112416000D01*
X113504000Y-117541000D02*
X118154000Y-117541000D01*
X113504000Y-112291000D02*
X118154000Y-112291000D01*
X113504000Y-117541000D02*
X113504000Y-117316000D01*
X118154000Y-117541000D02*
X118154000Y-117316000D01*
X118154000Y-112291000D02*
X118154000Y-112516000D01*
X113504000Y-112291000D02*
X113504000Y-112416000D01*
D13*
X192074779Y-81786000D02*
X191749221Y-81786000D01*
X192074779Y-82806000D02*
X191749221Y-82806000D01*
X179266779Y-81913000D02*
X178941221Y-81913000D01*
X179266779Y-82933000D02*
X178941221Y-82933000D01*
X166439779Y-81786000D02*
X166114221Y-81786000D01*
X166439779Y-82806000D02*
X166114221Y-82806000D01*
X153726779Y-81532000D02*
X153401221Y-81532000D01*
X153726779Y-82552000D02*
X153401221Y-82552000D01*
X141166779Y-81786000D02*
X140841221Y-81786000D01*
X141166779Y-82806000D02*
X140841221Y-82806000D01*
X128446779Y-81786000D02*
X128121221Y-81786000D01*
X128446779Y-82806000D02*
X128121221Y-82806000D01*
X115729779Y-81659000D02*
X115404221Y-81659000D01*
X115729779Y-82679000D02*
X115404221Y-82679000D01*
X103073779Y-81659000D02*
X102748221Y-81659000D01*
X103073779Y-82679000D02*
X102748221Y-82679000D01*
X191749221Y-85863000D02*
X192074779Y-85863000D01*
X191749221Y-84843000D02*
X192074779Y-84843000D01*
X178941221Y-85990000D02*
X179266779Y-85990000D01*
X178941221Y-84970000D02*
X179266779Y-84970000D01*
X166114221Y-85863000D02*
X166439779Y-85863000D01*
X166114221Y-84843000D02*
X166439779Y-84843000D01*
X153401221Y-85863000D02*
X153726779Y-85863000D01*
X153401221Y-84843000D02*
X153726779Y-84843000D01*
X140841221Y-85863000D02*
X141166779Y-85863000D01*
X140841221Y-84843000D02*
X141166779Y-84843000D01*
X128121221Y-85863000D02*
X128446779Y-85863000D01*
X128121221Y-84843000D02*
X128446779Y-84843000D01*
X115404221Y-85736000D02*
X115729779Y-85736000D01*
X115404221Y-84716000D02*
X115729779Y-84716000D01*
X102748221Y-85736000D02*
X103073779Y-85736000D01*
X102748221Y-84716000D02*
X103073779Y-84716000D01*
X142585221Y-57152000D02*
X142910779Y-57152000D01*
X142585221Y-56132000D02*
X142910779Y-56132000D01*
X137068779Y-117722000D02*
X136743221Y-117722000D01*
X137068779Y-118742000D02*
X136743221Y-118742000D01*
X137158000Y-114513221D02*
X137158000Y-114838779D01*
X138178000Y-114513221D02*
X138178000Y-114838779D01*
X162176464Y-107402000D02*
X160972336Y-107402000D01*
X162176464Y-109222000D02*
X160972336Y-109222000D01*
X162176464Y-119848000D02*
X160972336Y-119848000D01*
X162176464Y-121668000D02*
X160972336Y-121668000D01*
X145986336Y-121668000D02*
X147190464Y-121668000D01*
X145986336Y-119848000D02*
X147190464Y-119848000D01*
X145986336Y-109222000D02*
X147190464Y-109222000D01*
X145986336Y-107402000D02*
X147190464Y-107402000D01*
X162334400Y-112213221D02*
X162334400Y-112538779D01*
X163354400Y-112213221D02*
X163354400Y-112538779D01*
X163354400Y-116856779D02*
X163354400Y-116531221D01*
X162334400Y-116856779D02*
X162334400Y-116531221D01*
X145828400Y-116856779D02*
X145828400Y-116531221D01*
X144808400Y-116856779D02*
X144808400Y-116531221D01*
X144808400Y-112213221D02*
X144808400Y-112538779D01*
X145828400Y-112213221D02*
X145828400Y-112538779D01*
X166021400Y-112538779D02*
X166021400Y-112213221D01*
X165001400Y-112538779D02*
X165001400Y-112213221D01*
X165001400Y-116531221D02*
X165001400Y-116856779D01*
X166021400Y-116531221D02*
X166021400Y-116856779D01*
X142014400Y-116531221D02*
X142014400Y-116856779D01*
X143034400Y-116531221D02*
X143034400Y-116856779D01*
X143034400Y-112538779D02*
X143034400Y-112213221D01*
X142014400Y-112538779D02*
X142014400Y-112213221D01*
X124051064Y-107402000D02*
X122846936Y-107402000D01*
X124051064Y-109222000D02*
X122846936Y-109222000D01*
X124051064Y-119848000D02*
X122846936Y-119848000D01*
X124051064Y-121668000D02*
X122846936Y-121668000D01*
X107860936Y-121668000D02*
X109065064Y-121668000D01*
X107860936Y-119848000D02*
X109065064Y-119848000D01*
X107860936Y-109222000D02*
X109065064Y-109222000D01*
X107860936Y-107402000D02*
X109065064Y-107402000D01*
X124209000Y-112213221D02*
X124209000Y-112538779D01*
X125229000Y-112213221D02*
X125229000Y-112538779D01*
X125229000Y-116856779D02*
X125229000Y-116531221D01*
X124209000Y-116856779D02*
X124209000Y-116531221D01*
X107703000Y-116856779D02*
X107703000Y-116531221D01*
X106683000Y-116856779D02*
X106683000Y-116531221D01*
X106683000Y-112213221D02*
X106683000Y-112538779D01*
X107703000Y-112213221D02*
X107703000Y-112538779D01*
X127896000Y-112538779D02*
X127896000Y-112213221D01*
X126876000Y-112538779D02*
X126876000Y-112213221D01*
X126876000Y-116531221D02*
X126876000Y-116856779D01*
X127896000Y-116531221D02*
X127896000Y-116856779D01*
X103889000Y-116531221D02*
X103889000Y-116856779D01*
X104909000Y-116531221D02*
X104909000Y-116856779D01*
X104909000Y-112538779D02*
X104909000Y-112213221D01*
X103889000Y-112538779D02*
X103889000Y-112213221D01*
X195270000Y-85088000D02*
X195270000Y-83628000D01*
X198430000Y-85088000D02*
X198430000Y-82928000D01*
X198430000Y-85088000D02*
X197500000Y-85088000D01*
X195270000Y-85088000D02*
X196200000Y-85088000D01*
X182570000Y-85215000D02*
X182570000Y-83755000D01*
X185730000Y-85215000D02*
X185730000Y-83055000D01*
X185730000Y-85215000D02*
X184800000Y-85215000D01*
X182570000Y-85215000D02*
X183500000Y-85215000D01*
X169870000Y-85088000D02*
X169870000Y-83628000D01*
X173030000Y-85088000D02*
X173030000Y-82928000D01*
X173030000Y-85088000D02*
X172100000Y-85088000D01*
X169870000Y-85088000D02*
X170800000Y-85088000D01*
X157170000Y-84834000D02*
X157170000Y-83374000D01*
X160330000Y-84834000D02*
X160330000Y-82674000D01*
X160330000Y-84834000D02*
X159400000Y-84834000D01*
X157170000Y-84834000D02*
X158100000Y-84834000D01*
X144470000Y-85088000D02*
X144470000Y-83628000D01*
X147630000Y-85088000D02*
X147630000Y-82928000D01*
X147630000Y-85088000D02*
X146700000Y-85088000D01*
X144470000Y-85088000D02*
X145400000Y-85088000D01*
X131770000Y-85088000D02*
X131770000Y-83628000D01*
X134930000Y-85088000D02*
X134930000Y-82928000D01*
X134930000Y-85088000D02*
X134000000Y-85088000D01*
X131770000Y-85088000D02*
X132700000Y-85088000D01*
X118800000Y-84961000D02*
X118800000Y-83501000D01*
X121960000Y-84961000D02*
X121960000Y-82801000D01*
X121960000Y-84961000D02*
X121030000Y-84961000D01*
X118800000Y-84961000D02*
X119730000Y-84961000D01*
X106370000Y-84970000D02*
X106370000Y-83510000D01*
X109530000Y-84970000D02*
X109530000Y-82810000D01*
X109530000Y-84970000D02*
X108600000Y-84970000D01*
X106370000Y-84970000D02*
X107300000Y-84970000D01*
D10*
X196110000Y-96172000D02*
G75*
G03X196110000Y-96172000I-1800000J0D01*
G01*
X197316659Y-96172000D02*
G75*
G03X197316659Y-96172000I-3006659J0D01*
G01*
X189810000Y-90172000D02*
X189810000Y-100672000D01*
X198810000Y-90172000D02*
X189810000Y-90172000D01*
X198810000Y-100672000D02*
X198810000Y-90172000D01*
X189810000Y-100672000D02*
X198810000Y-100672000D01*
X194310000Y-94372000D02*
X194310000Y-97972000D01*
X196110000Y-96172000D02*
X192510000Y-96172000D01*
X183410000Y-96172000D02*
G75*
G03X183410000Y-96172000I-1800000J0D01*
G01*
X184616659Y-96172000D02*
G75*
G03X184616659Y-96172000I-3006659J0D01*
G01*
X177110000Y-90172000D02*
X177110000Y-100672000D01*
X186110000Y-90172000D02*
X177110000Y-90172000D01*
X186110000Y-100672000D02*
X186110000Y-90172000D01*
X177110000Y-100672000D02*
X186110000Y-100672000D01*
X181610000Y-94372000D02*
X181610000Y-97972000D01*
X183410000Y-96172000D02*
X179810000Y-96172000D01*
X170710000Y-96172000D02*
G75*
G03X170710000Y-96172000I-1800000J0D01*
G01*
X171916659Y-96172000D02*
G75*
G03X171916659Y-96172000I-3006659J0D01*
G01*
X164410000Y-90172000D02*
X164410000Y-100672000D01*
X173410000Y-90172000D02*
X164410000Y-90172000D01*
X173410000Y-100672000D02*
X173410000Y-90172000D01*
X164410000Y-100672000D02*
X173410000Y-100672000D01*
X168910000Y-94372000D02*
X168910000Y-97972000D01*
X170710000Y-96172000D02*
X167110000Y-96172000D01*
X158010000Y-96172000D02*
G75*
G03X158010000Y-96172000I-1800000J0D01*
G01*
X159216659Y-96172000D02*
G75*
G03X159216659Y-96172000I-3006659J0D01*
G01*
X151710000Y-90172000D02*
X151710000Y-100672000D01*
X160710000Y-90172000D02*
X151710000Y-90172000D01*
X160710000Y-100672000D02*
X160710000Y-90172000D01*
X151710000Y-100672000D02*
X160710000Y-100672000D01*
X156210000Y-94372000D02*
X156210000Y-97972000D01*
X158010000Y-96172000D02*
X154410000Y-96172000D01*
X145310000Y-96172000D02*
G75*
G03X145310000Y-96172000I-1800000J0D01*
G01*
X146516659Y-96172000D02*
G75*
G03X146516659Y-96172000I-3006659J0D01*
G01*
X139010000Y-90172000D02*
X139010000Y-100672000D01*
X148010000Y-90172000D02*
X139010000Y-90172000D01*
X148010000Y-100672000D02*
X148010000Y-90172000D01*
X139010000Y-100672000D02*
X148010000Y-100672000D01*
X143510000Y-94372000D02*
X143510000Y-97972000D01*
X145310000Y-96172000D02*
X141710000Y-96172000D01*
X132610000Y-96172000D02*
G75*
G03X132610000Y-96172000I-1800000J0D01*
G01*
X133816659Y-96172000D02*
G75*
G03X133816659Y-96172000I-3006659J0D01*
G01*
X126310000Y-90172000D02*
X126310000Y-100672000D01*
X135310000Y-90172000D02*
X126310000Y-90172000D01*
X135310000Y-100672000D02*
X135310000Y-90172000D01*
X126310000Y-100672000D02*
X135310000Y-100672000D01*
X130810000Y-94372000D02*
X130810000Y-97972000D01*
X132610000Y-96172000D02*
X129010000Y-96172000D01*
X119910000Y-96172000D02*
G75*
G03X119910000Y-96172000I-1800000J0D01*
G01*
X121116659Y-96172000D02*
G75*
G03X121116659Y-96172000I-3006659J0D01*
G01*
X113610000Y-90172000D02*
X113610000Y-100672000D01*
X122610000Y-90172000D02*
X113610000Y-90172000D01*
X122610000Y-100672000D02*
X122610000Y-90172000D01*
X113610000Y-100672000D02*
X122610000Y-100672000D01*
X118110000Y-94372000D02*
X118110000Y-97972000D01*
X119910000Y-96172000D02*
X116310000Y-96172000D01*
X107210000Y-96172000D02*
G75*
G03X107210000Y-96172000I-1800000J0D01*
G01*
X108416659Y-96172000D02*
G75*
G03X108416659Y-96172000I-3006659J0D01*
G01*
X100910000Y-90172000D02*
X100910000Y-100672000D01*
X109910000Y-90172000D02*
X100910000Y-90172000D01*
X109910000Y-100672000D02*
X109910000Y-90172000D01*
X100910000Y-100672000D02*
X109910000Y-100672000D01*
X105410000Y-94372000D02*
X105410000Y-97972000D01*
X107210000Y-96172000D02*
X103610000Y-96172000D01*
D13*
X113224000Y-55432000D02*
X113224000Y-54102000D01*
X114554000Y-55432000D02*
X113224000Y-55432000D01*
X115824000Y-55432000D02*
X115824000Y-52772000D01*
X115824000Y-52772000D02*
X136204000Y-52772000D01*
X115824000Y-55432000D02*
X136204000Y-55432000D01*
X136204000Y-55432000D02*
X136204000Y-52772000D01*
X173930000Y-55432000D02*
X173930000Y-54102000D01*
X175260000Y-55432000D02*
X173930000Y-55432000D01*
X176530000Y-55432000D02*
X176530000Y-52772000D01*
X176530000Y-52772000D02*
X186750000Y-52772000D01*
X176530000Y-55432000D02*
X186750000Y-55432000D01*
X186750000Y-55432000D02*
X186750000Y-52772000D01*
X147768000Y-57982000D02*
X147768000Y-56652000D01*
X149098000Y-57982000D02*
X147768000Y-57982000D01*
X147768000Y-55382000D02*
X147768000Y-52782000D01*
X150368000Y-55382000D02*
X147768000Y-55382000D01*
X150368000Y-57982000D02*
X150368000Y-55382000D01*
X147768000Y-52782000D02*
X160588000Y-52782000D01*
X150368000Y-57982000D02*
X160588000Y-57982000D01*
X160588000Y-57982000D02*
X160588000Y-52782000D01*
D10*
X196110000Y-132460000D02*
G75*
G03X196110000Y-132460000I-1800000J0D01*
G01*
X197316659Y-132460000D02*
G75*
G03X197316659Y-132460000I-3006659J0D01*
G01*
X189810000Y-126460000D02*
X189810000Y-136960000D01*
X198810000Y-126460000D02*
X189810000Y-126460000D01*
X198810000Y-136960000D02*
X198810000Y-126460000D01*
X189810000Y-136960000D02*
X198810000Y-136960000D01*
X194310000Y-130660000D02*
X194310000Y-134260000D01*
X196110000Y-132460000D02*
X192510000Y-132460000D01*
X183410000Y-132460000D02*
G75*
G03X183410000Y-132460000I-1800000J0D01*
G01*
X184616659Y-132460000D02*
G75*
G03X184616659Y-132460000I-3006659J0D01*
G01*
X177110000Y-126460000D02*
X177110000Y-136960000D01*
X186110000Y-126460000D02*
X177110000Y-126460000D01*
X186110000Y-136960000D02*
X186110000Y-126460000D01*
X177110000Y-136960000D02*
X186110000Y-136960000D01*
X181610000Y-130660000D02*
X181610000Y-134260000D01*
X183410000Y-132460000D02*
X179810000Y-132460000D01*
X170710000Y-132460000D02*
G75*
G03X170710000Y-132460000I-1800000J0D01*
G01*
X171916659Y-132460000D02*
G75*
G03X171916659Y-132460000I-3006659J0D01*
G01*
X164410000Y-126460000D02*
X164410000Y-136960000D01*
X173410000Y-126460000D02*
X164410000Y-126460000D01*
X173410000Y-136960000D02*
X173410000Y-126460000D01*
X164410000Y-136960000D02*
X173410000Y-136960000D01*
X168910000Y-130660000D02*
X168910000Y-134260000D01*
X170710000Y-132460000D02*
X167110000Y-132460000D01*
X158010000Y-132460000D02*
G75*
G03X158010000Y-132460000I-1800000J0D01*
G01*
X159216659Y-132460000D02*
G75*
G03X159216659Y-132460000I-3006659J0D01*
G01*
X151710000Y-126460000D02*
X151710000Y-136960000D01*
X160710000Y-126460000D02*
X151710000Y-126460000D01*
X160710000Y-136960000D02*
X160710000Y-126460000D01*
X151710000Y-136960000D02*
X160710000Y-136960000D01*
X156210000Y-130660000D02*
X156210000Y-134260000D01*
X158010000Y-132460000D02*
X154410000Y-132460000D01*
X145310000Y-132460000D02*
G75*
G03X145310000Y-132460000I-1800000J0D01*
G01*
X146516659Y-132460000D02*
G75*
G03X146516659Y-132460000I-3006659J0D01*
G01*
X139010000Y-126460000D02*
X139010000Y-136960000D01*
X148010000Y-126460000D02*
X139010000Y-126460000D01*
X148010000Y-136960000D02*
X148010000Y-126460000D01*
X139010000Y-136960000D02*
X148010000Y-136960000D01*
X143510000Y-130660000D02*
X143510000Y-134260000D01*
X145310000Y-132460000D02*
X141710000Y-132460000D01*
X132610000Y-132460000D02*
G75*
G03X132610000Y-132460000I-1800000J0D01*
G01*
X133816659Y-132460000D02*
G75*
G03X133816659Y-132460000I-3006659J0D01*
G01*
X126310000Y-126460000D02*
X126310000Y-136960000D01*
X135310000Y-126460000D02*
X126310000Y-126460000D01*
X135310000Y-136960000D02*
X135310000Y-126460000D01*
X126310000Y-136960000D02*
X135310000Y-136960000D01*
X130810000Y-130660000D02*
X130810000Y-134260000D01*
X132610000Y-132460000D02*
X129010000Y-132460000D01*
X119910000Y-132460000D02*
G75*
G03X119910000Y-132460000I-1800000J0D01*
G01*
X121116659Y-132460000D02*
G75*
G03X121116659Y-132460000I-3006659J0D01*
G01*
X113610000Y-126460000D02*
X113610000Y-136960000D01*
X122610000Y-126460000D02*
X113610000Y-126460000D01*
X122610000Y-136960000D02*
X122610000Y-126460000D01*
X113610000Y-136960000D02*
X122610000Y-136960000D01*
X118110000Y-130660000D02*
X118110000Y-134260000D01*
X119910000Y-132460000D02*
X116310000Y-132460000D01*
X107210000Y-132460000D02*
G75*
G03X107210000Y-132460000I-1800000J0D01*
G01*
X108416659Y-132460000D02*
G75*
G03X108416659Y-132460000I-3006659J0D01*
G01*
X100910000Y-126460000D02*
X100910000Y-136960000D01*
X109910000Y-126460000D02*
X100910000Y-126460000D01*
X109910000Y-136960000D02*
X109910000Y-126460000D01*
X100910000Y-136960000D02*
X109910000Y-136960000D01*
X105410000Y-130660000D02*
X105410000Y-134260000D01*
X107210000Y-132460000D02*
X103610000Y-132460000D01*
D13*
X136781000Y-62773779D02*
X136781000Y-62448221D01*
X135761000Y-62773779D02*
X135761000Y-62448221D01*
X189710279Y-108587000D02*
X189384721Y-108587000D01*
X189710279Y-107567000D02*
X189384721Y-107567000D01*
X149697221Y-65026000D02*
X150022779Y-65026000D01*
X149697221Y-64006000D02*
X150022779Y-64006000D01*
X158658779Y-64006000D02*
X158333221Y-64006000D01*
X158658779Y-65026000D02*
X158333221Y-65026000D01*
X196157000Y-78466000D02*
X193672000Y-78466000D01*
X196157000Y-79836000D02*
X196157000Y-78466000D01*
X193672000Y-79836000D02*
X196157000Y-79836000D01*
X183349000Y-78593000D02*
X180864000Y-78593000D01*
X183349000Y-79963000D02*
X183349000Y-78593000D01*
X180864000Y-79963000D02*
X183349000Y-79963000D01*
X170522000Y-78466000D02*
X168037000Y-78466000D01*
X170522000Y-79836000D02*
X170522000Y-78466000D01*
X168037000Y-79836000D02*
X170522000Y-79836000D01*
X157809000Y-78442000D02*
X155324000Y-78442000D01*
X157809000Y-79812000D02*
X157809000Y-78442000D01*
X155324000Y-79812000D02*
X157809000Y-79812000D01*
X145249000Y-78466000D02*
X142764000Y-78466000D01*
X145249000Y-79836000D02*
X145249000Y-78466000D01*
X142764000Y-79836000D02*
X145249000Y-79836000D01*
X132529000Y-78466000D02*
X130044000Y-78466000D01*
X132529000Y-79836000D02*
X132529000Y-78466000D01*
X130044000Y-79836000D02*
X132529000Y-79836000D01*
X119812000Y-78339000D02*
X117327000Y-78339000D01*
X119812000Y-79709000D02*
X119812000Y-78339000D01*
X117327000Y-79709000D02*
X119812000Y-79709000D01*
X107156000Y-78309000D02*
X104671000Y-78309000D01*
X107156000Y-79679000D02*
X107156000Y-78309000D01*
X104671000Y-79679000D02*
X107156000Y-79679000D01*
X140961000Y-54539000D02*
X143446000Y-54539000D01*
X140961000Y-53169000D02*
X140961000Y-54539000D01*
X143446000Y-53169000D02*
X140961000Y-53169000D01*
X147660000Y-61452000D02*
X147660000Y-59452000D01*
X147660000Y-61452000D02*
X150860000Y-61452000D01*
X150860000Y-59452000D02*
X147660000Y-59452000D01*
X156296000Y-61706000D02*
X156296000Y-59706000D01*
X156296000Y-61706000D02*
X159496000Y-61706000D01*
X159496000Y-59706000D02*
X156296000Y-59706000D01*
X105662000Y-72608221D02*
X105662000Y-72933779D01*
X106682000Y-72608221D02*
X106682000Y-72933779D01*
X127413000Y-67227000D02*
X126913000Y-67227000D01*
X127163000Y-66977000D02*
X127163000Y-67477000D01*
X124407437Y-67717000D02*
X123343000Y-68781437D01*
X126798563Y-67717000D02*
X127863000Y-68781437D01*
X126798563Y-67717000D02*
X126663000Y-67717000D01*
X124407437Y-67717000D02*
X124543000Y-67717000D01*
X123343000Y-68781437D02*
X123343000Y-72237000D01*
X127863000Y-68781437D02*
X127863000Y-72237000D01*
X127863000Y-72237000D02*
X126663000Y-72237000D01*
X123343000Y-72237000D02*
X124543000Y-72237000D01*
X130685000Y-62773779D02*
X130685000Y-62448221D01*
X129665000Y-62773779D02*
X129665000Y-62448221D01*
X133733000Y-62773779D02*
X133733000Y-62448221D01*
X132713000Y-62773779D02*
X132713000Y-62448221D01*
X138663000Y-69374936D02*
X138663000Y-70579064D01*
X140483000Y-69374936D02*
X140483000Y-70579064D01*
X170851100Y-112829121D02*
X170851100Y-113154679D01*
X171871100Y-112829121D02*
X171871100Y-113154679D01*
X183161721Y-108587000D02*
X183487279Y-108587000D01*
X183161721Y-107567000D02*
X183487279Y-107567000D01*
X191986500Y-117501000D02*
X191986500Y-118701000D01*
X191986500Y-122021000D02*
X191986500Y-120821000D01*
X195442063Y-122021000D02*
X191986500Y-122021000D01*
X195442063Y-117501000D02*
X191986500Y-117501000D01*
X196506500Y-118565437D02*
X196506500Y-118701000D01*
X196506500Y-120956563D02*
X196506500Y-120821000D01*
X196506500Y-120956563D02*
X195442063Y-122021000D01*
X196506500Y-118565437D02*
X195442063Y-117501000D01*
X197246500Y-121321000D02*
X196746500Y-121321000D01*
X196996500Y-121571000D02*
X196996500Y-121071000D01*
X175470000Y-73057000D02*
X175470000Y-72557000D01*
X175720000Y-72807000D02*
X175220000Y-72807000D01*
X174980000Y-70051437D02*
X173915563Y-68987000D01*
X174980000Y-72442563D02*
X173915563Y-73507000D01*
X174980000Y-72442563D02*
X174980000Y-72307000D01*
X174980000Y-70051437D02*
X174980000Y-70187000D01*
X173915563Y-68987000D02*
X170460000Y-68987000D01*
X173915563Y-73507000D02*
X170460000Y-73507000D01*
X170460000Y-73507000D02*
X170460000Y-72307000D01*
X170460000Y-68987000D02*
X170460000Y-70187000D01*
X195443721Y-115341000D02*
X195769279Y-115341000D01*
X195443721Y-114321000D02*
X195769279Y-114321000D01*
X177200779Y-68197000D02*
X176875221Y-68197000D01*
X177200779Y-69217000D02*
X176875221Y-69217000D01*
X195443721Y-111273000D02*
X195769279Y-111273000D01*
X195443721Y-112293000D02*
X195769279Y-112293000D01*
X177200779Y-65403000D02*
X176875221Y-65403000D01*
X177200779Y-66423000D02*
X176875221Y-66423000D01*
X194279436Y-109368000D02*
X195483564Y-109368000D01*
X194279436Y-107548000D02*
X195483564Y-107548000D01*
X176878064Y-61701000D02*
X175673936Y-61701000D01*
X176878064Y-63521000D02*
X175673936Y-63521000D01*
X147862500Y-74940500D02*
X148487500Y-74940500D01*
X148175000Y-75253000D02*
X148175000Y-74628000D01*
X151555563Y-74388000D02*
X152620000Y-73323563D01*
X148164437Y-74388000D02*
X147100000Y-73323563D01*
X148164437Y-74388000D02*
X148800000Y-74388000D01*
X151555563Y-74388000D02*
X150920000Y-74388000D01*
X152620000Y-73323563D02*
X152620000Y-68868000D01*
X147100000Y-73323563D02*
X147100000Y-68868000D01*
X147100000Y-68868000D02*
X148800000Y-68868000D01*
X152620000Y-68868000D02*
X150920000Y-68868000D01*
X160493500Y-68315500D02*
X159868500Y-68315500D01*
X160181000Y-68003000D02*
X160181000Y-68628000D01*
X156800437Y-68868000D02*
X155736000Y-69932437D01*
X160191563Y-68868000D02*
X161256000Y-69932437D01*
X160191563Y-68868000D02*
X159556000Y-68868000D01*
X156800437Y-68868000D02*
X157436000Y-68868000D01*
X155736000Y-69932437D02*
X155736000Y-74388000D01*
X161256000Y-69932437D02*
X161256000Y-74388000D01*
X161256000Y-74388000D02*
X159556000Y-74388000D01*
X155736000Y-74388000D02*
X157436000Y-74388000D01*
X171609936Y-66823000D02*
X172814064Y-66823000D01*
X171609936Y-65003000D02*
X172814064Y-65003000D01*
X137068779Y-120516000D02*
X136743221Y-120516000D01*
X137068779Y-121536000D02*
X136743221Y-121536000D01*
X137068779Y-110610000D02*
X136743221Y-110610000D01*
X137068779Y-111630000D02*
X136743221Y-111630000D01*
X137068779Y-107816000D02*
X136743221Y-107816000D01*
X137068779Y-108836000D02*
X136743221Y-108836000D01*
X154938000Y-108549221D02*
X154938000Y-108874779D01*
X155958000Y-108549221D02*
X155958000Y-108874779D01*
X153164000Y-108874779D02*
X153164000Y-108549221D01*
X152144000Y-108874779D02*
X152144000Y-108549221D01*
X159540400Y-112213221D02*
X159540400Y-112538779D01*
X160560400Y-112213221D02*
X160560400Y-112538779D01*
X160560400Y-116856779D02*
X160560400Y-116531221D01*
X159540400Y-116856779D02*
X159540400Y-116531221D01*
X148495400Y-116856779D02*
X148495400Y-116531221D01*
X147475400Y-116856779D02*
X147475400Y-116531221D01*
X147475400Y-112213221D02*
X147475400Y-112538779D01*
X148495400Y-112213221D02*
X148495400Y-112538779D01*
X116584000Y-108549221D02*
X116584000Y-108874779D01*
X117604000Y-108549221D02*
X117604000Y-108874779D01*
X114810000Y-108874779D02*
X114810000Y-108549221D01*
X113790000Y-108874779D02*
X113790000Y-108549221D01*
X121415000Y-112213221D02*
X121415000Y-112538779D01*
X122435000Y-112213221D02*
X122435000Y-112538779D01*
X122435000Y-116856779D02*
X122435000Y-116531221D01*
X121415000Y-116856779D02*
X121415000Y-116531221D01*
X110370000Y-116856779D02*
X110370000Y-116531221D01*
X109350000Y-116856779D02*
X109350000Y-116531221D01*
X109350000Y-112213221D02*
X109350000Y-112538779D01*
X110370000Y-112213221D02*
X110370000Y-112538779D01*
D10*
X177292095Y-108164380D02*
X177292095Y-108973904D01*
X177339714Y-109069142D01*
X177387333Y-109116761D01*
X177482571Y-109164380D01*
X177673047Y-109164380D01*
X177768285Y-109116761D01*
X177815904Y-109069142D01*
X177863523Y-108973904D01*
X177863523Y-108164380D01*
X178244476Y-108164380D02*
X178863523Y-108164380D01*
X178530190Y-108545333D01*
X178673047Y-108545333D01*
X178768285Y-108592952D01*
X178815904Y-108640571D01*
X178863523Y-108735809D01*
X178863523Y-108973904D01*
X178815904Y-109069142D01*
X178768285Y-109116761D01*
X178673047Y-109164380D01*
X178387333Y-109164380D01*
X178292095Y-109116761D01*
X178244476Y-109069142D01*
X173275242Y-113634757D02*
X173322861Y-113682376D01*
X173370480Y-113825233D01*
X173370480Y-113920471D01*
X173322861Y-114063328D01*
X173227623Y-114158566D01*
X173132385Y-114206185D01*
X172941909Y-114253804D01*
X172799052Y-114253804D01*
X172608576Y-114206185D01*
X172513338Y-114158566D01*
X172418100Y-114063328D01*
X172370480Y-113920471D01*
X172370480Y-113825233D01*
X172418100Y-113682376D01*
X172465719Y-113634757D01*
X172370480Y-113301423D02*
X172370480Y-112682376D01*
X172751433Y-113015709D01*
X172751433Y-112872852D01*
X172799052Y-112777614D01*
X172846671Y-112729995D01*
X172941909Y-112682376D01*
X173180004Y-112682376D01*
X173275242Y-112729995D01*
X173322861Y-112777614D01*
X173370480Y-112872852D01*
X173370480Y-113158566D01*
X173322861Y-113253804D01*
X173275242Y-113301423D01*
X172703814Y-111825233D02*
X173370480Y-111825233D01*
X172322861Y-112063328D02*
X173037147Y-112301423D01*
X173037147Y-111682376D01*
X171537333Y-61159380D02*
X171061142Y-61159380D01*
X171061142Y-60159380D01*
X172394476Y-61159380D02*
X171823047Y-61159380D01*
X172108761Y-61159380D02*
X172108761Y-60159380D01*
X172013523Y-60302238D01*
X171918285Y-60397476D01*
X171823047Y-60445095D01*
X131695476Y-106381380D02*
X131695476Y-107095666D01*
X131647857Y-107238523D01*
X131552619Y-107333761D01*
X131409761Y-107381380D01*
X131314523Y-107381380D01*
X132076428Y-106381380D02*
X132695476Y-106381380D01*
X132362142Y-106762333D01*
X132505000Y-106762333D01*
X132600238Y-106809952D01*
X132647857Y-106857571D01*
X132695476Y-106952809D01*
X132695476Y-107190904D01*
X132647857Y-107286142D01*
X132600238Y-107333761D01*
X132505000Y-107381380D01*
X132219285Y-107381380D01*
X132124047Y-107333761D01*
X132076428Y-107286142D01*
X133314523Y-106381380D02*
X133409761Y-106381380D01*
X133505000Y-106429000D01*
X133552619Y-106476619D01*
X133600238Y-106571857D01*
X133647857Y-106762333D01*
X133647857Y-107000428D01*
X133600238Y-107190904D01*
X133552619Y-107286142D01*
X133505000Y-107333761D01*
X133409761Y-107381380D01*
X133314523Y-107381380D01*
X133219285Y-107333761D01*
X133171666Y-107286142D01*
X133124047Y-107190904D01*
X133076428Y-107000428D01*
X133076428Y-106762333D01*
X133124047Y-106571857D01*
X133171666Y-106476619D01*
X133219285Y-106429000D01*
X133314523Y-106381380D01*
X113490476Y-141732380D02*
X113490476Y-142446666D01*
X113442857Y-142589523D01*
X113347619Y-142684761D01*
X113204761Y-142732380D01*
X113109523Y-142732380D01*
X113919047Y-141827619D02*
X113966666Y-141780000D01*
X114061904Y-141732380D01*
X114300000Y-141732380D01*
X114395238Y-141780000D01*
X114442857Y-141827619D01*
X114490476Y-141922857D01*
X114490476Y-142018095D01*
X114442857Y-142160952D01*
X113871428Y-142732380D01*
X114490476Y-142732380D01*
X114966666Y-142732380D02*
X115157142Y-142732380D01*
X115252380Y-142684761D01*
X115300000Y-142637142D01*
X115395238Y-142494285D01*
X115442857Y-142303809D01*
X115442857Y-141922857D01*
X115395238Y-141827619D01*
X115347619Y-141780000D01*
X115252380Y-141732380D01*
X115061904Y-141732380D01*
X114966666Y-141780000D01*
X114919047Y-141827619D01*
X114871428Y-141922857D01*
X114871428Y-142160952D01*
X114919047Y-142256190D01*
X114966666Y-142303809D01*
X115061904Y-142351428D01*
X115252380Y-142351428D01*
X115347619Y-142303809D01*
X115395238Y-142256190D01*
X115442857Y-142160952D01*
X123650476Y-141732380D02*
X123650476Y-142446666D01*
X123602857Y-142589523D01*
X123507619Y-142684761D01*
X123364761Y-142732380D01*
X123269523Y-142732380D01*
X124079047Y-141827619D02*
X124126666Y-141780000D01*
X124221904Y-141732380D01*
X124460000Y-141732380D01*
X124555238Y-141780000D01*
X124602857Y-141827619D01*
X124650476Y-141922857D01*
X124650476Y-142018095D01*
X124602857Y-142160952D01*
X124031428Y-142732380D01*
X124650476Y-142732380D01*
X125221904Y-142160952D02*
X125126666Y-142113333D01*
X125079047Y-142065714D01*
X125031428Y-141970476D01*
X125031428Y-141922857D01*
X125079047Y-141827619D01*
X125126666Y-141780000D01*
X125221904Y-141732380D01*
X125412380Y-141732380D01*
X125507619Y-141780000D01*
X125555238Y-141827619D01*
X125602857Y-141922857D01*
X125602857Y-141970476D01*
X125555238Y-142065714D01*
X125507619Y-142113333D01*
X125412380Y-142160952D01*
X125221904Y-142160952D01*
X125126666Y-142208571D01*
X125079047Y-142256190D01*
X125031428Y-142351428D01*
X125031428Y-142541904D01*
X125079047Y-142637142D01*
X125126666Y-142684761D01*
X125221904Y-142732380D01*
X125412380Y-142732380D01*
X125507619Y-142684761D01*
X125555238Y-142637142D01*
X125602857Y-142541904D01*
X125602857Y-142351428D01*
X125555238Y-142256190D01*
X125507619Y-142208571D01*
X125412380Y-142160952D01*
X133810476Y-141732380D02*
X133810476Y-142446666D01*
X133762857Y-142589523D01*
X133667619Y-142684761D01*
X133524761Y-142732380D01*
X133429523Y-142732380D01*
X134239047Y-141827619D02*
X134286666Y-141780000D01*
X134381904Y-141732380D01*
X134620000Y-141732380D01*
X134715238Y-141780000D01*
X134762857Y-141827619D01*
X134810476Y-141922857D01*
X134810476Y-142018095D01*
X134762857Y-142160952D01*
X134191428Y-142732380D01*
X134810476Y-142732380D01*
X135143809Y-141732380D02*
X135810476Y-141732380D01*
X135381904Y-142732380D01*
X143970476Y-141732380D02*
X143970476Y-142446666D01*
X143922857Y-142589523D01*
X143827619Y-142684761D01*
X143684761Y-142732380D01*
X143589523Y-142732380D01*
X144399047Y-141827619D02*
X144446666Y-141780000D01*
X144541904Y-141732380D01*
X144780000Y-141732380D01*
X144875238Y-141780000D01*
X144922857Y-141827619D01*
X144970476Y-141922857D01*
X144970476Y-142018095D01*
X144922857Y-142160952D01*
X144351428Y-142732380D01*
X144970476Y-142732380D01*
X145827619Y-141732380D02*
X145637142Y-141732380D01*
X145541904Y-141780000D01*
X145494285Y-141827619D01*
X145399047Y-141970476D01*
X145351428Y-142160952D01*
X145351428Y-142541904D01*
X145399047Y-142637142D01*
X145446666Y-142684761D01*
X145541904Y-142732380D01*
X145732380Y-142732380D01*
X145827619Y-142684761D01*
X145875238Y-142637142D01*
X145922857Y-142541904D01*
X145922857Y-142303809D01*
X145875238Y-142208571D01*
X145827619Y-142160952D01*
X145732380Y-142113333D01*
X145541904Y-142113333D01*
X145446666Y-142160952D01*
X145399047Y-142208571D01*
X145351428Y-142303809D01*
X154130476Y-141732380D02*
X154130476Y-142446666D01*
X154082857Y-142589523D01*
X153987619Y-142684761D01*
X153844761Y-142732380D01*
X153749523Y-142732380D01*
X154559047Y-141827619D02*
X154606666Y-141780000D01*
X154701904Y-141732380D01*
X154940000Y-141732380D01*
X155035238Y-141780000D01*
X155082857Y-141827619D01*
X155130476Y-141922857D01*
X155130476Y-142018095D01*
X155082857Y-142160952D01*
X154511428Y-142732380D01*
X155130476Y-142732380D01*
X156035238Y-141732380D02*
X155559047Y-141732380D01*
X155511428Y-142208571D01*
X155559047Y-142160952D01*
X155654285Y-142113333D01*
X155892380Y-142113333D01*
X155987619Y-142160952D01*
X156035238Y-142208571D01*
X156082857Y-142303809D01*
X156082857Y-142541904D01*
X156035238Y-142637142D01*
X155987619Y-142684761D01*
X155892380Y-142732380D01*
X155654285Y-142732380D01*
X155559047Y-142684761D01*
X155511428Y-142637142D01*
X164290476Y-141732380D02*
X164290476Y-142446666D01*
X164242857Y-142589523D01*
X164147619Y-142684761D01*
X164004761Y-142732380D01*
X163909523Y-142732380D01*
X164719047Y-141827619D02*
X164766666Y-141780000D01*
X164861904Y-141732380D01*
X165100000Y-141732380D01*
X165195238Y-141780000D01*
X165242857Y-141827619D01*
X165290476Y-141922857D01*
X165290476Y-142018095D01*
X165242857Y-142160952D01*
X164671428Y-142732380D01*
X165290476Y-142732380D01*
X166147619Y-142065714D02*
X166147619Y-142732380D01*
X165909523Y-141684761D02*
X165671428Y-142399047D01*
X166290476Y-142399047D01*
X174450476Y-141732380D02*
X174450476Y-142446666D01*
X174402857Y-142589523D01*
X174307619Y-142684761D01*
X174164761Y-142732380D01*
X174069523Y-142732380D01*
X174879047Y-141827619D02*
X174926666Y-141780000D01*
X175021904Y-141732380D01*
X175260000Y-141732380D01*
X175355238Y-141780000D01*
X175402857Y-141827619D01*
X175450476Y-141922857D01*
X175450476Y-142018095D01*
X175402857Y-142160952D01*
X174831428Y-142732380D01*
X175450476Y-142732380D01*
X175783809Y-141732380D02*
X176402857Y-141732380D01*
X176069523Y-142113333D01*
X176212380Y-142113333D01*
X176307619Y-142160952D01*
X176355238Y-142208571D01*
X176402857Y-142303809D01*
X176402857Y-142541904D01*
X176355238Y-142637142D01*
X176307619Y-142684761D01*
X176212380Y-142732380D01*
X175926666Y-142732380D01*
X175831428Y-142684761D01*
X175783809Y-142637142D01*
X184610476Y-141732380D02*
X184610476Y-142446666D01*
X184562857Y-142589523D01*
X184467619Y-142684761D01*
X184324761Y-142732380D01*
X184229523Y-142732380D01*
X185039047Y-141827619D02*
X185086666Y-141780000D01*
X185181904Y-141732380D01*
X185420000Y-141732380D01*
X185515238Y-141780000D01*
X185562857Y-141827619D01*
X185610476Y-141922857D01*
X185610476Y-142018095D01*
X185562857Y-142160952D01*
X184991428Y-142732380D01*
X185610476Y-142732380D01*
X185991428Y-141827619D02*
X186039047Y-141780000D01*
X186134285Y-141732380D01*
X186372380Y-141732380D01*
X186467619Y-141780000D01*
X186515238Y-141827619D01*
X186562857Y-141922857D01*
X186562857Y-142018095D01*
X186515238Y-142160952D01*
X185943809Y-142732380D01*
X186562857Y-142732380D01*
X131695476Y-117049380D02*
X131695476Y-117763666D01*
X131647857Y-117906523D01*
X131552619Y-118001761D01*
X131409761Y-118049380D01*
X131314523Y-118049380D01*
X132124047Y-117144619D02*
X132171666Y-117097000D01*
X132266904Y-117049380D01*
X132505000Y-117049380D01*
X132600238Y-117097000D01*
X132647857Y-117144619D01*
X132695476Y-117239857D01*
X132695476Y-117335095D01*
X132647857Y-117477952D01*
X132076428Y-118049380D01*
X132695476Y-118049380D01*
X133647857Y-118049380D02*
X133076428Y-118049380D01*
X133362142Y-118049380D02*
X133362142Y-117049380D01*
X133266904Y-117192238D01*
X133171666Y-117287476D01*
X133076428Y-117335095D01*
X131695476Y-111720380D02*
X131695476Y-112434666D01*
X131647857Y-112577523D01*
X131552619Y-112672761D01*
X131409761Y-112720380D01*
X131314523Y-112720380D01*
X132695476Y-112720380D02*
X132124047Y-112720380D01*
X132409761Y-112720380D02*
X132409761Y-111720380D01*
X132314523Y-111863238D01*
X132219285Y-111958476D01*
X132124047Y-112006095D01*
X133314523Y-111720380D02*
X133409761Y-111720380D01*
X133505000Y-111768000D01*
X133552619Y-111815619D01*
X133600238Y-111910857D01*
X133647857Y-112101333D01*
X133647857Y-112339428D01*
X133600238Y-112529904D01*
X133552619Y-112625142D01*
X133505000Y-112672761D01*
X133409761Y-112720380D01*
X133314523Y-112720380D01*
X133219285Y-112672761D01*
X133171666Y-112625142D01*
X133124047Y-112529904D01*
X133076428Y-112339428D01*
X133076428Y-112101333D01*
X133124047Y-111910857D01*
X133171666Y-111815619D01*
X133219285Y-111768000D01*
X133314523Y-111720380D01*
X128357380Y-70357904D02*
X129166904Y-70357904D01*
X129262142Y-70310285D01*
X129309761Y-70262666D01*
X129357380Y-70167428D01*
X129357380Y-69976952D01*
X129309761Y-69881714D01*
X129262142Y-69834095D01*
X129166904Y-69786476D01*
X128357380Y-69786476D01*
X128357380Y-69405523D02*
X128357380Y-68738857D01*
X129357380Y-69167428D01*
X111506095Y-64222380D02*
X111506095Y-65031904D01*
X111553714Y-65127142D01*
X111601333Y-65174761D01*
X111696571Y-65222380D01*
X111887047Y-65222380D01*
X111982285Y-65174761D01*
X112029904Y-65127142D01*
X112077523Y-65031904D01*
X112077523Y-64222380D01*
X112982285Y-64222380D02*
X112791809Y-64222380D01*
X112696571Y-64270000D01*
X112648952Y-64317619D01*
X112553714Y-64460476D01*
X112506095Y-64650952D01*
X112506095Y-65031904D01*
X112553714Y-65127142D01*
X112601333Y-65174761D01*
X112696571Y-65222380D01*
X112887047Y-65222380D01*
X112982285Y-65174761D01*
X113029904Y-65127142D01*
X113077523Y-65031904D01*
X113077523Y-64793809D01*
X113029904Y-64698571D01*
X112982285Y-64650952D01*
X112887047Y-64603333D01*
X112696571Y-64603333D01*
X112601333Y-64650952D01*
X112553714Y-64698571D01*
X112506095Y-64793809D01*
X189022595Y-109561380D02*
X189022595Y-110370904D01*
X189070214Y-110466142D01*
X189117833Y-110513761D01*
X189213071Y-110561380D01*
X189403547Y-110561380D01*
X189498785Y-110513761D01*
X189546404Y-110466142D01*
X189594023Y-110370904D01*
X189594023Y-109561380D01*
X190546404Y-109561380D02*
X190070214Y-109561380D01*
X190022595Y-110037571D01*
X190070214Y-109989952D01*
X190165452Y-109942333D01*
X190403547Y-109942333D01*
X190498785Y-109989952D01*
X190546404Y-110037571D01*
X190594023Y-110132809D01*
X190594023Y-110370904D01*
X190546404Y-110466142D01*
X190498785Y-110513761D01*
X190403547Y-110561380D01*
X190165452Y-110561380D01*
X190070214Y-110513761D01*
X190022595Y-110466142D01*
X181991095Y-59777380D02*
X181991095Y-60586904D01*
X182038714Y-60682142D01*
X182086333Y-60729761D01*
X182181571Y-60777380D01*
X182372047Y-60777380D01*
X182467285Y-60729761D01*
X182514904Y-60682142D01*
X182562523Y-60586904D01*
X182562523Y-59777380D01*
X183467285Y-60110714D02*
X183467285Y-60777380D01*
X183229190Y-59729761D02*
X182991095Y-60444047D01*
X183610142Y-60444047D01*
X153192495Y-110818380D02*
X153192495Y-111627904D01*
X153240114Y-111723142D01*
X153287733Y-111770761D01*
X153382971Y-111818380D01*
X153573447Y-111818380D01*
X153668685Y-111770761D01*
X153716304Y-111723142D01*
X153763923Y-111627904D01*
X153763923Y-110818380D01*
X154192495Y-110913619D02*
X154240114Y-110866000D01*
X154335352Y-110818380D01*
X154573447Y-110818380D01*
X154668685Y-110866000D01*
X154716304Y-110913619D01*
X154763923Y-111008857D01*
X154763923Y-111104095D01*
X154716304Y-111246952D01*
X154144876Y-111818380D01*
X154763923Y-111818380D01*
X115067095Y-110818380D02*
X115067095Y-111627904D01*
X115114714Y-111723142D01*
X115162333Y-111770761D01*
X115257571Y-111818380D01*
X115448047Y-111818380D01*
X115543285Y-111770761D01*
X115590904Y-111723142D01*
X115638523Y-111627904D01*
X115638523Y-110818380D01*
X116638523Y-111818380D02*
X116067095Y-111818380D01*
X116352809Y-111818380D02*
X116352809Y-110818380D01*
X116257571Y-110961238D01*
X116162333Y-111056476D01*
X116067095Y-111104095D01*
X191254142Y-81478380D02*
X190920809Y-81002190D01*
X190682714Y-81478380D02*
X190682714Y-80478380D01*
X191063666Y-80478380D01*
X191158904Y-80526000D01*
X191206523Y-80573619D01*
X191254142Y-80668857D01*
X191254142Y-80811714D01*
X191206523Y-80906952D01*
X191158904Y-80954571D01*
X191063666Y-81002190D01*
X190682714Y-81002190D01*
X192111285Y-80811714D02*
X192111285Y-81478380D01*
X191873190Y-80430761D02*
X191635095Y-81145047D01*
X192254142Y-81145047D01*
X192539857Y-80478380D02*
X193158904Y-80478380D01*
X192825571Y-80859333D01*
X192968428Y-80859333D01*
X193063666Y-80906952D01*
X193111285Y-80954571D01*
X193158904Y-81049809D01*
X193158904Y-81287904D01*
X193111285Y-81383142D01*
X193063666Y-81430761D01*
X192968428Y-81478380D01*
X192682714Y-81478380D01*
X192587476Y-81430761D01*
X192539857Y-81383142D01*
X178461142Y-81478380D02*
X178127809Y-81002190D01*
X177889714Y-81478380D02*
X177889714Y-80478380D01*
X178270666Y-80478380D01*
X178365904Y-80526000D01*
X178413523Y-80573619D01*
X178461142Y-80668857D01*
X178461142Y-80811714D01*
X178413523Y-80906952D01*
X178365904Y-80954571D01*
X178270666Y-81002190D01*
X177889714Y-81002190D01*
X179318285Y-80811714D02*
X179318285Y-81478380D01*
X179080190Y-80430761D02*
X178842095Y-81145047D01*
X179461142Y-81145047D01*
X179794476Y-80573619D02*
X179842095Y-80526000D01*
X179937333Y-80478380D01*
X180175428Y-80478380D01*
X180270666Y-80526000D01*
X180318285Y-80573619D01*
X180365904Y-80668857D01*
X180365904Y-80764095D01*
X180318285Y-80906952D01*
X179746857Y-81478380D01*
X180365904Y-81478380D01*
X165600142Y-81605380D02*
X165266809Y-81129190D01*
X165028714Y-81605380D02*
X165028714Y-80605380D01*
X165409666Y-80605380D01*
X165504904Y-80653000D01*
X165552523Y-80700619D01*
X165600142Y-80795857D01*
X165600142Y-80938714D01*
X165552523Y-81033952D01*
X165504904Y-81081571D01*
X165409666Y-81129190D01*
X165028714Y-81129190D01*
X166457285Y-80938714D02*
X166457285Y-81605380D01*
X166219190Y-80557761D02*
X165981095Y-81272047D01*
X166600142Y-81272047D01*
X167504904Y-81605380D02*
X166933476Y-81605380D01*
X167219190Y-81605380D02*
X167219190Y-80605380D01*
X167123952Y-80748238D01*
X167028714Y-80843476D01*
X166933476Y-80891095D01*
X152921142Y-81351380D02*
X152587809Y-80875190D01*
X152349714Y-81351380D02*
X152349714Y-80351380D01*
X152730666Y-80351380D01*
X152825904Y-80399000D01*
X152873523Y-80446619D01*
X152921142Y-80541857D01*
X152921142Y-80684714D01*
X152873523Y-80779952D01*
X152825904Y-80827571D01*
X152730666Y-80875190D01*
X152349714Y-80875190D01*
X153778285Y-80684714D02*
X153778285Y-81351380D01*
X153540190Y-80303761D02*
X153302095Y-81018047D01*
X153921142Y-81018047D01*
X154492571Y-80351380D02*
X154587809Y-80351380D01*
X154683047Y-80399000D01*
X154730666Y-80446619D01*
X154778285Y-80541857D01*
X154825904Y-80732333D01*
X154825904Y-80970428D01*
X154778285Y-81160904D01*
X154730666Y-81256142D01*
X154683047Y-81303761D01*
X154587809Y-81351380D01*
X154492571Y-81351380D01*
X154397333Y-81303761D01*
X154349714Y-81256142D01*
X154302095Y-81160904D01*
X154254476Y-80970428D01*
X154254476Y-80732333D01*
X154302095Y-80541857D01*
X154349714Y-80446619D01*
X154397333Y-80399000D01*
X154492571Y-80351380D01*
X140327142Y-81351380D02*
X139993809Y-80875190D01*
X139755714Y-81351380D02*
X139755714Y-80351380D01*
X140136666Y-80351380D01*
X140231904Y-80399000D01*
X140279523Y-80446619D01*
X140327142Y-80541857D01*
X140327142Y-80684714D01*
X140279523Y-80779952D01*
X140231904Y-80827571D01*
X140136666Y-80875190D01*
X139755714Y-80875190D01*
X140660476Y-80351380D02*
X141279523Y-80351380D01*
X140946190Y-80732333D01*
X141089047Y-80732333D01*
X141184285Y-80779952D01*
X141231904Y-80827571D01*
X141279523Y-80922809D01*
X141279523Y-81160904D01*
X141231904Y-81256142D01*
X141184285Y-81303761D01*
X141089047Y-81351380D01*
X140803333Y-81351380D01*
X140708095Y-81303761D01*
X140660476Y-81256142D01*
X141755714Y-81351380D02*
X141946190Y-81351380D01*
X142041428Y-81303761D01*
X142089047Y-81256142D01*
X142184285Y-81113285D01*
X142231904Y-80922809D01*
X142231904Y-80541857D01*
X142184285Y-80446619D01*
X142136666Y-80399000D01*
X142041428Y-80351380D01*
X141850952Y-80351380D01*
X141755714Y-80399000D01*
X141708095Y-80446619D01*
X141660476Y-80541857D01*
X141660476Y-80779952D01*
X141708095Y-80875190D01*
X141755714Y-80922809D01*
X141850952Y-80970428D01*
X142041428Y-80970428D01*
X142136666Y-80922809D01*
X142184285Y-80875190D01*
X142231904Y-80779952D01*
X127627142Y-81351380D02*
X127293809Y-80875190D01*
X127055714Y-81351380D02*
X127055714Y-80351380D01*
X127436666Y-80351380D01*
X127531904Y-80399000D01*
X127579523Y-80446619D01*
X127627142Y-80541857D01*
X127627142Y-80684714D01*
X127579523Y-80779952D01*
X127531904Y-80827571D01*
X127436666Y-80875190D01*
X127055714Y-80875190D01*
X127960476Y-80351380D02*
X128579523Y-80351380D01*
X128246190Y-80732333D01*
X128389047Y-80732333D01*
X128484285Y-80779952D01*
X128531904Y-80827571D01*
X128579523Y-80922809D01*
X128579523Y-81160904D01*
X128531904Y-81256142D01*
X128484285Y-81303761D01*
X128389047Y-81351380D01*
X128103333Y-81351380D01*
X128008095Y-81303761D01*
X127960476Y-81256142D01*
X129150952Y-80779952D02*
X129055714Y-80732333D01*
X129008095Y-80684714D01*
X128960476Y-80589476D01*
X128960476Y-80541857D01*
X129008095Y-80446619D01*
X129055714Y-80399000D01*
X129150952Y-80351380D01*
X129341428Y-80351380D01*
X129436666Y-80399000D01*
X129484285Y-80446619D01*
X129531904Y-80541857D01*
X129531904Y-80589476D01*
X129484285Y-80684714D01*
X129436666Y-80732333D01*
X129341428Y-80779952D01*
X129150952Y-80779952D01*
X129055714Y-80827571D01*
X129008095Y-80875190D01*
X128960476Y-80970428D01*
X128960476Y-81160904D01*
X129008095Y-81256142D01*
X129055714Y-81303761D01*
X129150952Y-81351380D01*
X129341428Y-81351380D01*
X129436666Y-81303761D01*
X129484285Y-81256142D01*
X129531904Y-81160904D01*
X129531904Y-80970428D01*
X129484285Y-80875190D01*
X129436666Y-80827571D01*
X129341428Y-80779952D01*
X114800142Y-81351380D02*
X114466809Y-80875190D01*
X114228714Y-81351380D02*
X114228714Y-80351380D01*
X114609666Y-80351380D01*
X114704904Y-80399000D01*
X114752523Y-80446619D01*
X114800142Y-80541857D01*
X114800142Y-80684714D01*
X114752523Y-80779952D01*
X114704904Y-80827571D01*
X114609666Y-80875190D01*
X114228714Y-80875190D01*
X115133476Y-80351380D02*
X115752523Y-80351380D01*
X115419190Y-80732333D01*
X115562047Y-80732333D01*
X115657285Y-80779952D01*
X115704904Y-80827571D01*
X115752523Y-80922809D01*
X115752523Y-81160904D01*
X115704904Y-81256142D01*
X115657285Y-81303761D01*
X115562047Y-81351380D01*
X115276333Y-81351380D01*
X115181095Y-81303761D01*
X115133476Y-81256142D01*
X116085857Y-80351380D02*
X116752523Y-80351380D01*
X116323952Y-81351380D01*
X102227142Y-81224380D02*
X101893809Y-80748190D01*
X101655714Y-81224380D02*
X101655714Y-80224380D01*
X102036666Y-80224380D01*
X102131904Y-80272000D01*
X102179523Y-80319619D01*
X102227142Y-80414857D01*
X102227142Y-80557714D01*
X102179523Y-80652952D01*
X102131904Y-80700571D01*
X102036666Y-80748190D01*
X101655714Y-80748190D01*
X102560476Y-80224380D02*
X103179523Y-80224380D01*
X102846190Y-80605333D01*
X102989047Y-80605333D01*
X103084285Y-80652952D01*
X103131904Y-80700571D01*
X103179523Y-80795809D01*
X103179523Y-81033904D01*
X103131904Y-81129142D01*
X103084285Y-81176761D01*
X102989047Y-81224380D01*
X102703333Y-81224380D01*
X102608095Y-81176761D01*
X102560476Y-81129142D01*
X104036666Y-80224380D02*
X103846190Y-80224380D01*
X103750952Y-80272000D01*
X103703333Y-80319619D01*
X103608095Y-80462476D01*
X103560476Y-80652952D01*
X103560476Y-81033904D01*
X103608095Y-81129142D01*
X103655714Y-81176761D01*
X103750952Y-81224380D01*
X103941428Y-81224380D01*
X104036666Y-81176761D01*
X104084285Y-81129142D01*
X104131904Y-81033904D01*
X104131904Y-80795809D01*
X104084285Y-80700571D01*
X104036666Y-80652952D01*
X103941428Y-80605333D01*
X103750952Y-80605333D01*
X103655714Y-80652952D01*
X103608095Y-80700571D01*
X103560476Y-80795809D01*
X191269142Y-84375380D02*
X190935809Y-83899190D01*
X190697714Y-84375380D02*
X190697714Y-83375380D01*
X191078666Y-83375380D01*
X191173904Y-83423000D01*
X191221523Y-83470619D01*
X191269142Y-83565857D01*
X191269142Y-83708714D01*
X191221523Y-83803952D01*
X191173904Y-83851571D01*
X191078666Y-83899190D01*
X190697714Y-83899190D01*
X191602476Y-83375380D02*
X192221523Y-83375380D01*
X191888190Y-83756333D01*
X192031047Y-83756333D01*
X192126285Y-83803952D01*
X192173904Y-83851571D01*
X192221523Y-83946809D01*
X192221523Y-84184904D01*
X192173904Y-84280142D01*
X192126285Y-84327761D01*
X192031047Y-84375380D01*
X191745333Y-84375380D01*
X191650095Y-84327761D01*
X191602476Y-84280142D01*
X193126285Y-83375380D02*
X192650095Y-83375380D01*
X192602476Y-83851571D01*
X192650095Y-83803952D01*
X192745333Y-83756333D01*
X192983428Y-83756333D01*
X193078666Y-83803952D01*
X193126285Y-83851571D01*
X193173904Y-83946809D01*
X193173904Y-84184904D01*
X193126285Y-84280142D01*
X193078666Y-84327761D01*
X192983428Y-84375380D01*
X192745333Y-84375380D01*
X192650095Y-84327761D01*
X192602476Y-84280142D01*
X178461142Y-84502380D02*
X178127809Y-84026190D01*
X177889714Y-84502380D02*
X177889714Y-83502380D01*
X178270666Y-83502380D01*
X178365904Y-83550000D01*
X178413523Y-83597619D01*
X178461142Y-83692857D01*
X178461142Y-83835714D01*
X178413523Y-83930952D01*
X178365904Y-83978571D01*
X178270666Y-84026190D01*
X177889714Y-84026190D01*
X178794476Y-83502380D02*
X179413523Y-83502380D01*
X179080190Y-83883333D01*
X179223047Y-83883333D01*
X179318285Y-83930952D01*
X179365904Y-83978571D01*
X179413523Y-84073809D01*
X179413523Y-84311904D01*
X179365904Y-84407142D01*
X179318285Y-84454761D01*
X179223047Y-84502380D01*
X178937333Y-84502380D01*
X178842095Y-84454761D01*
X178794476Y-84407142D01*
X180270666Y-83835714D02*
X180270666Y-84502380D01*
X180032571Y-83454761D02*
X179794476Y-84169047D01*
X180413523Y-84169047D01*
X165634142Y-84375380D02*
X165300809Y-83899190D01*
X165062714Y-84375380D02*
X165062714Y-83375380D01*
X165443666Y-83375380D01*
X165538904Y-83423000D01*
X165586523Y-83470619D01*
X165634142Y-83565857D01*
X165634142Y-83708714D01*
X165586523Y-83803952D01*
X165538904Y-83851571D01*
X165443666Y-83899190D01*
X165062714Y-83899190D01*
X165967476Y-83375380D02*
X166586523Y-83375380D01*
X166253190Y-83756333D01*
X166396047Y-83756333D01*
X166491285Y-83803952D01*
X166538904Y-83851571D01*
X166586523Y-83946809D01*
X166586523Y-84184904D01*
X166538904Y-84280142D01*
X166491285Y-84327761D01*
X166396047Y-84375380D01*
X166110333Y-84375380D01*
X166015095Y-84327761D01*
X165967476Y-84280142D01*
X166919857Y-83375380D02*
X167538904Y-83375380D01*
X167205571Y-83756333D01*
X167348428Y-83756333D01*
X167443666Y-83803952D01*
X167491285Y-83851571D01*
X167538904Y-83946809D01*
X167538904Y-84184904D01*
X167491285Y-84280142D01*
X167443666Y-84327761D01*
X167348428Y-84375380D01*
X167062714Y-84375380D01*
X166967476Y-84327761D01*
X166919857Y-84280142D01*
X152921142Y-84375380D02*
X152587809Y-83899190D01*
X152349714Y-84375380D02*
X152349714Y-83375380D01*
X152730666Y-83375380D01*
X152825904Y-83423000D01*
X152873523Y-83470619D01*
X152921142Y-83565857D01*
X152921142Y-83708714D01*
X152873523Y-83803952D01*
X152825904Y-83851571D01*
X152730666Y-83899190D01*
X152349714Y-83899190D01*
X153254476Y-83375380D02*
X153873523Y-83375380D01*
X153540190Y-83756333D01*
X153683047Y-83756333D01*
X153778285Y-83803952D01*
X153825904Y-83851571D01*
X153873523Y-83946809D01*
X153873523Y-84184904D01*
X153825904Y-84280142D01*
X153778285Y-84327761D01*
X153683047Y-84375380D01*
X153397333Y-84375380D01*
X153302095Y-84327761D01*
X153254476Y-84280142D01*
X154254476Y-83470619D02*
X154302095Y-83423000D01*
X154397333Y-83375380D01*
X154635428Y-83375380D01*
X154730666Y-83423000D01*
X154778285Y-83470619D01*
X154825904Y-83565857D01*
X154825904Y-83661095D01*
X154778285Y-83803952D01*
X154206857Y-84375380D01*
X154825904Y-84375380D01*
X140361142Y-84375380D02*
X140027809Y-83899190D01*
X139789714Y-84375380D02*
X139789714Y-83375380D01*
X140170666Y-83375380D01*
X140265904Y-83423000D01*
X140313523Y-83470619D01*
X140361142Y-83565857D01*
X140361142Y-83708714D01*
X140313523Y-83803952D01*
X140265904Y-83851571D01*
X140170666Y-83899190D01*
X139789714Y-83899190D01*
X140694476Y-83375380D02*
X141313523Y-83375380D01*
X140980190Y-83756333D01*
X141123047Y-83756333D01*
X141218285Y-83803952D01*
X141265904Y-83851571D01*
X141313523Y-83946809D01*
X141313523Y-84184904D01*
X141265904Y-84280142D01*
X141218285Y-84327761D01*
X141123047Y-84375380D01*
X140837333Y-84375380D01*
X140742095Y-84327761D01*
X140694476Y-84280142D01*
X142265904Y-84375380D02*
X141694476Y-84375380D01*
X141980190Y-84375380D02*
X141980190Y-83375380D01*
X141884952Y-83518238D01*
X141789714Y-83613476D01*
X141694476Y-83661095D01*
X127641142Y-84375380D02*
X127307809Y-83899190D01*
X127069714Y-84375380D02*
X127069714Y-83375380D01*
X127450666Y-83375380D01*
X127545904Y-83423000D01*
X127593523Y-83470619D01*
X127641142Y-83565857D01*
X127641142Y-83708714D01*
X127593523Y-83803952D01*
X127545904Y-83851571D01*
X127450666Y-83899190D01*
X127069714Y-83899190D01*
X127974476Y-83375380D02*
X128593523Y-83375380D01*
X128260190Y-83756333D01*
X128403047Y-83756333D01*
X128498285Y-83803952D01*
X128545904Y-83851571D01*
X128593523Y-83946809D01*
X128593523Y-84184904D01*
X128545904Y-84280142D01*
X128498285Y-84327761D01*
X128403047Y-84375380D01*
X128117333Y-84375380D01*
X128022095Y-84327761D01*
X127974476Y-84280142D01*
X129212571Y-83375380D02*
X129307809Y-83375380D01*
X129403047Y-83423000D01*
X129450666Y-83470619D01*
X129498285Y-83565857D01*
X129545904Y-83756333D01*
X129545904Y-83994428D01*
X129498285Y-84184904D01*
X129450666Y-84280142D01*
X129403047Y-84327761D01*
X129307809Y-84375380D01*
X129212571Y-84375380D01*
X129117333Y-84327761D01*
X129069714Y-84280142D01*
X129022095Y-84184904D01*
X128974476Y-83994428D01*
X128974476Y-83756333D01*
X129022095Y-83565857D01*
X129069714Y-83470619D01*
X129117333Y-83423000D01*
X129212571Y-83375380D01*
X114924142Y-84248380D02*
X114590809Y-83772190D01*
X114352714Y-84248380D02*
X114352714Y-83248380D01*
X114733666Y-83248380D01*
X114828904Y-83296000D01*
X114876523Y-83343619D01*
X114924142Y-83438857D01*
X114924142Y-83581714D01*
X114876523Y-83676952D01*
X114828904Y-83724571D01*
X114733666Y-83772190D01*
X114352714Y-83772190D01*
X115305095Y-83343619D02*
X115352714Y-83296000D01*
X115447952Y-83248380D01*
X115686047Y-83248380D01*
X115781285Y-83296000D01*
X115828904Y-83343619D01*
X115876523Y-83438857D01*
X115876523Y-83534095D01*
X115828904Y-83676952D01*
X115257476Y-84248380D01*
X115876523Y-84248380D01*
X116352714Y-84248380D02*
X116543190Y-84248380D01*
X116638428Y-84200761D01*
X116686047Y-84153142D01*
X116781285Y-84010285D01*
X116828904Y-83819809D01*
X116828904Y-83438857D01*
X116781285Y-83343619D01*
X116733666Y-83296000D01*
X116638428Y-83248380D01*
X116447952Y-83248380D01*
X116352714Y-83296000D01*
X116305095Y-83343619D01*
X116257476Y-83438857D01*
X116257476Y-83676952D01*
X116305095Y-83772190D01*
X116352714Y-83819809D01*
X116447952Y-83867428D01*
X116638428Y-83867428D01*
X116733666Y-83819809D01*
X116781285Y-83772190D01*
X116828904Y-83676952D01*
X102268142Y-84248380D02*
X101934809Y-83772190D01*
X101696714Y-84248380D02*
X101696714Y-83248380D01*
X102077666Y-83248380D01*
X102172904Y-83296000D01*
X102220523Y-83343619D01*
X102268142Y-83438857D01*
X102268142Y-83581714D01*
X102220523Y-83676952D01*
X102172904Y-83724571D01*
X102077666Y-83772190D01*
X101696714Y-83772190D01*
X102649095Y-83343619D02*
X102696714Y-83296000D01*
X102791952Y-83248380D01*
X103030047Y-83248380D01*
X103125285Y-83296000D01*
X103172904Y-83343619D01*
X103220523Y-83438857D01*
X103220523Y-83534095D01*
X103172904Y-83676952D01*
X102601476Y-84248380D01*
X103220523Y-84248380D01*
X103791952Y-83676952D02*
X103696714Y-83629333D01*
X103649095Y-83581714D01*
X103601476Y-83486476D01*
X103601476Y-83438857D01*
X103649095Y-83343619D01*
X103696714Y-83296000D01*
X103791952Y-83248380D01*
X103982428Y-83248380D01*
X104077666Y-83296000D01*
X104125285Y-83343619D01*
X104172904Y-83438857D01*
X104172904Y-83486476D01*
X104125285Y-83581714D01*
X104077666Y-83629333D01*
X103982428Y-83676952D01*
X103791952Y-83676952D01*
X103696714Y-83724571D01*
X103649095Y-83772190D01*
X103601476Y-83867428D01*
X103601476Y-84057904D01*
X103649095Y-84153142D01*
X103696714Y-84200761D01*
X103791952Y-84248380D01*
X103982428Y-84248380D01*
X104077666Y-84200761D01*
X104125285Y-84153142D01*
X104172904Y-84057904D01*
X104172904Y-83867428D01*
X104125285Y-83772190D01*
X104077666Y-83724571D01*
X103982428Y-83676952D01*
X142105142Y-55824380D02*
X141771809Y-55348190D01*
X141533714Y-55824380D02*
X141533714Y-54824380D01*
X141914666Y-54824380D01*
X142009904Y-54872000D01*
X142057523Y-54919619D01*
X142105142Y-55014857D01*
X142105142Y-55157714D01*
X142057523Y-55252952D01*
X142009904Y-55300571D01*
X141914666Y-55348190D01*
X141533714Y-55348190D01*
X142486095Y-54919619D02*
X142533714Y-54872000D01*
X142628952Y-54824380D01*
X142867047Y-54824380D01*
X142962285Y-54872000D01*
X143009904Y-54919619D01*
X143057523Y-55014857D01*
X143057523Y-55110095D01*
X143009904Y-55252952D01*
X142438476Y-55824380D01*
X143057523Y-55824380D01*
X143390857Y-54824380D02*
X144057523Y-54824380D01*
X143628952Y-55824380D01*
X136263142Y-117320380D02*
X135929809Y-116844190D01*
X135691714Y-117320380D02*
X135691714Y-116320380D01*
X136072666Y-116320380D01*
X136167904Y-116368000D01*
X136215523Y-116415619D01*
X136263142Y-116510857D01*
X136263142Y-116653714D01*
X136215523Y-116748952D01*
X136167904Y-116796571D01*
X136072666Y-116844190D01*
X135691714Y-116844190D01*
X136644095Y-116415619D02*
X136691714Y-116368000D01*
X136786952Y-116320380D01*
X137025047Y-116320380D01*
X137120285Y-116368000D01*
X137167904Y-116415619D01*
X137215523Y-116510857D01*
X137215523Y-116606095D01*
X137167904Y-116748952D01*
X136596476Y-117320380D01*
X137215523Y-117320380D01*
X138072666Y-116320380D02*
X137882190Y-116320380D01*
X137786952Y-116368000D01*
X137739333Y-116415619D01*
X137644095Y-116558476D01*
X137596476Y-116748952D01*
X137596476Y-117129904D01*
X137644095Y-117225142D01*
X137691714Y-117272761D01*
X137786952Y-117320380D01*
X137977428Y-117320380D01*
X138072666Y-117272761D01*
X138120285Y-117225142D01*
X138167904Y-117129904D01*
X138167904Y-116891809D01*
X138120285Y-116796571D01*
X138072666Y-116748952D01*
X137977428Y-116701333D01*
X137786952Y-116701333D01*
X137691714Y-116748952D01*
X137644095Y-116796571D01*
X137596476Y-116891809D01*
X136723380Y-115318857D02*
X136247190Y-115652190D01*
X136723380Y-115890285D02*
X135723380Y-115890285D01*
X135723380Y-115509333D01*
X135771000Y-115414095D01*
X135818619Y-115366476D01*
X135913857Y-115318857D01*
X136056714Y-115318857D01*
X136151952Y-115366476D01*
X136199571Y-115414095D01*
X136247190Y-115509333D01*
X136247190Y-115890285D01*
X135818619Y-114937904D02*
X135771000Y-114890285D01*
X135723380Y-114795047D01*
X135723380Y-114556952D01*
X135771000Y-114461714D01*
X135818619Y-114414095D01*
X135913857Y-114366476D01*
X136009095Y-114366476D01*
X136151952Y-114414095D01*
X136723380Y-114985523D01*
X136723380Y-114366476D01*
X135723380Y-113461714D02*
X135723380Y-113937904D01*
X136199571Y-113985523D01*
X136151952Y-113937904D01*
X136104333Y-113842666D01*
X136104333Y-113604571D01*
X136151952Y-113509333D01*
X136199571Y-113461714D01*
X136294809Y-113414095D01*
X136532904Y-113414095D01*
X136628142Y-113461714D01*
X136675761Y-113509333D01*
X136723380Y-113604571D01*
X136723380Y-113842666D01*
X136675761Y-113937904D01*
X136628142Y-113985523D01*
X160931542Y-106901380D02*
X160598209Y-106425190D01*
X160360114Y-106901380D02*
X160360114Y-105901380D01*
X160741066Y-105901380D01*
X160836304Y-105949000D01*
X160883923Y-105996619D01*
X160931542Y-106091857D01*
X160931542Y-106234714D01*
X160883923Y-106329952D01*
X160836304Y-106377571D01*
X160741066Y-106425190D01*
X160360114Y-106425190D01*
X161312495Y-105996619D02*
X161360114Y-105949000D01*
X161455352Y-105901380D01*
X161693447Y-105901380D01*
X161788685Y-105949000D01*
X161836304Y-105996619D01*
X161883923Y-106091857D01*
X161883923Y-106187095D01*
X161836304Y-106329952D01*
X161264876Y-106901380D01*
X161883923Y-106901380D01*
X162741066Y-106234714D02*
X162741066Y-106901380D01*
X162502971Y-105853761D02*
X162264876Y-106568047D01*
X162883923Y-106568047D01*
X160931542Y-119347380D02*
X160598209Y-118871190D01*
X160360114Y-119347380D02*
X160360114Y-118347380D01*
X160741066Y-118347380D01*
X160836304Y-118395000D01*
X160883923Y-118442619D01*
X160931542Y-118537857D01*
X160931542Y-118680714D01*
X160883923Y-118775952D01*
X160836304Y-118823571D01*
X160741066Y-118871190D01*
X160360114Y-118871190D01*
X161312495Y-118442619D02*
X161360114Y-118395000D01*
X161455352Y-118347380D01*
X161693447Y-118347380D01*
X161788685Y-118395000D01*
X161836304Y-118442619D01*
X161883923Y-118537857D01*
X161883923Y-118633095D01*
X161836304Y-118775952D01*
X161264876Y-119347380D01*
X161883923Y-119347380D01*
X162217257Y-118347380D02*
X162836304Y-118347380D01*
X162502971Y-118728333D01*
X162645828Y-118728333D01*
X162741066Y-118775952D01*
X162788685Y-118823571D01*
X162836304Y-118918809D01*
X162836304Y-119156904D01*
X162788685Y-119252142D01*
X162741066Y-119299761D01*
X162645828Y-119347380D01*
X162360114Y-119347380D01*
X162264876Y-119299761D01*
X162217257Y-119252142D01*
X145945542Y-119390380D02*
X145612209Y-118914190D01*
X145374114Y-119390380D02*
X145374114Y-118390380D01*
X145755066Y-118390380D01*
X145850304Y-118438000D01*
X145897923Y-118485619D01*
X145945542Y-118580857D01*
X145945542Y-118723714D01*
X145897923Y-118818952D01*
X145850304Y-118866571D01*
X145755066Y-118914190D01*
X145374114Y-118914190D01*
X146326495Y-118485619D02*
X146374114Y-118438000D01*
X146469352Y-118390380D01*
X146707447Y-118390380D01*
X146802685Y-118438000D01*
X146850304Y-118485619D01*
X146897923Y-118580857D01*
X146897923Y-118676095D01*
X146850304Y-118818952D01*
X146278876Y-119390380D01*
X146897923Y-119390380D01*
X147278876Y-118485619D02*
X147326495Y-118438000D01*
X147421733Y-118390380D01*
X147659828Y-118390380D01*
X147755066Y-118438000D01*
X147802685Y-118485619D01*
X147850304Y-118580857D01*
X147850304Y-118676095D01*
X147802685Y-118818952D01*
X147231257Y-119390380D01*
X147850304Y-119390380D01*
X145945542Y-106944380D02*
X145612209Y-106468190D01*
X145374114Y-106944380D02*
X145374114Y-105944380D01*
X145755066Y-105944380D01*
X145850304Y-105992000D01*
X145897923Y-106039619D01*
X145945542Y-106134857D01*
X145945542Y-106277714D01*
X145897923Y-106372952D01*
X145850304Y-106420571D01*
X145755066Y-106468190D01*
X145374114Y-106468190D01*
X146326495Y-106039619D02*
X146374114Y-105992000D01*
X146469352Y-105944380D01*
X146707447Y-105944380D01*
X146802685Y-105992000D01*
X146850304Y-106039619D01*
X146897923Y-106134857D01*
X146897923Y-106230095D01*
X146850304Y-106372952D01*
X146278876Y-106944380D01*
X146897923Y-106944380D01*
X147850304Y-106944380D02*
X147278876Y-106944380D01*
X147564590Y-106944380D02*
X147564590Y-105944380D01*
X147469352Y-106087238D01*
X147374114Y-106182476D01*
X147278876Y-106230095D01*
X161932780Y-113018857D02*
X161456590Y-113352190D01*
X161932780Y-113590285D02*
X160932780Y-113590285D01*
X160932780Y-113209333D01*
X160980400Y-113114095D01*
X161028019Y-113066476D01*
X161123257Y-113018857D01*
X161266114Y-113018857D01*
X161361352Y-113066476D01*
X161408971Y-113114095D01*
X161456590Y-113209333D01*
X161456590Y-113590285D01*
X161028019Y-112637904D02*
X160980400Y-112590285D01*
X160932780Y-112495047D01*
X160932780Y-112256952D01*
X160980400Y-112161714D01*
X161028019Y-112114095D01*
X161123257Y-112066476D01*
X161218495Y-112066476D01*
X161361352Y-112114095D01*
X161932780Y-112685523D01*
X161932780Y-112066476D01*
X160932780Y-111447428D02*
X160932780Y-111352190D01*
X160980400Y-111256952D01*
X161028019Y-111209333D01*
X161123257Y-111161714D01*
X161313733Y-111114095D01*
X161551828Y-111114095D01*
X161742304Y-111161714D01*
X161837542Y-111209333D01*
X161885161Y-111256952D01*
X161932780Y-111352190D01*
X161932780Y-111447428D01*
X161885161Y-111542666D01*
X161837542Y-111590285D01*
X161742304Y-111637904D01*
X161551828Y-111685523D01*
X161313733Y-111685523D01*
X161123257Y-111637904D01*
X161028019Y-111590285D01*
X160980400Y-111542666D01*
X160932780Y-111447428D01*
X161866780Y-117336857D02*
X161390590Y-117670190D01*
X161866780Y-117908285D02*
X160866780Y-117908285D01*
X160866780Y-117527333D01*
X160914400Y-117432095D01*
X160962019Y-117384476D01*
X161057257Y-117336857D01*
X161200114Y-117336857D01*
X161295352Y-117384476D01*
X161342971Y-117432095D01*
X161390590Y-117527333D01*
X161390590Y-117908285D01*
X161866780Y-116384476D02*
X161866780Y-116955904D01*
X161866780Y-116670190D02*
X160866780Y-116670190D01*
X161009638Y-116765428D01*
X161104876Y-116860666D01*
X161152495Y-116955904D01*
X161866780Y-115908285D02*
X161866780Y-115717809D01*
X161819161Y-115622571D01*
X161771542Y-115574952D01*
X161628685Y-115479714D01*
X161438209Y-115432095D01*
X161057257Y-115432095D01*
X160962019Y-115479714D01*
X160914400Y-115527333D01*
X160866780Y-115622571D01*
X160866780Y-115813047D01*
X160914400Y-115908285D01*
X160962019Y-115955904D01*
X161057257Y-116003523D01*
X161295352Y-116003523D01*
X161390590Y-115955904D01*
X161438209Y-115908285D01*
X161485828Y-115813047D01*
X161485828Y-115622571D01*
X161438209Y-115527333D01*
X161390590Y-115479714D01*
X161295352Y-115432095D01*
X144340780Y-117336857D02*
X143864590Y-117670190D01*
X144340780Y-117908285D02*
X143340780Y-117908285D01*
X143340780Y-117527333D01*
X143388400Y-117432095D01*
X143436019Y-117384476D01*
X143531257Y-117336857D01*
X143674114Y-117336857D01*
X143769352Y-117384476D01*
X143816971Y-117432095D01*
X143864590Y-117527333D01*
X143864590Y-117908285D01*
X144340780Y-116384476D02*
X144340780Y-116955904D01*
X144340780Y-116670190D02*
X143340780Y-116670190D01*
X143483638Y-116765428D01*
X143578876Y-116860666D01*
X143626495Y-116955904D01*
X143769352Y-115813047D02*
X143721733Y-115908285D01*
X143674114Y-115955904D01*
X143578876Y-116003523D01*
X143531257Y-116003523D01*
X143436019Y-115955904D01*
X143388400Y-115908285D01*
X143340780Y-115813047D01*
X143340780Y-115622571D01*
X143388400Y-115527333D01*
X143436019Y-115479714D01*
X143531257Y-115432095D01*
X143578876Y-115432095D01*
X143674114Y-115479714D01*
X143721733Y-115527333D01*
X143769352Y-115622571D01*
X143769352Y-115813047D01*
X143816971Y-115908285D01*
X143864590Y-115955904D01*
X143959828Y-116003523D01*
X144150304Y-116003523D01*
X144245542Y-115955904D01*
X144293161Y-115908285D01*
X144340780Y-115813047D01*
X144340780Y-115622571D01*
X144293161Y-115527333D01*
X144245542Y-115479714D01*
X144150304Y-115432095D01*
X143959828Y-115432095D01*
X143864590Y-115479714D01*
X143816971Y-115527333D01*
X143769352Y-115622571D01*
X144406780Y-113018857D02*
X143930590Y-113352190D01*
X144406780Y-113590285D02*
X143406780Y-113590285D01*
X143406780Y-113209333D01*
X143454400Y-113114095D01*
X143502019Y-113066476D01*
X143597257Y-113018857D01*
X143740114Y-113018857D01*
X143835352Y-113066476D01*
X143882971Y-113114095D01*
X143930590Y-113209333D01*
X143930590Y-113590285D01*
X144406780Y-112066476D02*
X144406780Y-112637904D01*
X144406780Y-112352190D02*
X143406780Y-112352190D01*
X143549638Y-112447428D01*
X143644876Y-112542666D01*
X143692495Y-112637904D01*
X143406780Y-111733142D02*
X143406780Y-111066476D01*
X144406780Y-111495047D01*
X164533780Y-113018857D02*
X164057590Y-113352190D01*
X164533780Y-113590285D02*
X163533780Y-113590285D01*
X163533780Y-113209333D01*
X163581400Y-113114095D01*
X163629019Y-113066476D01*
X163724257Y-113018857D01*
X163867114Y-113018857D01*
X163962352Y-113066476D01*
X164009971Y-113114095D01*
X164057590Y-113209333D01*
X164057590Y-113590285D01*
X164533780Y-112066476D02*
X164533780Y-112637904D01*
X164533780Y-112352190D02*
X163533780Y-112352190D01*
X163676638Y-112447428D01*
X163771876Y-112542666D01*
X163819495Y-112637904D01*
X163533780Y-111209333D02*
X163533780Y-111399809D01*
X163581400Y-111495047D01*
X163629019Y-111542666D01*
X163771876Y-111637904D01*
X163962352Y-111685523D01*
X164343304Y-111685523D01*
X164438542Y-111637904D01*
X164486161Y-111590285D01*
X164533780Y-111495047D01*
X164533780Y-111304571D01*
X164486161Y-111209333D01*
X164438542Y-111161714D01*
X164343304Y-111114095D01*
X164105209Y-111114095D01*
X164009971Y-111161714D01*
X163962352Y-111209333D01*
X163914733Y-111304571D01*
X163914733Y-111495047D01*
X163962352Y-111590285D01*
X164009971Y-111637904D01*
X164105209Y-111685523D01*
X164663380Y-117336857D02*
X164187190Y-117670190D01*
X164663380Y-117908285D02*
X163663380Y-117908285D01*
X163663380Y-117527333D01*
X163711000Y-117432095D01*
X163758619Y-117384476D01*
X163853857Y-117336857D01*
X163996714Y-117336857D01*
X164091952Y-117384476D01*
X164139571Y-117432095D01*
X164187190Y-117527333D01*
X164187190Y-117908285D01*
X164663380Y-116384476D02*
X164663380Y-116955904D01*
X164663380Y-116670190D02*
X163663380Y-116670190D01*
X163806238Y-116765428D01*
X163901476Y-116860666D01*
X163949095Y-116955904D01*
X163663380Y-115479714D02*
X163663380Y-115955904D01*
X164139571Y-116003523D01*
X164091952Y-115955904D01*
X164044333Y-115860666D01*
X164044333Y-115622571D01*
X164091952Y-115527333D01*
X164139571Y-115479714D01*
X164234809Y-115432095D01*
X164472904Y-115432095D01*
X164568142Y-115479714D01*
X164615761Y-115527333D01*
X164663380Y-115622571D01*
X164663380Y-115860666D01*
X164615761Y-115955904D01*
X164568142Y-116003523D01*
X141676380Y-117336857D02*
X141200190Y-117670190D01*
X141676380Y-117908285D02*
X140676380Y-117908285D01*
X140676380Y-117527333D01*
X140724000Y-117432095D01*
X140771619Y-117384476D01*
X140866857Y-117336857D01*
X141009714Y-117336857D01*
X141104952Y-117384476D01*
X141152571Y-117432095D01*
X141200190Y-117527333D01*
X141200190Y-117908285D01*
X141676380Y-116384476D02*
X141676380Y-116955904D01*
X141676380Y-116670190D02*
X140676380Y-116670190D01*
X140819238Y-116765428D01*
X140914476Y-116860666D01*
X140962095Y-116955904D01*
X141009714Y-115527333D02*
X141676380Y-115527333D01*
X140628761Y-115765428D02*
X141343047Y-116003523D01*
X141343047Y-115384476D01*
X141546780Y-113018857D02*
X141070590Y-113352190D01*
X141546780Y-113590285D02*
X140546780Y-113590285D01*
X140546780Y-113209333D01*
X140594400Y-113114095D01*
X140642019Y-113066476D01*
X140737257Y-113018857D01*
X140880114Y-113018857D01*
X140975352Y-113066476D01*
X141022971Y-113114095D01*
X141070590Y-113209333D01*
X141070590Y-113590285D01*
X141546780Y-112066476D02*
X141546780Y-112637904D01*
X141546780Y-112352190D02*
X140546780Y-112352190D01*
X140689638Y-112447428D01*
X140784876Y-112542666D01*
X140832495Y-112637904D01*
X140546780Y-111733142D02*
X140546780Y-111114095D01*
X140927733Y-111447428D01*
X140927733Y-111304571D01*
X140975352Y-111209333D01*
X141022971Y-111161714D01*
X141118209Y-111114095D01*
X141356304Y-111114095D01*
X141451542Y-111161714D01*
X141499161Y-111209333D01*
X141546780Y-111304571D01*
X141546780Y-111590285D01*
X141499161Y-111685523D01*
X141451542Y-111733142D01*
X122806142Y-106901380D02*
X122472809Y-106425190D01*
X122234714Y-106901380D02*
X122234714Y-105901380D01*
X122615666Y-105901380D01*
X122710904Y-105949000D01*
X122758523Y-105996619D01*
X122806142Y-106091857D01*
X122806142Y-106234714D01*
X122758523Y-106329952D01*
X122710904Y-106377571D01*
X122615666Y-106425190D01*
X122234714Y-106425190D01*
X123758523Y-106901380D02*
X123187095Y-106901380D01*
X123472809Y-106901380D02*
X123472809Y-105901380D01*
X123377571Y-106044238D01*
X123282333Y-106139476D01*
X123187095Y-106187095D01*
X124139476Y-105996619D02*
X124187095Y-105949000D01*
X124282333Y-105901380D01*
X124520428Y-105901380D01*
X124615666Y-105949000D01*
X124663285Y-105996619D01*
X124710904Y-106091857D01*
X124710904Y-106187095D01*
X124663285Y-106329952D01*
X124091857Y-106901380D01*
X124710904Y-106901380D01*
X122806142Y-119347380D02*
X122472809Y-118871190D01*
X122234714Y-119347380D02*
X122234714Y-118347380D01*
X122615666Y-118347380D01*
X122710904Y-118395000D01*
X122758523Y-118442619D01*
X122806142Y-118537857D01*
X122806142Y-118680714D01*
X122758523Y-118775952D01*
X122710904Y-118823571D01*
X122615666Y-118871190D01*
X122234714Y-118871190D01*
X123758523Y-119347380D02*
X123187095Y-119347380D01*
X123472809Y-119347380D02*
X123472809Y-118347380D01*
X123377571Y-118490238D01*
X123282333Y-118585476D01*
X123187095Y-118633095D01*
X124710904Y-119347380D02*
X124139476Y-119347380D01*
X124425190Y-119347380D02*
X124425190Y-118347380D01*
X124329952Y-118490238D01*
X124234714Y-118585476D01*
X124139476Y-118633095D01*
X107820142Y-119390380D02*
X107486809Y-118914190D01*
X107248714Y-119390380D02*
X107248714Y-118390380D01*
X107629666Y-118390380D01*
X107724904Y-118438000D01*
X107772523Y-118485619D01*
X107820142Y-118580857D01*
X107820142Y-118723714D01*
X107772523Y-118818952D01*
X107724904Y-118866571D01*
X107629666Y-118914190D01*
X107248714Y-118914190D01*
X108772523Y-119390380D02*
X108201095Y-119390380D01*
X108486809Y-119390380D02*
X108486809Y-118390380D01*
X108391571Y-118533238D01*
X108296333Y-118628476D01*
X108201095Y-118676095D01*
X109391571Y-118390380D02*
X109486809Y-118390380D01*
X109582047Y-118438000D01*
X109629666Y-118485619D01*
X109677285Y-118580857D01*
X109724904Y-118771333D01*
X109724904Y-119009428D01*
X109677285Y-119199904D01*
X109629666Y-119295142D01*
X109582047Y-119342761D01*
X109486809Y-119390380D01*
X109391571Y-119390380D01*
X109296333Y-119342761D01*
X109248714Y-119295142D01*
X109201095Y-119199904D01*
X109153476Y-119009428D01*
X109153476Y-118771333D01*
X109201095Y-118580857D01*
X109248714Y-118485619D01*
X109296333Y-118438000D01*
X109391571Y-118390380D01*
X108296333Y-106944380D02*
X107963000Y-106468190D01*
X107724904Y-106944380D02*
X107724904Y-105944380D01*
X108105857Y-105944380D01*
X108201095Y-105992000D01*
X108248714Y-106039619D01*
X108296333Y-106134857D01*
X108296333Y-106277714D01*
X108248714Y-106372952D01*
X108201095Y-106420571D01*
X108105857Y-106468190D01*
X107724904Y-106468190D01*
X108772523Y-106944380D02*
X108963000Y-106944380D01*
X109058238Y-106896761D01*
X109105857Y-106849142D01*
X109201095Y-106706285D01*
X109248714Y-106515809D01*
X109248714Y-106134857D01*
X109201095Y-106039619D01*
X109153476Y-105992000D01*
X109058238Y-105944380D01*
X108867761Y-105944380D01*
X108772523Y-105992000D01*
X108724904Y-106039619D01*
X108677285Y-106134857D01*
X108677285Y-106372952D01*
X108724904Y-106468190D01*
X108772523Y-106515809D01*
X108867761Y-106563428D01*
X109058238Y-106563428D01*
X109153476Y-106515809D01*
X109201095Y-106468190D01*
X109248714Y-106372952D01*
X123807380Y-112542666D02*
X123331190Y-112876000D01*
X123807380Y-113114095D02*
X122807380Y-113114095D01*
X122807380Y-112733142D01*
X122855000Y-112637904D01*
X122902619Y-112590285D01*
X122997857Y-112542666D01*
X123140714Y-112542666D01*
X123235952Y-112590285D01*
X123283571Y-112637904D01*
X123331190Y-112733142D01*
X123331190Y-113114095D01*
X123235952Y-111971238D02*
X123188333Y-112066476D01*
X123140714Y-112114095D01*
X123045476Y-112161714D01*
X122997857Y-112161714D01*
X122902619Y-112114095D01*
X122855000Y-112066476D01*
X122807380Y-111971238D01*
X122807380Y-111780761D01*
X122855000Y-111685523D01*
X122902619Y-111637904D01*
X122997857Y-111590285D01*
X123045476Y-111590285D01*
X123140714Y-111637904D01*
X123188333Y-111685523D01*
X123235952Y-111780761D01*
X123235952Y-111971238D01*
X123283571Y-112066476D01*
X123331190Y-112114095D01*
X123426428Y-112161714D01*
X123616904Y-112161714D01*
X123712142Y-112114095D01*
X123759761Y-112066476D01*
X123807380Y-111971238D01*
X123807380Y-111780761D01*
X123759761Y-111685523D01*
X123712142Y-111637904D01*
X123616904Y-111590285D01*
X123426428Y-111590285D01*
X123331190Y-111637904D01*
X123283571Y-111685523D01*
X123235952Y-111780761D01*
X123741380Y-116860666D02*
X123265190Y-117194000D01*
X123741380Y-117432095D02*
X122741380Y-117432095D01*
X122741380Y-117051142D01*
X122789000Y-116955904D01*
X122836619Y-116908285D01*
X122931857Y-116860666D01*
X123074714Y-116860666D01*
X123169952Y-116908285D01*
X123217571Y-116955904D01*
X123265190Y-117051142D01*
X123265190Y-117432095D01*
X122741380Y-116527333D02*
X122741380Y-115860666D01*
X123741380Y-116289238D01*
X106215380Y-116860666D02*
X105739190Y-117194000D01*
X106215380Y-117432095D02*
X105215380Y-117432095D01*
X105215380Y-117051142D01*
X105263000Y-116955904D01*
X105310619Y-116908285D01*
X105405857Y-116860666D01*
X105548714Y-116860666D01*
X105643952Y-116908285D01*
X105691571Y-116955904D01*
X105739190Y-117051142D01*
X105739190Y-117432095D01*
X105215380Y-116003523D02*
X105215380Y-116194000D01*
X105263000Y-116289238D01*
X105310619Y-116336857D01*
X105453476Y-116432095D01*
X105643952Y-116479714D01*
X106024904Y-116479714D01*
X106120142Y-116432095D01*
X106167761Y-116384476D01*
X106215380Y-116289238D01*
X106215380Y-116098761D01*
X106167761Y-116003523D01*
X106120142Y-115955904D01*
X106024904Y-115908285D01*
X105786809Y-115908285D01*
X105691571Y-115955904D01*
X105643952Y-116003523D01*
X105596333Y-116098761D01*
X105596333Y-116289238D01*
X105643952Y-116384476D01*
X105691571Y-116432095D01*
X105786809Y-116479714D01*
X106281380Y-112542666D02*
X105805190Y-112876000D01*
X106281380Y-113114095D02*
X105281380Y-113114095D01*
X105281380Y-112733142D01*
X105329000Y-112637904D01*
X105376619Y-112590285D01*
X105471857Y-112542666D01*
X105614714Y-112542666D01*
X105709952Y-112590285D01*
X105757571Y-112637904D01*
X105805190Y-112733142D01*
X105805190Y-113114095D01*
X105281380Y-111637904D02*
X105281380Y-112114095D01*
X105757571Y-112161714D01*
X105709952Y-112114095D01*
X105662333Y-112018857D01*
X105662333Y-111780761D01*
X105709952Y-111685523D01*
X105757571Y-111637904D01*
X105852809Y-111590285D01*
X106090904Y-111590285D01*
X106186142Y-111637904D01*
X106233761Y-111685523D01*
X106281380Y-111780761D01*
X106281380Y-112018857D01*
X106233761Y-112114095D01*
X106186142Y-112161714D01*
X126408380Y-112542666D02*
X125932190Y-112876000D01*
X126408380Y-113114095D02*
X125408380Y-113114095D01*
X125408380Y-112733142D01*
X125456000Y-112637904D01*
X125503619Y-112590285D01*
X125598857Y-112542666D01*
X125741714Y-112542666D01*
X125836952Y-112590285D01*
X125884571Y-112637904D01*
X125932190Y-112733142D01*
X125932190Y-113114095D01*
X125741714Y-111685523D02*
X126408380Y-111685523D01*
X125360761Y-111923619D02*
X126075047Y-112161714D01*
X126075047Y-111542666D01*
X126563380Y-116860666D02*
X126087190Y-117194000D01*
X126563380Y-117432095D02*
X125563380Y-117432095D01*
X125563380Y-117051142D01*
X125611000Y-116955904D01*
X125658619Y-116908285D01*
X125753857Y-116860666D01*
X125896714Y-116860666D01*
X125991952Y-116908285D01*
X126039571Y-116955904D01*
X126087190Y-117051142D01*
X126087190Y-117432095D01*
X125563380Y-116527333D02*
X125563380Y-115908285D01*
X125944333Y-116241619D01*
X125944333Y-116098761D01*
X125991952Y-116003523D01*
X126039571Y-115955904D01*
X126134809Y-115908285D01*
X126372904Y-115908285D01*
X126468142Y-115955904D01*
X126515761Y-116003523D01*
X126563380Y-116098761D01*
X126563380Y-116384476D01*
X126515761Y-116479714D01*
X126468142Y-116527333D01*
X103449380Y-116860666D02*
X102973190Y-117194000D01*
X103449380Y-117432095D02*
X102449380Y-117432095D01*
X102449380Y-117051142D01*
X102497000Y-116955904D01*
X102544619Y-116908285D01*
X102639857Y-116860666D01*
X102782714Y-116860666D01*
X102877952Y-116908285D01*
X102925571Y-116955904D01*
X102973190Y-117051142D01*
X102973190Y-117432095D01*
X102544619Y-116479714D02*
X102497000Y-116432095D01*
X102449380Y-116336857D01*
X102449380Y-116098761D01*
X102497000Y-116003523D01*
X102544619Y-115955904D01*
X102639857Y-115908285D01*
X102735095Y-115908285D01*
X102877952Y-115955904D01*
X103449380Y-116527333D01*
X103449380Y-115908285D01*
X103421380Y-112542666D02*
X102945190Y-112876000D01*
X103421380Y-113114095D02*
X102421380Y-113114095D01*
X102421380Y-112733142D01*
X102469000Y-112637904D01*
X102516619Y-112590285D01*
X102611857Y-112542666D01*
X102754714Y-112542666D01*
X102849952Y-112590285D01*
X102897571Y-112637904D01*
X102945190Y-112733142D01*
X102945190Y-113114095D01*
X103421380Y-111590285D02*
X103421380Y-112161714D01*
X103421380Y-111876000D02*
X102421380Y-111876000D01*
X102564238Y-111971238D01*
X102659476Y-112066476D01*
X102707095Y-112161714D01*
X196714761Y-82081619D02*
X196619523Y-82034000D01*
X196524285Y-81938761D01*
X196381428Y-81795904D01*
X196286190Y-81748285D01*
X196190952Y-81748285D01*
X196238571Y-81986380D02*
X196143333Y-81938761D01*
X196048095Y-81843523D01*
X196000476Y-81653047D01*
X196000476Y-81319714D01*
X196048095Y-81129238D01*
X196143333Y-81034000D01*
X196238571Y-80986380D01*
X196429047Y-80986380D01*
X196524285Y-81034000D01*
X196619523Y-81129238D01*
X196667142Y-81319714D01*
X196667142Y-81653047D01*
X196619523Y-81843523D01*
X196524285Y-81938761D01*
X196429047Y-81986380D01*
X196238571Y-81986380D01*
X197238571Y-81414952D02*
X197143333Y-81367333D01*
X197095714Y-81319714D01*
X197048095Y-81224476D01*
X197048095Y-81176857D01*
X197095714Y-81081619D01*
X197143333Y-81034000D01*
X197238571Y-80986380D01*
X197429047Y-80986380D01*
X197524285Y-81034000D01*
X197571904Y-81081619D01*
X197619523Y-81176857D01*
X197619523Y-81224476D01*
X197571904Y-81319714D01*
X197524285Y-81367333D01*
X197429047Y-81414952D01*
X197238571Y-81414952D01*
X197143333Y-81462571D01*
X197095714Y-81510190D01*
X197048095Y-81605428D01*
X197048095Y-81795904D01*
X197095714Y-81891142D01*
X197143333Y-81938761D01*
X197238571Y-81986380D01*
X197429047Y-81986380D01*
X197524285Y-81938761D01*
X197571904Y-81891142D01*
X197619523Y-81795904D01*
X197619523Y-81605428D01*
X197571904Y-81510190D01*
X197524285Y-81462571D01*
X197429047Y-81414952D01*
X184014761Y-82208619D02*
X183919523Y-82161000D01*
X183824285Y-82065761D01*
X183681428Y-81922904D01*
X183586190Y-81875285D01*
X183490952Y-81875285D01*
X183538571Y-82113380D02*
X183443333Y-82065761D01*
X183348095Y-81970523D01*
X183300476Y-81780047D01*
X183300476Y-81446714D01*
X183348095Y-81256238D01*
X183443333Y-81161000D01*
X183538571Y-81113380D01*
X183729047Y-81113380D01*
X183824285Y-81161000D01*
X183919523Y-81256238D01*
X183967142Y-81446714D01*
X183967142Y-81780047D01*
X183919523Y-81970523D01*
X183824285Y-82065761D01*
X183729047Y-82113380D01*
X183538571Y-82113380D01*
X184300476Y-81113380D02*
X184967142Y-81113380D01*
X184538571Y-82113380D01*
X171314761Y-82081619D02*
X171219523Y-82034000D01*
X171124285Y-81938761D01*
X170981428Y-81795904D01*
X170886190Y-81748285D01*
X170790952Y-81748285D01*
X170838571Y-81986380D02*
X170743333Y-81938761D01*
X170648095Y-81843523D01*
X170600476Y-81653047D01*
X170600476Y-81319714D01*
X170648095Y-81129238D01*
X170743333Y-81034000D01*
X170838571Y-80986380D01*
X171029047Y-80986380D01*
X171124285Y-81034000D01*
X171219523Y-81129238D01*
X171267142Y-81319714D01*
X171267142Y-81653047D01*
X171219523Y-81843523D01*
X171124285Y-81938761D01*
X171029047Y-81986380D01*
X170838571Y-81986380D01*
X172124285Y-80986380D02*
X171933809Y-80986380D01*
X171838571Y-81034000D01*
X171790952Y-81081619D01*
X171695714Y-81224476D01*
X171648095Y-81414952D01*
X171648095Y-81795904D01*
X171695714Y-81891142D01*
X171743333Y-81938761D01*
X171838571Y-81986380D01*
X172029047Y-81986380D01*
X172124285Y-81938761D01*
X172171904Y-81891142D01*
X172219523Y-81795904D01*
X172219523Y-81557809D01*
X172171904Y-81462571D01*
X172124285Y-81414952D01*
X172029047Y-81367333D01*
X171838571Y-81367333D01*
X171743333Y-81414952D01*
X171695714Y-81462571D01*
X171648095Y-81557809D01*
X158614761Y-81827619D02*
X158519523Y-81780000D01*
X158424285Y-81684761D01*
X158281428Y-81541904D01*
X158186190Y-81494285D01*
X158090952Y-81494285D01*
X158138571Y-81732380D02*
X158043333Y-81684761D01*
X157948095Y-81589523D01*
X157900476Y-81399047D01*
X157900476Y-81065714D01*
X157948095Y-80875238D01*
X158043333Y-80780000D01*
X158138571Y-80732380D01*
X158329047Y-80732380D01*
X158424285Y-80780000D01*
X158519523Y-80875238D01*
X158567142Y-81065714D01*
X158567142Y-81399047D01*
X158519523Y-81589523D01*
X158424285Y-81684761D01*
X158329047Y-81732380D01*
X158138571Y-81732380D01*
X159471904Y-80732380D02*
X158995714Y-80732380D01*
X158948095Y-81208571D01*
X158995714Y-81160952D01*
X159090952Y-81113333D01*
X159329047Y-81113333D01*
X159424285Y-81160952D01*
X159471904Y-81208571D01*
X159519523Y-81303809D01*
X159519523Y-81541904D01*
X159471904Y-81637142D01*
X159424285Y-81684761D01*
X159329047Y-81732380D01*
X159090952Y-81732380D01*
X158995714Y-81684761D01*
X158948095Y-81637142D01*
X145914761Y-82081619D02*
X145819523Y-82034000D01*
X145724285Y-81938761D01*
X145581428Y-81795904D01*
X145486190Y-81748285D01*
X145390952Y-81748285D01*
X145438571Y-81986380D02*
X145343333Y-81938761D01*
X145248095Y-81843523D01*
X145200476Y-81653047D01*
X145200476Y-81319714D01*
X145248095Y-81129238D01*
X145343333Y-81034000D01*
X145438571Y-80986380D01*
X145629047Y-80986380D01*
X145724285Y-81034000D01*
X145819523Y-81129238D01*
X145867142Y-81319714D01*
X145867142Y-81653047D01*
X145819523Y-81843523D01*
X145724285Y-81938761D01*
X145629047Y-81986380D01*
X145438571Y-81986380D01*
X146724285Y-81319714D02*
X146724285Y-81986380D01*
X146486190Y-80938761D02*
X146248095Y-81653047D01*
X146867142Y-81653047D01*
X133214761Y-82081619D02*
X133119523Y-82034000D01*
X133024285Y-81938761D01*
X132881428Y-81795904D01*
X132786190Y-81748285D01*
X132690952Y-81748285D01*
X132738571Y-81986380D02*
X132643333Y-81938761D01*
X132548095Y-81843523D01*
X132500476Y-81653047D01*
X132500476Y-81319714D01*
X132548095Y-81129238D01*
X132643333Y-81034000D01*
X132738571Y-80986380D01*
X132929047Y-80986380D01*
X133024285Y-81034000D01*
X133119523Y-81129238D01*
X133167142Y-81319714D01*
X133167142Y-81653047D01*
X133119523Y-81843523D01*
X133024285Y-81938761D01*
X132929047Y-81986380D01*
X132738571Y-81986380D01*
X133500476Y-80986380D02*
X134119523Y-80986380D01*
X133786190Y-81367333D01*
X133929047Y-81367333D01*
X134024285Y-81414952D01*
X134071904Y-81462571D01*
X134119523Y-81557809D01*
X134119523Y-81795904D01*
X134071904Y-81891142D01*
X134024285Y-81938761D01*
X133929047Y-81986380D01*
X133643333Y-81986380D01*
X133548095Y-81938761D01*
X133500476Y-81891142D01*
X120244761Y-81954619D02*
X120149523Y-81907000D01*
X120054285Y-81811761D01*
X119911428Y-81668904D01*
X119816190Y-81621285D01*
X119720952Y-81621285D01*
X119768571Y-81859380D02*
X119673333Y-81811761D01*
X119578095Y-81716523D01*
X119530476Y-81526047D01*
X119530476Y-81192714D01*
X119578095Y-81002238D01*
X119673333Y-80907000D01*
X119768571Y-80859380D01*
X119959047Y-80859380D01*
X120054285Y-80907000D01*
X120149523Y-81002238D01*
X120197142Y-81192714D01*
X120197142Y-81526047D01*
X120149523Y-81716523D01*
X120054285Y-81811761D01*
X119959047Y-81859380D01*
X119768571Y-81859380D01*
X120578095Y-80954619D02*
X120625714Y-80907000D01*
X120720952Y-80859380D01*
X120959047Y-80859380D01*
X121054285Y-80907000D01*
X121101904Y-80954619D01*
X121149523Y-81049857D01*
X121149523Y-81145095D01*
X121101904Y-81287952D01*
X120530476Y-81859380D01*
X121149523Y-81859380D01*
X107814761Y-81963619D02*
X107719523Y-81916000D01*
X107624285Y-81820761D01*
X107481428Y-81677904D01*
X107386190Y-81630285D01*
X107290952Y-81630285D01*
X107338571Y-81868380D02*
X107243333Y-81820761D01*
X107148095Y-81725523D01*
X107100476Y-81535047D01*
X107100476Y-81201714D01*
X107148095Y-81011238D01*
X107243333Y-80916000D01*
X107338571Y-80868380D01*
X107529047Y-80868380D01*
X107624285Y-80916000D01*
X107719523Y-81011238D01*
X107767142Y-81201714D01*
X107767142Y-81535047D01*
X107719523Y-81725523D01*
X107624285Y-81820761D01*
X107529047Y-81868380D01*
X107338571Y-81868380D01*
X108719523Y-81868380D02*
X108148095Y-81868380D01*
X108433809Y-81868380D02*
X108433809Y-80868380D01*
X108338571Y-81011238D01*
X108243333Y-81106476D01*
X108148095Y-81154095D01*
X193500476Y-88724380D02*
X193500476Y-89438666D01*
X193452857Y-89581523D01*
X193357619Y-89676761D01*
X193214761Y-89724380D01*
X193119523Y-89724380D01*
X193929047Y-88819619D02*
X193976666Y-88772000D01*
X194071904Y-88724380D01*
X194310000Y-88724380D01*
X194405238Y-88772000D01*
X194452857Y-88819619D01*
X194500476Y-88914857D01*
X194500476Y-89010095D01*
X194452857Y-89152952D01*
X193881428Y-89724380D01*
X194500476Y-89724380D01*
X195119523Y-88724380D02*
X195214761Y-88724380D01*
X195310000Y-88772000D01*
X195357619Y-88819619D01*
X195405238Y-88914857D01*
X195452857Y-89105333D01*
X195452857Y-89343428D01*
X195405238Y-89533904D01*
X195357619Y-89629142D01*
X195310000Y-89676761D01*
X195214761Y-89724380D01*
X195119523Y-89724380D01*
X195024285Y-89676761D01*
X194976666Y-89629142D01*
X194929047Y-89533904D01*
X194881428Y-89343428D01*
X194881428Y-89105333D01*
X194929047Y-88914857D01*
X194976666Y-88819619D01*
X195024285Y-88772000D01*
X195119523Y-88724380D01*
X180800476Y-88724380D02*
X180800476Y-89438666D01*
X180752857Y-89581523D01*
X180657619Y-89676761D01*
X180514761Y-89724380D01*
X180419523Y-89724380D01*
X181800476Y-89724380D02*
X181229047Y-89724380D01*
X181514761Y-89724380D02*
X181514761Y-88724380D01*
X181419523Y-88867238D01*
X181324285Y-88962476D01*
X181229047Y-89010095D01*
X182276666Y-89724380D02*
X182467142Y-89724380D01*
X182562380Y-89676761D01*
X182610000Y-89629142D01*
X182705238Y-89486285D01*
X182752857Y-89295809D01*
X182752857Y-88914857D01*
X182705238Y-88819619D01*
X182657619Y-88772000D01*
X182562380Y-88724380D01*
X182371904Y-88724380D01*
X182276666Y-88772000D01*
X182229047Y-88819619D01*
X182181428Y-88914857D01*
X182181428Y-89152952D01*
X182229047Y-89248190D01*
X182276666Y-89295809D01*
X182371904Y-89343428D01*
X182562380Y-89343428D01*
X182657619Y-89295809D01*
X182705238Y-89248190D01*
X182752857Y-89152952D01*
X168100476Y-88724380D02*
X168100476Y-89438666D01*
X168052857Y-89581523D01*
X167957619Y-89676761D01*
X167814761Y-89724380D01*
X167719523Y-89724380D01*
X169100476Y-89724380D02*
X168529047Y-89724380D01*
X168814761Y-89724380D02*
X168814761Y-88724380D01*
X168719523Y-88867238D01*
X168624285Y-88962476D01*
X168529047Y-89010095D01*
X169671904Y-89152952D02*
X169576666Y-89105333D01*
X169529047Y-89057714D01*
X169481428Y-88962476D01*
X169481428Y-88914857D01*
X169529047Y-88819619D01*
X169576666Y-88772000D01*
X169671904Y-88724380D01*
X169862380Y-88724380D01*
X169957619Y-88772000D01*
X170005238Y-88819619D01*
X170052857Y-88914857D01*
X170052857Y-88962476D01*
X170005238Y-89057714D01*
X169957619Y-89105333D01*
X169862380Y-89152952D01*
X169671904Y-89152952D01*
X169576666Y-89200571D01*
X169529047Y-89248190D01*
X169481428Y-89343428D01*
X169481428Y-89533904D01*
X169529047Y-89629142D01*
X169576666Y-89676761D01*
X169671904Y-89724380D01*
X169862380Y-89724380D01*
X169957619Y-89676761D01*
X170005238Y-89629142D01*
X170052857Y-89533904D01*
X170052857Y-89343428D01*
X170005238Y-89248190D01*
X169957619Y-89200571D01*
X169862380Y-89152952D01*
X155400476Y-88724380D02*
X155400476Y-89438666D01*
X155352857Y-89581523D01*
X155257619Y-89676761D01*
X155114761Y-89724380D01*
X155019523Y-89724380D01*
X156400476Y-89724380D02*
X155829047Y-89724380D01*
X156114761Y-89724380D02*
X156114761Y-88724380D01*
X156019523Y-88867238D01*
X155924285Y-88962476D01*
X155829047Y-89010095D01*
X156733809Y-88724380D02*
X157400476Y-88724380D01*
X156971904Y-89724380D01*
X142700476Y-88724380D02*
X142700476Y-89438666D01*
X142652857Y-89581523D01*
X142557619Y-89676761D01*
X142414761Y-89724380D01*
X142319523Y-89724380D01*
X143700476Y-89724380D02*
X143129047Y-89724380D01*
X143414761Y-89724380D02*
X143414761Y-88724380D01*
X143319523Y-88867238D01*
X143224285Y-88962476D01*
X143129047Y-89010095D01*
X144557619Y-88724380D02*
X144367142Y-88724380D01*
X144271904Y-88772000D01*
X144224285Y-88819619D01*
X144129047Y-88962476D01*
X144081428Y-89152952D01*
X144081428Y-89533904D01*
X144129047Y-89629142D01*
X144176666Y-89676761D01*
X144271904Y-89724380D01*
X144462380Y-89724380D01*
X144557619Y-89676761D01*
X144605238Y-89629142D01*
X144652857Y-89533904D01*
X144652857Y-89295809D01*
X144605238Y-89200571D01*
X144557619Y-89152952D01*
X144462380Y-89105333D01*
X144271904Y-89105333D01*
X144176666Y-89152952D01*
X144129047Y-89200571D01*
X144081428Y-89295809D01*
X130000476Y-88724380D02*
X130000476Y-89438666D01*
X129952857Y-89581523D01*
X129857619Y-89676761D01*
X129714761Y-89724380D01*
X129619523Y-89724380D01*
X131000476Y-89724380D02*
X130429047Y-89724380D01*
X130714761Y-89724380D02*
X130714761Y-88724380D01*
X130619523Y-88867238D01*
X130524285Y-88962476D01*
X130429047Y-89010095D01*
X131905238Y-88724380D02*
X131429047Y-88724380D01*
X131381428Y-89200571D01*
X131429047Y-89152952D01*
X131524285Y-89105333D01*
X131762380Y-89105333D01*
X131857619Y-89152952D01*
X131905238Y-89200571D01*
X131952857Y-89295809D01*
X131952857Y-89533904D01*
X131905238Y-89629142D01*
X131857619Y-89676761D01*
X131762380Y-89724380D01*
X131524285Y-89724380D01*
X131429047Y-89676761D01*
X131381428Y-89629142D01*
X117300476Y-88724380D02*
X117300476Y-89438666D01*
X117252857Y-89581523D01*
X117157619Y-89676761D01*
X117014761Y-89724380D01*
X116919523Y-89724380D01*
X118300476Y-89724380D02*
X117729047Y-89724380D01*
X118014761Y-89724380D02*
X118014761Y-88724380D01*
X117919523Y-88867238D01*
X117824285Y-88962476D01*
X117729047Y-89010095D01*
X119157619Y-89057714D02*
X119157619Y-89724380D01*
X118919523Y-88676761D02*
X118681428Y-89391047D01*
X119300476Y-89391047D01*
X104600476Y-88724380D02*
X104600476Y-89438666D01*
X104552857Y-89581523D01*
X104457619Y-89676761D01*
X104314761Y-89724380D01*
X104219523Y-89724380D01*
X105600476Y-89724380D02*
X105029047Y-89724380D01*
X105314761Y-89724380D02*
X105314761Y-88724380D01*
X105219523Y-88867238D01*
X105124285Y-88962476D01*
X105029047Y-89010095D01*
X105933809Y-88724380D02*
X106552857Y-88724380D01*
X106219523Y-89105333D01*
X106362380Y-89105333D01*
X106457619Y-89152952D01*
X106505238Y-89200571D01*
X106552857Y-89295809D01*
X106552857Y-89533904D01*
X106505238Y-89629142D01*
X106457619Y-89676761D01*
X106362380Y-89724380D01*
X106076666Y-89724380D01*
X105981428Y-89676761D01*
X105933809Y-89629142D01*
X113744476Y-51014380D02*
X113744476Y-51728666D01*
X113696857Y-51871523D01*
X113601619Y-51966761D01*
X113458761Y-52014380D01*
X113363523Y-52014380D01*
X114744476Y-52014380D02*
X114173047Y-52014380D01*
X114458761Y-52014380D02*
X114458761Y-51014380D01*
X114363523Y-51157238D01*
X114268285Y-51252476D01*
X114173047Y-51300095D01*
X115125428Y-51109619D02*
X115173047Y-51062000D01*
X115268285Y-51014380D01*
X115506380Y-51014380D01*
X115601619Y-51062000D01*
X115649238Y-51109619D01*
X115696857Y-51204857D01*
X115696857Y-51300095D01*
X115649238Y-51442952D01*
X115077809Y-52014380D01*
X115696857Y-52014380D01*
X174450476Y-51141380D02*
X174450476Y-51855666D01*
X174402857Y-51998523D01*
X174307619Y-52093761D01*
X174164761Y-52141380D01*
X174069523Y-52141380D01*
X175450476Y-52141380D02*
X174879047Y-52141380D01*
X175164761Y-52141380D02*
X175164761Y-51141380D01*
X175069523Y-51284238D01*
X174974285Y-51379476D01*
X174879047Y-51427095D01*
X176402857Y-52141380D02*
X175831428Y-52141380D01*
X176117142Y-52141380D02*
X176117142Y-51141380D01*
X176021904Y-51284238D01*
X175926666Y-51379476D01*
X175831428Y-51427095D01*
X148637666Y-51268380D02*
X148637666Y-51982666D01*
X148590047Y-52125523D01*
X148494809Y-52220761D01*
X148351952Y-52268380D01*
X148256714Y-52268380D01*
X149161476Y-52268380D02*
X149351952Y-52268380D01*
X149447190Y-52220761D01*
X149494809Y-52173142D01*
X149590047Y-52030285D01*
X149637666Y-51839809D01*
X149637666Y-51458857D01*
X149590047Y-51363619D01*
X149542428Y-51316000D01*
X149447190Y-51268380D01*
X149256714Y-51268380D01*
X149161476Y-51316000D01*
X149113857Y-51363619D01*
X149066238Y-51458857D01*
X149066238Y-51696952D01*
X149113857Y-51792190D01*
X149161476Y-51839809D01*
X149256714Y-51887428D01*
X149447190Y-51887428D01*
X149542428Y-51839809D01*
X149590047Y-51792190D01*
X149637666Y-51696952D01*
X193976666Y-125012380D02*
X193976666Y-125726666D01*
X193929047Y-125869523D01*
X193833809Y-125964761D01*
X193690952Y-126012380D01*
X193595714Y-126012380D01*
X194595714Y-125440952D02*
X194500476Y-125393333D01*
X194452857Y-125345714D01*
X194405238Y-125250476D01*
X194405238Y-125202857D01*
X194452857Y-125107619D01*
X194500476Y-125060000D01*
X194595714Y-125012380D01*
X194786190Y-125012380D01*
X194881428Y-125060000D01*
X194929047Y-125107619D01*
X194976666Y-125202857D01*
X194976666Y-125250476D01*
X194929047Y-125345714D01*
X194881428Y-125393333D01*
X194786190Y-125440952D01*
X194595714Y-125440952D01*
X194500476Y-125488571D01*
X194452857Y-125536190D01*
X194405238Y-125631428D01*
X194405238Y-125821904D01*
X194452857Y-125917142D01*
X194500476Y-125964761D01*
X194595714Y-126012380D01*
X194786190Y-126012380D01*
X194881428Y-125964761D01*
X194929047Y-125917142D01*
X194976666Y-125821904D01*
X194976666Y-125631428D01*
X194929047Y-125536190D01*
X194881428Y-125488571D01*
X194786190Y-125440952D01*
X181276666Y-125012380D02*
X181276666Y-125726666D01*
X181229047Y-125869523D01*
X181133809Y-125964761D01*
X180990952Y-126012380D01*
X180895714Y-126012380D01*
X181657619Y-125012380D02*
X182324285Y-125012380D01*
X181895714Y-126012380D01*
X168576666Y-125012380D02*
X168576666Y-125726666D01*
X168529047Y-125869523D01*
X168433809Y-125964761D01*
X168290952Y-126012380D01*
X168195714Y-126012380D01*
X169481428Y-125012380D02*
X169290952Y-125012380D01*
X169195714Y-125060000D01*
X169148095Y-125107619D01*
X169052857Y-125250476D01*
X169005238Y-125440952D01*
X169005238Y-125821904D01*
X169052857Y-125917142D01*
X169100476Y-125964761D01*
X169195714Y-126012380D01*
X169386190Y-126012380D01*
X169481428Y-125964761D01*
X169529047Y-125917142D01*
X169576666Y-125821904D01*
X169576666Y-125583809D01*
X169529047Y-125488571D01*
X169481428Y-125440952D01*
X169386190Y-125393333D01*
X169195714Y-125393333D01*
X169100476Y-125440952D01*
X169052857Y-125488571D01*
X169005238Y-125583809D01*
X155876666Y-125012380D02*
X155876666Y-125726666D01*
X155829047Y-125869523D01*
X155733809Y-125964761D01*
X155590952Y-126012380D01*
X155495714Y-126012380D01*
X156829047Y-125012380D02*
X156352857Y-125012380D01*
X156305238Y-125488571D01*
X156352857Y-125440952D01*
X156448095Y-125393333D01*
X156686190Y-125393333D01*
X156781428Y-125440952D01*
X156829047Y-125488571D01*
X156876666Y-125583809D01*
X156876666Y-125821904D01*
X156829047Y-125917142D01*
X156781428Y-125964761D01*
X156686190Y-126012380D01*
X156448095Y-126012380D01*
X156352857Y-125964761D01*
X156305238Y-125917142D01*
X143176666Y-125012380D02*
X143176666Y-125726666D01*
X143129047Y-125869523D01*
X143033809Y-125964761D01*
X142890952Y-126012380D01*
X142795714Y-126012380D01*
X144081428Y-125345714D02*
X144081428Y-126012380D01*
X143843333Y-124964761D02*
X143605238Y-125679047D01*
X144224285Y-125679047D01*
X130476666Y-125012380D02*
X130476666Y-125726666D01*
X130429047Y-125869523D01*
X130333809Y-125964761D01*
X130190952Y-126012380D01*
X130095714Y-126012380D01*
X130857619Y-125012380D02*
X131476666Y-125012380D01*
X131143333Y-125393333D01*
X131286190Y-125393333D01*
X131381428Y-125440952D01*
X131429047Y-125488571D01*
X131476666Y-125583809D01*
X131476666Y-125821904D01*
X131429047Y-125917142D01*
X131381428Y-125964761D01*
X131286190Y-126012380D01*
X131000476Y-126012380D01*
X130905238Y-125964761D01*
X130857619Y-125917142D01*
X117776666Y-125012380D02*
X117776666Y-125726666D01*
X117729047Y-125869523D01*
X117633809Y-125964761D01*
X117490952Y-126012380D01*
X117395714Y-126012380D01*
X118205238Y-125107619D02*
X118252857Y-125060000D01*
X118348095Y-125012380D01*
X118586190Y-125012380D01*
X118681428Y-125060000D01*
X118729047Y-125107619D01*
X118776666Y-125202857D01*
X118776666Y-125298095D01*
X118729047Y-125440952D01*
X118157619Y-126012380D01*
X118776666Y-126012380D01*
X105076666Y-125012380D02*
X105076666Y-125726666D01*
X105029047Y-125869523D01*
X104933809Y-125964761D01*
X104790952Y-126012380D01*
X104695714Y-126012380D01*
X106076666Y-126012380D02*
X105505238Y-126012380D01*
X105790952Y-126012380D02*
X105790952Y-125012380D01*
X105695714Y-125155238D01*
X105600476Y-125250476D01*
X105505238Y-125298095D01*
X134769571Y-63444333D02*
X134769571Y-63777666D01*
X135293380Y-63777666D02*
X134293380Y-63777666D01*
X134293380Y-63301476D01*
X134769571Y-62587190D02*
X134817190Y-62444333D01*
X134864809Y-62396714D01*
X134960047Y-62349095D01*
X135102904Y-62349095D01*
X135198142Y-62396714D01*
X135245761Y-62444333D01*
X135293380Y-62539571D01*
X135293380Y-62920523D01*
X134293380Y-62920523D01*
X134293380Y-62587190D01*
X134341000Y-62491952D01*
X134388619Y-62444333D01*
X134483857Y-62396714D01*
X134579095Y-62396714D01*
X134674333Y-62444333D01*
X134721952Y-62491952D01*
X134769571Y-62587190D01*
X134769571Y-62920523D01*
X134626714Y-61491952D02*
X135293380Y-61491952D01*
X134245761Y-61730047D02*
X134960047Y-61968142D01*
X134960047Y-61349095D01*
X188714166Y-106608571D02*
X188380833Y-106608571D01*
X188380833Y-107132380D02*
X188380833Y-106132380D01*
X188857023Y-106132380D01*
X189571309Y-106608571D02*
X189714166Y-106656190D01*
X189761785Y-106703809D01*
X189809404Y-106799047D01*
X189809404Y-106941904D01*
X189761785Y-107037142D01*
X189714166Y-107084761D01*
X189618928Y-107132380D01*
X189237976Y-107132380D01*
X189237976Y-106132380D01*
X189571309Y-106132380D01*
X189666547Y-106180000D01*
X189714166Y-106227619D01*
X189761785Y-106322857D01*
X189761785Y-106418095D01*
X189714166Y-106513333D01*
X189666547Y-106560952D01*
X189571309Y-106608571D01*
X189237976Y-106608571D01*
X190142738Y-106132380D02*
X190761785Y-106132380D01*
X190428452Y-106513333D01*
X190571309Y-106513333D01*
X190666547Y-106560952D01*
X190714166Y-106608571D01*
X190761785Y-106703809D01*
X190761785Y-106941904D01*
X190714166Y-107037142D01*
X190666547Y-107084761D01*
X190571309Y-107132380D01*
X190285595Y-107132380D01*
X190190357Y-107084761D01*
X190142738Y-107037142D01*
X149026666Y-63014571D02*
X148693333Y-63014571D01*
X148693333Y-63538380D02*
X148693333Y-62538380D01*
X149169523Y-62538380D01*
X149883809Y-63014571D02*
X150026666Y-63062190D01*
X150074285Y-63109809D01*
X150121904Y-63205047D01*
X150121904Y-63347904D01*
X150074285Y-63443142D01*
X150026666Y-63490761D01*
X149931428Y-63538380D01*
X149550476Y-63538380D01*
X149550476Y-62538380D01*
X149883809Y-62538380D01*
X149979047Y-62586000D01*
X150026666Y-62633619D01*
X150074285Y-62728857D01*
X150074285Y-62824095D01*
X150026666Y-62919333D01*
X149979047Y-62966952D01*
X149883809Y-63014571D01*
X149550476Y-63014571D01*
X150502857Y-62633619D02*
X150550476Y-62586000D01*
X150645714Y-62538380D01*
X150883809Y-62538380D01*
X150979047Y-62586000D01*
X151026666Y-62633619D01*
X151074285Y-62728857D01*
X151074285Y-62824095D01*
X151026666Y-62966952D01*
X150455238Y-63538380D01*
X151074285Y-63538380D01*
X157662666Y-63174571D02*
X157329333Y-63174571D01*
X157329333Y-63698380D02*
X157329333Y-62698380D01*
X157805523Y-62698380D01*
X158519809Y-63174571D02*
X158662666Y-63222190D01*
X158710285Y-63269809D01*
X158757904Y-63365047D01*
X158757904Y-63507904D01*
X158710285Y-63603142D01*
X158662666Y-63650761D01*
X158567428Y-63698380D01*
X158186476Y-63698380D01*
X158186476Y-62698380D01*
X158519809Y-62698380D01*
X158615047Y-62746000D01*
X158662666Y-62793619D01*
X158710285Y-62888857D01*
X158710285Y-62984095D01*
X158662666Y-63079333D01*
X158615047Y-63126952D01*
X158519809Y-63174571D01*
X158186476Y-63174571D01*
X159710285Y-63698380D02*
X159138857Y-63698380D01*
X159424571Y-63698380D02*
X159424571Y-62698380D01*
X159329333Y-62841238D01*
X159234095Y-62936476D01*
X159138857Y-62984095D01*
X193257714Y-78062380D02*
X193257714Y-77062380D01*
X193495809Y-77062380D01*
X193638666Y-77110000D01*
X193733904Y-77205238D01*
X193781523Y-77300476D01*
X193829142Y-77490952D01*
X193829142Y-77633809D01*
X193781523Y-77824285D01*
X193733904Y-77919523D01*
X193638666Y-78014761D01*
X193495809Y-78062380D01*
X193257714Y-78062380D01*
X194781523Y-78062380D02*
X194210095Y-78062380D01*
X194495809Y-78062380D02*
X194495809Y-77062380D01*
X194400571Y-77205238D01*
X194305333Y-77300476D01*
X194210095Y-77348095D01*
X195733904Y-78062380D02*
X195162476Y-78062380D01*
X195448190Y-78062380D02*
X195448190Y-77062380D01*
X195352952Y-77205238D01*
X195257714Y-77300476D01*
X195162476Y-77348095D01*
X180449714Y-78189380D02*
X180449714Y-77189380D01*
X180687809Y-77189380D01*
X180830666Y-77237000D01*
X180925904Y-77332238D01*
X180973523Y-77427476D01*
X181021142Y-77617952D01*
X181021142Y-77760809D01*
X180973523Y-77951285D01*
X180925904Y-78046523D01*
X180830666Y-78141761D01*
X180687809Y-78189380D01*
X180449714Y-78189380D01*
X181973523Y-78189380D02*
X181402095Y-78189380D01*
X181687809Y-78189380D02*
X181687809Y-77189380D01*
X181592571Y-77332238D01*
X181497333Y-77427476D01*
X181402095Y-77475095D01*
X182592571Y-77189380D02*
X182687809Y-77189380D01*
X182783047Y-77237000D01*
X182830666Y-77284619D01*
X182878285Y-77379857D01*
X182925904Y-77570333D01*
X182925904Y-77808428D01*
X182878285Y-77998904D01*
X182830666Y-78094142D01*
X182783047Y-78141761D01*
X182687809Y-78189380D01*
X182592571Y-78189380D01*
X182497333Y-78141761D01*
X182449714Y-78094142D01*
X182402095Y-77998904D01*
X182354476Y-77808428D01*
X182354476Y-77570333D01*
X182402095Y-77379857D01*
X182449714Y-77284619D01*
X182497333Y-77237000D01*
X182592571Y-77189380D01*
X168098904Y-78062380D02*
X168098904Y-77062380D01*
X168337000Y-77062380D01*
X168479857Y-77110000D01*
X168575095Y-77205238D01*
X168622714Y-77300476D01*
X168670333Y-77490952D01*
X168670333Y-77633809D01*
X168622714Y-77824285D01*
X168575095Y-77919523D01*
X168479857Y-78014761D01*
X168337000Y-78062380D01*
X168098904Y-78062380D01*
X169146523Y-78062380D02*
X169337000Y-78062380D01*
X169432238Y-78014761D01*
X169479857Y-77967142D01*
X169575095Y-77824285D01*
X169622714Y-77633809D01*
X169622714Y-77252857D01*
X169575095Y-77157619D01*
X169527476Y-77110000D01*
X169432238Y-77062380D01*
X169241761Y-77062380D01*
X169146523Y-77110000D01*
X169098904Y-77157619D01*
X169051285Y-77252857D01*
X169051285Y-77490952D01*
X169098904Y-77586190D01*
X169146523Y-77633809D01*
X169241761Y-77681428D01*
X169432238Y-77681428D01*
X169527476Y-77633809D01*
X169575095Y-77586190D01*
X169622714Y-77490952D01*
X155385904Y-78038380D02*
X155385904Y-77038380D01*
X155624000Y-77038380D01*
X155766857Y-77086000D01*
X155862095Y-77181238D01*
X155909714Y-77276476D01*
X155957333Y-77466952D01*
X155957333Y-77609809D01*
X155909714Y-77800285D01*
X155862095Y-77895523D01*
X155766857Y-77990761D01*
X155624000Y-78038380D01*
X155385904Y-78038380D01*
X156528761Y-77466952D02*
X156433523Y-77419333D01*
X156385904Y-77371714D01*
X156338285Y-77276476D01*
X156338285Y-77228857D01*
X156385904Y-77133619D01*
X156433523Y-77086000D01*
X156528761Y-77038380D01*
X156719238Y-77038380D01*
X156814476Y-77086000D01*
X156862095Y-77133619D01*
X156909714Y-77228857D01*
X156909714Y-77276476D01*
X156862095Y-77371714D01*
X156814476Y-77419333D01*
X156719238Y-77466952D01*
X156528761Y-77466952D01*
X156433523Y-77514571D01*
X156385904Y-77562190D01*
X156338285Y-77657428D01*
X156338285Y-77847904D01*
X156385904Y-77943142D01*
X156433523Y-77990761D01*
X156528761Y-78038380D01*
X156719238Y-78038380D01*
X156814476Y-77990761D01*
X156862095Y-77943142D01*
X156909714Y-77847904D01*
X156909714Y-77657428D01*
X156862095Y-77562190D01*
X156814476Y-77514571D01*
X156719238Y-77466952D01*
X142825904Y-78062380D02*
X142825904Y-77062380D01*
X143064000Y-77062380D01*
X143206857Y-77110000D01*
X143302095Y-77205238D01*
X143349714Y-77300476D01*
X143397333Y-77490952D01*
X143397333Y-77633809D01*
X143349714Y-77824285D01*
X143302095Y-77919523D01*
X143206857Y-78014761D01*
X143064000Y-78062380D01*
X142825904Y-78062380D01*
X143730666Y-77062380D02*
X144397333Y-77062380D01*
X143968761Y-78062380D01*
X130105904Y-78062380D02*
X130105904Y-77062380D01*
X130344000Y-77062380D01*
X130486857Y-77110000D01*
X130582095Y-77205238D01*
X130629714Y-77300476D01*
X130677333Y-77490952D01*
X130677333Y-77633809D01*
X130629714Y-77824285D01*
X130582095Y-77919523D01*
X130486857Y-78014761D01*
X130344000Y-78062380D01*
X130105904Y-78062380D01*
X131534476Y-77062380D02*
X131344000Y-77062380D01*
X131248761Y-77110000D01*
X131201142Y-77157619D01*
X131105904Y-77300476D01*
X131058285Y-77490952D01*
X131058285Y-77871904D01*
X131105904Y-77967142D01*
X131153523Y-78014761D01*
X131248761Y-78062380D01*
X131439238Y-78062380D01*
X131534476Y-78014761D01*
X131582095Y-77967142D01*
X131629714Y-77871904D01*
X131629714Y-77633809D01*
X131582095Y-77538571D01*
X131534476Y-77490952D01*
X131439238Y-77443333D01*
X131248761Y-77443333D01*
X131153523Y-77490952D01*
X131105904Y-77538571D01*
X131058285Y-77633809D01*
X117388904Y-77935380D02*
X117388904Y-76935380D01*
X117627000Y-76935380D01*
X117769857Y-76983000D01*
X117865095Y-77078238D01*
X117912714Y-77173476D01*
X117960333Y-77363952D01*
X117960333Y-77506809D01*
X117912714Y-77697285D01*
X117865095Y-77792523D01*
X117769857Y-77887761D01*
X117627000Y-77935380D01*
X117388904Y-77935380D01*
X118865095Y-76935380D02*
X118388904Y-76935380D01*
X118341285Y-77411571D01*
X118388904Y-77363952D01*
X118484142Y-77316333D01*
X118722238Y-77316333D01*
X118817476Y-77363952D01*
X118865095Y-77411571D01*
X118912714Y-77506809D01*
X118912714Y-77744904D01*
X118865095Y-77840142D01*
X118817476Y-77887761D01*
X118722238Y-77935380D01*
X118484142Y-77935380D01*
X118388904Y-77887761D01*
X118341285Y-77840142D01*
X104732904Y-77905380D02*
X104732904Y-76905380D01*
X104971000Y-76905380D01*
X105113857Y-76953000D01*
X105209095Y-77048238D01*
X105256714Y-77143476D01*
X105304333Y-77333952D01*
X105304333Y-77476809D01*
X105256714Y-77667285D01*
X105209095Y-77762523D01*
X105113857Y-77857761D01*
X104971000Y-77905380D01*
X104732904Y-77905380D01*
X106161476Y-77238714D02*
X106161476Y-77905380D01*
X105923380Y-76857761D02*
X105685285Y-77572047D01*
X106304333Y-77572047D01*
X141907904Y-52926380D02*
X141907904Y-51926380D01*
X142146000Y-51926380D01*
X142288857Y-51974000D01*
X142384095Y-52069238D01*
X142431714Y-52164476D01*
X142479333Y-52354952D01*
X142479333Y-52497809D01*
X142431714Y-52688285D01*
X142384095Y-52783523D01*
X142288857Y-52878761D01*
X142146000Y-52926380D01*
X141907904Y-52926380D01*
X142812666Y-51926380D02*
X143431714Y-51926380D01*
X143098380Y-52307333D01*
X143241238Y-52307333D01*
X143336476Y-52354952D01*
X143384095Y-52402571D01*
X143431714Y-52497809D01*
X143431714Y-52735904D01*
X143384095Y-52831142D01*
X143336476Y-52878761D01*
X143241238Y-52926380D01*
X142955523Y-52926380D01*
X142860285Y-52878761D01*
X142812666Y-52831142D01*
X149121904Y-59253380D02*
X149121904Y-58253380D01*
X149360000Y-58253380D01*
X149502857Y-58301000D01*
X149598095Y-58396238D01*
X149645714Y-58491476D01*
X149693333Y-58681952D01*
X149693333Y-58824809D01*
X149645714Y-59015285D01*
X149598095Y-59110523D01*
X149502857Y-59205761D01*
X149360000Y-59253380D01*
X149121904Y-59253380D01*
X150074285Y-58348619D02*
X150121904Y-58301000D01*
X150217142Y-58253380D01*
X150455238Y-58253380D01*
X150550476Y-58301000D01*
X150598095Y-58348619D01*
X150645714Y-58443857D01*
X150645714Y-58539095D01*
X150598095Y-58681952D01*
X150026666Y-59253380D01*
X150645714Y-59253380D01*
X157757904Y-59253380D02*
X157757904Y-58253380D01*
X157996000Y-58253380D01*
X158138857Y-58301000D01*
X158234095Y-58396238D01*
X158281714Y-58491476D01*
X158329333Y-58681952D01*
X158329333Y-58824809D01*
X158281714Y-59015285D01*
X158234095Y-59110523D01*
X158138857Y-59205761D01*
X157996000Y-59253380D01*
X157757904Y-59253380D01*
X159281714Y-59253380D02*
X158710285Y-59253380D01*
X158996000Y-59253380D02*
X158996000Y-58253380D01*
X158900761Y-58396238D01*
X158805523Y-58491476D01*
X158710285Y-58539095D01*
X105005142Y-73413857D02*
X105052761Y-73461476D01*
X105100380Y-73604333D01*
X105100380Y-73699571D01*
X105052761Y-73842428D01*
X104957523Y-73937666D01*
X104862285Y-73985285D01*
X104671809Y-74032904D01*
X104528952Y-74032904D01*
X104338476Y-73985285D01*
X104243238Y-73937666D01*
X104148000Y-73842428D01*
X104100380Y-73699571D01*
X104100380Y-73604333D01*
X104148000Y-73461476D01*
X104195619Y-73413857D01*
X104100380Y-73080523D02*
X104100380Y-72461476D01*
X104481333Y-72794809D01*
X104481333Y-72651952D01*
X104528952Y-72556714D01*
X104576571Y-72509095D01*
X104671809Y-72461476D01*
X104909904Y-72461476D01*
X105005142Y-72509095D01*
X105052761Y-72556714D01*
X105100380Y-72651952D01*
X105100380Y-72937666D01*
X105052761Y-73032904D01*
X105005142Y-73080523D01*
X104100380Y-72128142D02*
X104100380Y-71509095D01*
X104481333Y-71842428D01*
X104481333Y-71699571D01*
X104528952Y-71604333D01*
X104576571Y-71556714D01*
X104671809Y-71509095D01*
X104909904Y-71509095D01*
X105005142Y-71556714D01*
X105052761Y-71604333D01*
X105100380Y-71699571D01*
X105100380Y-71985285D01*
X105052761Y-72080523D01*
X105005142Y-72128142D01*
X122658142Y-70492857D02*
X122705761Y-70540476D01*
X122753380Y-70683333D01*
X122753380Y-70778571D01*
X122705761Y-70921428D01*
X122610523Y-71016666D01*
X122515285Y-71064285D01*
X122324809Y-71111904D01*
X122181952Y-71111904D01*
X121991476Y-71064285D01*
X121896238Y-71016666D01*
X121801000Y-70921428D01*
X121753380Y-70778571D01*
X121753380Y-70683333D01*
X121801000Y-70540476D01*
X121848619Y-70492857D01*
X121753380Y-70159523D02*
X121753380Y-69540476D01*
X122134333Y-69873809D01*
X122134333Y-69730952D01*
X122181952Y-69635714D01*
X122229571Y-69588095D01*
X122324809Y-69540476D01*
X122562904Y-69540476D01*
X122658142Y-69588095D01*
X122705761Y-69635714D01*
X122753380Y-69730952D01*
X122753380Y-70016666D01*
X122705761Y-70111904D01*
X122658142Y-70159523D01*
X121848619Y-69159523D02*
X121801000Y-69111904D01*
X121753380Y-69016666D01*
X121753380Y-68778571D01*
X121801000Y-68683333D01*
X121848619Y-68635714D01*
X121943857Y-68588095D01*
X122039095Y-68588095D01*
X122181952Y-68635714D01*
X122753380Y-69207142D01*
X122753380Y-68588095D01*
X129102142Y-63253857D02*
X129149761Y-63301476D01*
X129197380Y-63444333D01*
X129197380Y-63539571D01*
X129149761Y-63682428D01*
X129054523Y-63777666D01*
X128959285Y-63825285D01*
X128768809Y-63872904D01*
X128625952Y-63872904D01*
X128435476Y-63825285D01*
X128340238Y-63777666D01*
X128245000Y-63682428D01*
X128197380Y-63539571D01*
X128197380Y-63444333D01*
X128245000Y-63301476D01*
X128292619Y-63253857D01*
X128197380Y-62920523D02*
X128197380Y-62301476D01*
X128578333Y-62634809D01*
X128578333Y-62491952D01*
X128625952Y-62396714D01*
X128673571Y-62349095D01*
X128768809Y-62301476D01*
X129006904Y-62301476D01*
X129102142Y-62349095D01*
X129149761Y-62396714D01*
X129197380Y-62491952D01*
X129197380Y-62777666D01*
X129149761Y-62872904D01*
X129102142Y-62920523D01*
X129197380Y-61349095D02*
X129197380Y-61920523D01*
X129197380Y-61634809D02*
X128197380Y-61634809D01*
X128340238Y-61730047D01*
X128435476Y-61825285D01*
X128483095Y-61920523D01*
X132150142Y-63253857D02*
X132197761Y-63301476D01*
X132245380Y-63444333D01*
X132245380Y-63539571D01*
X132197761Y-63682428D01*
X132102523Y-63777666D01*
X132007285Y-63825285D01*
X131816809Y-63872904D01*
X131673952Y-63872904D01*
X131483476Y-63825285D01*
X131388238Y-63777666D01*
X131293000Y-63682428D01*
X131245380Y-63539571D01*
X131245380Y-63444333D01*
X131293000Y-63301476D01*
X131340619Y-63253857D01*
X131245380Y-62920523D02*
X131245380Y-62301476D01*
X131626333Y-62634809D01*
X131626333Y-62491952D01*
X131673952Y-62396714D01*
X131721571Y-62349095D01*
X131816809Y-62301476D01*
X132054904Y-62301476D01*
X132150142Y-62349095D01*
X132197761Y-62396714D01*
X132245380Y-62491952D01*
X132245380Y-62777666D01*
X132197761Y-62872904D01*
X132150142Y-62920523D01*
X131245380Y-61682428D02*
X131245380Y-61587190D01*
X131293000Y-61491952D01*
X131340619Y-61444333D01*
X131435857Y-61396714D01*
X131626333Y-61349095D01*
X131864428Y-61349095D01*
X132054904Y-61396714D01*
X132150142Y-61444333D01*
X132197761Y-61491952D01*
X132245380Y-61587190D01*
X132245380Y-61682428D01*
X132197761Y-61777666D01*
X132150142Y-61825285D01*
X132054904Y-61872904D01*
X131864428Y-61920523D01*
X131626333Y-61920523D01*
X131435857Y-61872904D01*
X131340619Y-61825285D01*
X131293000Y-61777666D01*
X131245380Y-61682428D01*
X138152142Y-70492857D02*
X138199761Y-70540476D01*
X138247380Y-70683333D01*
X138247380Y-70778571D01*
X138199761Y-70921428D01*
X138104523Y-71016666D01*
X138009285Y-71064285D01*
X137818809Y-71111904D01*
X137675952Y-71111904D01*
X137485476Y-71064285D01*
X137390238Y-71016666D01*
X137295000Y-70921428D01*
X137247380Y-70778571D01*
X137247380Y-70683333D01*
X137295000Y-70540476D01*
X137342619Y-70492857D01*
X137342619Y-70111904D02*
X137295000Y-70064285D01*
X137247380Y-69969047D01*
X137247380Y-69730952D01*
X137295000Y-69635714D01*
X137342619Y-69588095D01*
X137437857Y-69540476D01*
X137533095Y-69540476D01*
X137675952Y-69588095D01*
X138247380Y-70159523D01*
X138247380Y-69540476D01*
X138247380Y-69064285D02*
X138247380Y-68873809D01*
X138199761Y-68778571D01*
X138152142Y-68730952D01*
X138009285Y-68635714D01*
X137818809Y-68588095D01*
X137437857Y-68588095D01*
X137342619Y-68635714D01*
X137295000Y-68683333D01*
X137247380Y-68778571D01*
X137247380Y-68969047D01*
X137295000Y-69064285D01*
X137342619Y-69111904D01*
X137437857Y-69159523D01*
X137675952Y-69159523D01*
X137771190Y-69111904D01*
X137818809Y-69064285D01*
X137866428Y-68969047D01*
X137866428Y-68778571D01*
X137818809Y-68683333D01*
X137771190Y-68635714D01*
X137675952Y-68588095D01*
X170481242Y-113634757D02*
X170528861Y-113682376D01*
X170576480Y-113825233D01*
X170576480Y-113920471D01*
X170528861Y-114063328D01*
X170433623Y-114158566D01*
X170338385Y-114206185D01*
X170147909Y-114253804D01*
X170005052Y-114253804D01*
X169814576Y-114206185D01*
X169719338Y-114158566D01*
X169624100Y-114063328D01*
X169576480Y-113920471D01*
X169576480Y-113825233D01*
X169624100Y-113682376D01*
X169671719Y-113634757D01*
X169671719Y-113253804D02*
X169624100Y-113206185D01*
X169576480Y-113110947D01*
X169576480Y-112872852D01*
X169624100Y-112777614D01*
X169671719Y-112729995D01*
X169766957Y-112682376D01*
X169862195Y-112682376D01*
X170005052Y-112729995D01*
X170576480Y-113301423D01*
X170576480Y-112682376D01*
X170005052Y-112110947D02*
X169957433Y-112206185D01*
X169909814Y-112253804D01*
X169814576Y-112301423D01*
X169766957Y-112301423D01*
X169671719Y-112253804D01*
X169624100Y-112206185D01*
X169576480Y-112110947D01*
X169576480Y-111920471D01*
X169624100Y-111825233D01*
X169671719Y-111777614D01*
X169766957Y-111729995D01*
X169814576Y-111729995D01*
X169909814Y-111777614D01*
X169957433Y-111825233D01*
X170005052Y-111920471D01*
X170005052Y-112110947D01*
X170052671Y-112206185D01*
X170100290Y-112253804D01*
X170195528Y-112301423D01*
X170386004Y-112301423D01*
X170481242Y-112253804D01*
X170528861Y-112206185D01*
X170576480Y-112110947D01*
X170576480Y-111920471D01*
X170528861Y-111825233D01*
X170481242Y-111777614D01*
X170386004Y-111729995D01*
X170195528Y-111729995D01*
X170100290Y-111777614D01*
X170052671Y-111825233D01*
X170005052Y-111920471D01*
X182681642Y-107004142D02*
X182634023Y-107051761D01*
X182491166Y-107099380D01*
X182395928Y-107099380D01*
X182253071Y-107051761D01*
X182157833Y-106956523D01*
X182110214Y-106861285D01*
X182062595Y-106670809D01*
X182062595Y-106527952D01*
X182110214Y-106337476D01*
X182157833Y-106242238D01*
X182253071Y-106147000D01*
X182395928Y-106099380D01*
X182491166Y-106099380D01*
X182634023Y-106147000D01*
X182681642Y-106194619D01*
X183062595Y-106194619D02*
X183110214Y-106147000D01*
X183205452Y-106099380D01*
X183443547Y-106099380D01*
X183538785Y-106147000D01*
X183586404Y-106194619D01*
X183634023Y-106289857D01*
X183634023Y-106385095D01*
X183586404Y-106527952D01*
X183014976Y-107099380D01*
X183634023Y-107099380D01*
X183967357Y-106099380D02*
X184634023Y-106099380D01*
X184205452Y-107099380D01*
X193603642Y-117070142D02*
X193556023Y-117117761D01*
X193413166Y-117165380D01*
X193317928Y-117165380D01*
X193175071Y-117117761D01*
X193079833Y-117022523D01*
X193032214Y-116927285D01*
X192984595Y-116736809D01*
X192984595Y-116593952D01*
X193032214Y-116403476D01*
X193079833Y-116308238D01*
X193175071Y-116213000D01*
X193317928Y-116165380D01*
X193413166Y-116165380D01*
X193556023Y-116213000D01*
X193603642Y-116260619D01*
X193984595Y-116260619D02*
X194032214Y-116213000D01*
X194127452Y-116165380D01*
X194365547Y-116165380D01*
X194460785Y-116213000D01*
X194508404Y-116260619D01*
X194556023Y-116355857D01*
X194556023Y-116451095D01*
X194508404Y-116593952D01*
X193936976Y-117165380D01*
X194556023Y-117165380D01*
X195413166Y-116165380D02*
X195222690Y-116165380D01*
X195127452Y-116213000D01*
X195079833Y-116260619D01*
X194984595Y-116403476D01*
X194936976Y-116593952D01*
X194936976Y-116974904D01*
X194984595Y-117070142D01*
X195032214Y-117117761D01*
X195127452Y-117165380D01*
X195317928Y-117165380D01*
X195413166Y-117117761D01*
X195460785Y-117070142D01*
X195508404Y-116974904D01*
X195508404Y-116736809D01*
X195460785Y-116641571D01*
X195413166Y-116593952D01*
X195317928Y-116546333D01*
X195127452Y-116546333D01*
X195032214Y-116593952D01*
X194984595Y-116641571D01*
X194936976Y-116736809D01*
X171950142Y-68175142D02*
X171902523Y-68222761D01*
X171759666Y-68270380D01*
X171664428Y-68270380D01*
X171521571Y-68222761D01*
X171426333Y-68127523D01*
X171378714Y-68032285D01*
X171331095Y-67841809D01*
X171331095Y-67698952D01*
X171378714Y-67508476D01*
X171426333Y-67413238D01*
X171521571Y-67318000D01*
X171664428Y-67270380D01*
X171759666Y-67270380D01*
X171902523Y-67318000D01*
X171950142Y-67365619D01*
X172331095Y-67365619D02*
X172378714Y-67318000D01*
X172473952Y-67270380D01*
X172712047Y-67270380D01*
X172807285Y-67318000D01*
X172854904Y-67365619D01*
X172902523Y-67460857D01*
X172902523Y-67556095D01*
X172854904Y-67698952D01*
X172283476Y-68270380D01*
X172902523Y-68270380D01*
X173807285Y-67270380D02*
X173331095Y-67270380D01*
X173283476Y-67746571D01*
X173331095Y-67698952D01*
X173426333Y-67651333D01*
X173664428Y-67651333D01*
X173759666Y-67698952D01*
X173807285Y-67746571D01*
X173854904Y-67841809D01*
X173854904Y-68079904D01*
X173807285Y-68175142D01*
X173759666Y-68222761D01*
X173664428Y-68270380D01*
X173426333Y-68270380D01*
X173331095Y-68222761D01*
X173283476Y-68175142D01*
X194963642Y-113758142D02*
X194916023Y-113805761D01*
X194773166Y-113853380D01*
X194677928Y-113853380D01*
X194535071Y-113805761D01*
X194439833Y-113710523D01*
X194392214Y-113615285D01*
X194344595Y-113424809D01*
X194344595Y-113281952D01*
X194392214Y-113091476D01*
X194439833Y-112996238D01*
X194535071Y-112901000D01*
X194677928Y-112853380D01*
X194773166Y-112853380D01*
X194916023Y-112901000D01*
X194963642Y-112948619D01*
X195344595Y-112948619D02*
X195392214Y-112901000D01*
X195487452Y-112853380D01*
X195725547Y-112853380D01*
X195820785Y-112901000D01*
X195868404Y-112948619D01*
X195916023Y-113043857D01*
X195916023Y-113139095D01*
X195868404Y-113281952D01*
X195296976Y-113853380D01*
X195916023Y-113853380D01*
X196773166Y-113186714D02*
X196773166Y-113853380D01*
X196535071Y-112805761D02*
X196296976Y-113520047D01*
X196916023Y-113520047D01*
X176268142Y-67700142D02*
X176220523Y-67747761D01*
X176077666Y-67795380D01*
X175982428Y-67795380D01*
X175839571Y-67747761D01*
X175744333Y-67652523D01*
X175696714Y-67557285D01*
X175649095Y-67366809D01*
X175649095Y-67223952D01*
X175696714Y-67033476D01*
X175744333Y-66938238D01*
X175839571Y-66843000D01*
X175982428Y-66795380D01*
X176077666Y-66795380D01*
X176220523Y-66843000D01*
X176268142Y-66890619D01*
X176649095Y-66890619D02*
X176696714Y-66843000D01*
X176791952Y-66795380D01*
X177030047Y-66795380D01*
X177125285Y-66843000D01*
X177172904Y-66890619D01*
X177220523Y-66985857D01*
X177220523Y-67081095D01*
X177172904Y-67223952D01*
X176601476Y-67795380D01*
X177220523Y-67795380D01*
X177553857Y-66795380D02*
X178172904Y-66795380D01*
X177839571Y-67176333D01*
X177982428Y-67176333D01*
X178077666Y-67223952D01*
X178125285Y-67271571D01*
X178172904Y-67366809D01*
X178172904Y-67604904D01*
X178125285Y-67700142D01*
X178077666Y-67747761D01*
X177982428Y-67795380D01*
X177696714Y-67795380D01*
X177601476Y-67747761D01*
X177553857Y-67700142D01*
X194963642Y-110710142D02*
X194916023Y-110757761D01*
X194773166Y-110805380D01*
X194677928Y-110805380D01*
X194535071Y-110757761D01*
X194439833Y-110662523D01*
X194392214Y-110567285D01*
X194344595Y-110376809D01*
X194344595Y-110233952D01*
X194392214Y-110043476D01*
X194439833Y-109948238D01*
X194535071Y-109853000D01*
X194677928Y-109805380D01*
X194773166Y-109805380D01*
X194916023Y-109853000D01*
X194963642Y-109900619D01*
X195344595Y-109900619D02*
X195392214Y-109853000D01*
X195487452Y-109805380D01*
X195725547Y-109805380D01*
X195820785Y-109853000D01*
X195868404Y-109900619D01*
X195916023Y-109995857D01*
X195916023Y-110091095D01*
X195868404Y-110233952D01*
X195296976Y-110805380D01*
X195916023Y-110805380D01*
X196296976Y-109900619D02*
X196344595Y-109853000D01*
X196439833Y-109805380D01*
X196677928Y-109805380D01*
X196773166Y-109853000D01*
X196820785Y-109900619D01*
X196868404Y-109995857D01*
X196868404Y-110091095D01*
X196820785Y-110233952D01*
X196249357Y-110805380D01*
X196868404Y-110805380D01*
X176268142Y-64906142D02*
X176220523Y-64953761D01*
X176077666Y-65001380D01*
X175982428Y-65001380D01*
X175839571Y-64953761D01*
X175744333Y-64858523D01*
X175696714Y-64763285D01*
X175649095Y-64572809D01*
X175649095Y-64429952D01*
X175696714Y-64239476D01*
X175744333Y-64144238D01*
X175839571Y-64049000D01*
X175982428Y-64001380D01*
X176077666Y-64001380D01*
X176220523Y-64049000D01*
X176268142Y-64096619D01*
X176649095Y-64096619D02*
X176696714Y-64049000D01*
X176791952Y-64001380D01*
X177030047Y-64001380D01*
X177125285Y-64049000D01*
X177172904Y-64096619D01*
X177220523Y-64191857D01*
X177220523Y-64287095D01*
X177172904Y-64429952D01*
X176601476Y-65001380D01*
X177220523Y-65001380D01*
X178172904Y-65001380D02*
X177601476Y-65001380D01*
X177887190Y-65001380D02*
X177887190Y-64001380D01*
X177791952Y-64144238D01*
X177696714Y-64239476D01*
X177601476Y-64287095D01*
X194238642Y-106995142D02*
X194191023Y-107042761D01*
X194048166Y-107090380D01*
X193952928Y-107090380D01*
X193810071Y-107042761D01*
X193714833Y-106947523D01*
X193667214Y-106852285D01*
X193619595Y-106661809D01*
X193619595Y-106518952D01*
X193667214Y-106328476D01*
X193714833Y-106233238D01*
X193810071Y-106138000D01*
X193952928Y-106090380D01*
X194048166Y-106090380D01*
X194191023Y-106138000D01*
X194238642Y-106185619D01*
X194619595Y-106185619D02*
X194667214Y-106138000D01*
X194762452Y-106090380D01*
X195000547Y-106090380D01*
X195095785Y-106138000D01*
X195143404Y-106185619D01*
X195191023Y-106280857D01*
X195191023Y-106376095D01*
X195143404Y-106518952D01*
X194571976Y-107090380D01*
X195191023Y-107090380D01*
X195810071Y-106090380D02*
X195905309Y-106090380D01*
X196000547Y-106138000D01*
X196048166Y-106185619D01*
X196095785Y-106280857D01*
X196143404Y-106471333D01*
X196143404Y-106709428D01*
X196095785Y-106899904D01*
X196048166Y-106995142D01*
X196000547Y-107042761D01*
X195905309Y-107090380D01*
X195810071Y-107090380D01*
X195714833Y-107042761D01*
X195667214Y-106995142D01*
X195619595Y-106899904D01*
X195571976Y-106709428D01*
X195571976Y-106471333D01*
X195619595Y-106280857D01*
X195667214Y-106185619D01*
X195714833Y-106138000D01*
X195810071Y-106090380D01*
X175506142Y-61190142D02*
X175458523Y-61237761D01*
X175315666Y-61285380D01*
X175220428Y-61285380D01*
X175077571Y-61237761D01*
X174982333Y-61142523D01*
X174934714Y-61047285D01*
X174887095Y-60856809D01*
X174887095Y-60713952D01*
X174934714Y-60523476D01*
X174982333Y-60428238D01*
X175077571Y-60333000D01*
X175220428Y-60285380D01*
X175315666Y-60285380D01*
X175458523Y-60333000D01*
X175506142Y-60380619D01*
X176458523Y-61285380D02*
X175887095Y-61285380D01*
X176172809Y-61285380D02*
X176172809Y-60285380D01*
X176077571Y-60428238D01*
X175982333Y-60523476D01*
X175887095Y-60571095D01*
X176934714Y-61285380D02*
X177125190Y-61285380D01*
X177220428Y-61237761D01*
X177268047Y-61190142D01*
X177363285Y-61047285D01*
X177410904Y-60856809D01*
X177410904Y-60475857D01*
X177363285Y-60380619D01*
X177315666Y-60333000D01*
X177220428Y-60285380D01*
X177029952Y-60285380D01*
X176934714Y-60333000D01*
X176887095Y-60380619D01*
X176839476Y-60475857D01*
X176839476Y-60713952D01*
X176887095Y-60809190D01*
X176934714Y-60856809D01*
X177029952Y-60904428D01*
X177220428Y-60904428D01*
X177315666Y-60856809D01*
X177363285Y-60809190D01*
X177410904Y-60713952D01*
X149090142Y-67286142D02*
X149042523Y-67333761D01*
X148899666Y-67381380D01*
X148804428Y-67381380D01*
X148661571Y-67333761D01*
X148566333Y-67238523D01*
X148518714Y-67143285D01*
X148471095Y-66952809D01*
X148471095Y-66809952D01*
X148518714Y-66619476D01*
X148566333Y-66524238D01*
X148661571Y-66429000D01*
X148804428Y-66381380D01*
X148899666Y-66381380D01*
X149042523Y-66429000D01*
X149090142Y-66476619D01*
X150042523Y-67381380D02*
X149471095Y-67381380D01*
X149756809Y-67381380D02*
X149756809Y-66381380D01*
X149661571Y-66524238D01*
X149566333Y-66619476D01*
X149471095Y-66667095D01*
X150613952Y-66809952D02*
X150518714Y-66762333D01*
X150471095Y-66714714D01*
X150423476Y-66619476D01*
X150423476Y-66571857D01*
X150471095Y-66476619D01*
X150518714Y-66429000D01*
X150613952Y-66381380D01*
X150804428Y-66381380D01*
X150899666Y-66429000D01*
X150947285Y-66476619D01*
X150994904Y-66571857D01*
X150994904Y-66619476D01*
X150947285Y-66714714D01*
X150899666Y-66762333D01*
X150804428Y-66809952D01*
X150613952Y-66809952D01*
X150518714Y-66857571D01*
X150471095Y-66905190D01*
X150423476Y-67000428D01*
X150423476Y-67190904D01*
X150471095Y-67286142D01*
X150518714Y-67333761D01*
X150613952Y-67381380D01*
X150804428Y-67381380D01*
X150899666Y-67333761D01*
X150947285Y-67286142D01*
X150994904Y-67190904D01*
X150994904Y-67000428D01*
X150947285Y-66905190D01*
X150899666Y-66857571D01*
X150804428Y-66809952D01*
X157853142Y-67286142D02*
X157805523Y-67333761D01*
X157662666Y-67381380D01*
X157567428Y-67381380D01*
X157424571Y-67333761D01*
X157329333Y-67238523D01*
X157281714Y-67143285D01*
X157234095Y-66952809D01*
X157234095Y-66809952D01*
X157281714Y-66619476D01*
X157329333Y-66524238D01*
X157424571Y-66429000D01*
X157567428Y-66381380D01*
X157662666Y-66381380D01*
X157805523Y-66429000D01*
X157853142Y-66476619D01*
X158805523Y-67381380D02*
X158234095Y-67381380D01*
X158519809Y-67381380D02*
X158519809Y-66381380D01*
X158424571Y-66524238D01*
X158329333Y-66619476D01*
X158234095Y-66667095D01*
X159138857Y-66381380D02*
X159805523Y-66381380D01*
X159376952Y-67381380D01*
X171569142Y-64450142D02*
X171521523Y-64497761D01*
X171378666Y-64545380D01*
X171283428Y-64545380D01*
X171140571Y-64497761D01*
X171045333Y-64402523D01*
X170997714Y-64307285D01*
X170950095Y-64116809D01*
X170950095Y-63973952D01*
X170997714Y-63783476D01*
X171045333Y-63688238D01*
X171140571Y-63593000D01*
X171283428Y-63545380D01*
X171378666Y-63545380D01*
X171521523Y-63593000D01*
X171569142Y-63640619D01*
X172521523Y-64545380D02*
X171950095Y-64545380D01*
X172235809Y-64545380D02*
X172235809Y-63545380D01*
X172140571Y-63688238D01*
X172045333Y-63783476D01*
X171950095Y-63831095D01*
X173378666Y-63545380D02*
X173188190Y-63545380D01*
X173092952Y-63593000D01*
X173045333Y-63640619D01*
X172950095Y-63783476D01*
X172902476Y-63973952D01*
X172902476Y-64354904D01*
X172950095Y-64450142D01*
X172997714Y-64497761D01*
X173092952Y-64545380D01*
X173283428Y-64545380D01*
X173378666Y-64497761D01*
X173426285Y-64450142D01*
X173473904Y-64354904D01*
X173473904Y-64116809D01*
X173426285Y-64021571D01*
X173378666Y-63973952D01*
X173283428Y-63926333D01*
X173092952Y-63926333D01*
X172997714Y-63973952D01*
X172950095Y-64021571D01*
X172902476Y-64116809D01*
X136263142Y-120019142D02*
X136215523Y-120066761D01*
X136072666Y-120114380D01*
X135977428Y-120114380D01*
X135834571Y-120066761D01*
X135739333Y-119971523D01*
X135691714Y-119876285D01*
X135644095Y-119685809D01*
X135644095Y-119542952D01*
X135691714Y-119352476D01*
X135739333Y-119257238D01*
X135834571Y-119162000D01*
X135977428Y-119114380D01*
X136072666Y-119114380D01*
X136215523Y-119162000D01*
X136263142Y-119209619D01*
X137215523Y-120114380D02*
X136644095Y-120114380D01*
X136929809Y-120114380D02*
X136929809Y-119114380D01*
X136834571Y-119257238D01*
X136739333Y-119352476D01*
X136644095Y-119400095D01*
X138120285Y-119114380D02*
X137644095Y-119114380D01*
X137596476Y-119590571D01*
X137644095Y-119542952D01*
X137739333Y-119495333D01*
X137977428Y-119495333D01*
X138072666Y-119542952D01*
X138120285Y-119590571D01*
X138167904Y-119685809D01*
X138167904Y-119923904D01*
X138120285Y-120019142D01*
X138072666Y-120066761D01*
X137977428Y-120114380D01*
X137739333Y-120114380D01*
X137644095Y-120066761D01*
X137596476Y-120019142D01*
X136263142Y-110113142D02*
X136215523Y-110160761D01*
X136072666Y-110208380D01*
X135977428Y-110208380D01*
X135834571Y-110160761D01*
X135739333Y-110065523D01*
X135691714Y-109970285D01*
X135644095Y-109779809D01*
X135644095Y-109636952D01*
X135691714Y-109446476D01*
X135739333Y-109351238D01*
X135834571Y-109256000D01*
X135977428Y-109208380D01*
X136072666Y-109208380D01*
X136215523Y-109256000D01*
X136263142Y-109303619D01*
X137215523Y-110208380D02*
X136644095Y-110208380D01*
X136929809Y-110208380D02*
X136929809Y-109208380D01*
X136834571Y-109351238D01*
X136739333Y-109446476D01*
X136644095Y-109494095D01*
X138072666Y-109541714D02*
X138072666Y-110208380D01*
X137834571Y-109160761D02*
X137596476Y-109875047D01*
X138215523Y-109875047D01*
X136263142Y-107319142D02*
X136215523Y-107366761D01*
X136072666Y-107414380D01*
X135977428Y-107414380D01*
X135834571Y-107366761D01*
X135739333Y-107271523D01*
X135691714Y-107176285D01*
X135644095Y-106985809D01*
X135644095Y-106842952D01*
X135691714Y-106652476D01*
X135739333Y-106557238D01*
X135834571Y-106462000D01*
X135977428Y-106414380D01*
X136072666Y-106414380D01*
X136215523Y-106462000D01*
X136263142Y-106509619D01*
X137215523Y-107414380D02*
X136644095Y-107414380D01*
X136929809Y-107414380D02*
X136929809Y-106414380D01*
X136834571Y-106557238D01*
X136739333Y-106652476D01*
X136644095Y-106700095D01*
X137548857Y-106414380D02*
X138167904Y-106414380D01*
X137834571Y-106795333D01*
X137977428Y-106795333D01*
X138072666Y-106842952D01*
X138120285Y-106890571D01*
X138167904Y-106985809D01*
X138167904Y-107223904D01*
X138120285Y-107319142D01*
X138072666Y-107366761D01*
X137977428Y-107414380D01*
X137691714Y-107414380D01*
X137596476Y-107366761D01*
X137548857Y-107319142D01*
X154408142Y-109354857D02*
X154455761Y-109402476D01*
X154503380Y-109545333D01*
X154503380Y-109640571D01*
X154455761Y-109783428D01*
X154360523Y-109878666D01*
X154265285Y-109926285D01*
X154074809Y-109973904D01*
X153931952Y-109973904D01*
X153741476Y-109926285D01*
X153646238Y-109878666D01*
X153551000Y-109783428D01*
X153503380Y-109640571D01*
X153503380Y-109545333D01*
X153551000Y-109402476D01*
X153598619Y-109354857D01*
X154503380Y-108402476D02*
X154503380Y-108973904D01*
X154503380Y-108688190D02*
X153503380Y-108688190D01*
X153646238Y-108783428D01*
X153741476Y-108878666D01*
X153789095Y-108973904D01*
X153598619Y-108021523D02*
X153551000Y-107973904D01*
X153503380Y-107878666D01*
X153503380Y-107640571D01*
X153551000Y-107545333D01*
X153598619Y-107497714D01*
X153693857Y-107450095D01*
X153789095Y-107450095D01*
X153931952Y-107497714D01*
X154503380Y-108069142D01*
X154503380Y-107450095D01*
X151581142Y-109354857D02*
X151628761Y-109402476D01*
X151676380Y-109545333D01*
X151676380Y-109640571D01*
X151628761Y-109783428D01*
X151533523Y-109878666D01*
X151438285Y-109926285D01*
X151247809Y-109973904D01*
X151104952Y-109973904D01*
X150914476Y-109926285D01*
X150819238Y-109878666D01*
X150724000Y-109783428D01*
X150676380Y-109640571D01*
X150676380Y-109545333D01*
X150724000Y-109402476D01*
X150771619Y-109354857D01*
X151676380Y-108402476D02*
X151676380Y-108973904D01*
X151676380Y-108688190D02*
X150676380Y-108688190D01*
X150819238Y-108783428D01*
X150914476Y-108878666D01*
X150962095Y-108973904D01*
X151676380Y-107450095D02*
X151676380Y-108021523D01*
X151676380Y-107735809D02*
X150676380Y-107735809D01*
X150819238Y-107831047D01*
X150914476Y-107926285D01*
X150962095Y-108021523D01*
X159043542Y-113018857D02*
X159091161Y-113066476D01*
X159138780Y-113209333D01*
X159138780Y-113304571D01*
X159091161Y-113447428D01*
X158995923Y-113542666D01*
X158900685Y-113590285D01*
X158710209Y-113637904D01*
X158567352Y-113637904D01*
X158376876Y-113590285D01*
X158281638Y-113542666D01*
X158186400Y-113447428D01*
X158138780Y-113304571D01*
X158138780Y-113209333D01*
X158186400Y-113066476D01*
X158234019Y-113018857D01*
X159138780Y-112066476D02*
X159138780Y-112637904D01*
X159138780Y-112352190D02*
X158138780Y-112352190D01*
X158281638Y-112447428D01*
X158376876Y-112542666D01*
X158424495Y-112637904D01*
X158138780Y-111447428D02*
X158138780Y-111352190D01*
X158186400Y-111256952D01*
X158234019Y-111209333D01*
X158329257Y-111161714D01*
X158519733Y-111114095D01*
X158757828Y-111114095D01*
X158948304Y-111161714D01*
X159043542Y-111209333D01*
X159091161Y-111256952D01*
X159138780Y-111352190D01*
X159138780Y-111447428D01*
X159091161Y-111542666D01*
X159043542Y-111590285D01*
X158948304Y-111637904D01*
X158757828Y-111685523D01*
X158519733Y-111685523D01*
X158329257Y-111637904D01*
X158234019Y-111590285D01*
X158186400Y-111542666D01*
X158138780Y-111447428D01*
X158977542Y-116860666D02*
X159025161Y-116908285D01*
X159072780Y-117051142D01*
X159072780Y-117146380D01*
X159025161Y-117289238D01*
X158929923Y-117384476D01*
X158834685Y-117432095D01*
X158644209Y-117479714D01*
X158501352Y-117479714D01*
X158310876Y-117432095D01*
X158215638Y-117384476D01*
X158120400Y-117289238D01*
X158072780Y-117146380D01*
X158072780Y-117051142D01*
X158120400Y-116908285D01*
X158168019Y-116860666D01*
X159072780Y-116384476D02*
X159072780Y-116194000D01*
X159025161Y-116098761D01*
X158977542Y-116051142D01*
X158834685Y-115955904D01*
X158644209Y-115908285D01*
X158263257Y-115908285D01*
X158168019Y-115955904D01*
X158120400Y-116003523D01*
X158072780Y-116098761D01*
X158072780Y-116289238D01*
X158120400Y-116384476D01*
X158168019Y-116432095D01*
X158263257Y-116479714D01*
X158501352Y-116479714D01*
X158596590Y-116432095D01*
X158644209Y-116384476D01*
X158691828Y-116289238D01*
X158691828Y-116098761D01*
X158644209Y-116003523D01*
X158596590Y-115955904D01*
X158501352Y-115908285D01*
X146912542Y-116860666D02*
X146960161Y-116908285D01*
X147007780Y-117051142D01*
X147007780Y-117146380D01*
X146960161Y-117289238D01*
X146864923Y-117384476D01*
X146769685Y-117432095D01*
X146579209Y-117479714D01*
X146436352Y-117479714D01*
X146245876Y-117432095D01*
X146150638Y-117384476D01*
X146055400Y-117289238D01*
X146007780Y-117146380D01*
X146007780Y-117051142D01*
X146055400Y-116908285D01*
X146103019Y-116860666D01*
X146436352Y-116289238D02*
X146388733Y-116384476D01*
X146341114Y-116432095D01*
X146245876Y-116479714D01*
X146198257Y-116479714D01*
X146103019Y-116432095D01*
X146055400Y-116384476D01*
X146007780Y-116289238D01*
X146007780Y-116098761D01*
X146055400Y-116003523D01*
X146103019Y-115955904D01*
X146198257Y-115908285D01*
X146245876Y-115908285D01*
X146341114Y-115955904D01*
X146388733Y-116003523D01*
X146436352Y-116098761D01*
X146436352Y-116289238D01*
X146483971Y-116384476D01*
X146531590Y-116432095D01*
X146626828Y-116479714D01*
X146817304Y-116479714D01*
X146912542Y-116432095D01*
X146960161Y-116384476D01*
X147007780Y-116289238D01*
X147007780Y-116098761D01*
X146960161Y-116003523D01*
X146912542Y-115955904D01*
X146817304Y-115908285D01*
X146626828Y-115908285D01*
X146531590Y-115955904D01*
X146483971Y-116003523D01*
X146436352Y-116098761D01*
X146978542Y-112542666D02*
X147026161Y-112590285D01*
X147073780Y-112733142D01*
X147073780Y-112828380D01*
X147026161Y-112971238D01*
X146930923Y-113066476D01*
X146835685Y-113114095D01*
X146645209Y-113161714D01*
X146502352Y-113161714D01*
X146311876Y-113114095D01*
X146216638Y-113066476D01*
X146121400Y-112971238D01*
X146073780Y-112828380D01*
X146073780Y-112733142D01*
X146121400Y-112590285D01*
X146169019Y-112542666D01*
X146073780Y-112209333D02*
X146073780Y-111542666D01*
X147073780Y-111971238D01*
X116181142Y-108878666D02*
X116228761Y-108926285D01*
X116276380Y-109069142D01*
X116276380Y-109164380D01*
X116228761Y-109307238D01*
X116133523Y-109402476D01*
X116038285Y-109450095D01*
X115847809Y-109497714D01*
X115704952Y-109497714D01*
X115514476Y-109450095D01*
X115419238Y-109402476D01*
X115324000Y-109307238D01*
X115276380Y-109164380D01*
X115276380Y-109069142D01*
X115324000Y-108926285D01*
X115371619Y-108878666D01*
X115276380Y-108021523D02*
X115276380Y-108212000D01*
X115324000Y-108307238D01*
X115371619Y-108354857D01*
X115514476Y-108450095D01*
X115704952Y-108497714D01*
X116085904Y-108497714D01*
X116181142Y-108450095D01*
X116228761Y-108402476D01*
X116276380Y-108307238D01*
X116276380Y-108116761D01*
X116228761Y-108021523D01*
X116181142Y-107973904D01*
X116085904Y-107926285D01*
X115847809Y-107926285D01*
X115752571Y-107973904D01*
X115704952Y-108021523D01*
X115657333Y-108116761D01*
X115657333Y-108307238D01*
X115704952Y-108402476D01*
X115752571Y-108450095D01*
X115847809Y-108497714D01*
X113227142Y-108878666D02*
X113274761Y-108926285D01*
X113322380Y-109069142D01*
X113322380Y-109164380D01*
X113274761Y-109307238D01*
X113179523Y-109402476D01*
X113084285Y-109450095D01*
X112893809Y-109497714D01*
X112750952Y-109497714D01*
X112560476Y-109450095D01*
X112465238Y-109402476D01*
X112370000Y-109307238D01*
X112322380Y-109164380D01*
X112322380Y-109069142D01*
X112370000Y-108926285D01*
X112417619Y-108878666D01*
X112322380Y-107973904D02*
X112322380Y-108450095D01*
X112798571Y-108497714D01*
X112750952Y-108450095D01*
X112703333Y-108354857D01*
X112703333Y-108116761D01*
X112750952Y-108021523D01*
X112798571Y-107973904D01*
X112893809Y-107926285D01*
X113131904Y-107926285D01*
X113227142Y-107973904D01*
X113274761Y-108021523D01*
X113322380Y-108116761D01*
X113322380Y-108354857D01*
X113274761Y-108450095D01*
X113227142Y-108497714D01*
X120918142Y-112542666D02*
X120965761Y-112590285D01*
X121013380Y-112733142D01*
X121013380Y-112828380D01*
X120965761Y-112971238D01*
X120870523Y-113066476D01*
X120775285Y-113114095D01*
X120584809Y-113161714D01*
X120441952Y-113161714D01*
X120251476Y-113114095D01*
X120156238Y-113066476D01*
X120061000Y-112971238D01*
X120013380Y-112828380D01*
X120013380Y-112733142D01*
X120061000Y-112590285D01*
X120108619Y-112542666D01*
X120346714Y-111685523D02*
X121013380Y-111685523D01*
X119965761Y-111923619D02*
X120680047Y-112161714D01*
X120680047Y-111542666D01*
X120852142Y-116860666D02*
X120899761Y-116908285D01*
X120947380Y-117051142D01*
X120947380Y-117146380D01*
X120899761Y-117289238D01*
X120804523Y-117384476D01*
X120709285Y-117432095D01*
X120518809Y-117479714D01*
X120375952Y-117479714D01*
X120185476Y-117432095D01*
X120090238Y-117384476D01*
X119995000Y-117289238D01*
X119947380Y-117146380D01*
X119947380Y-117051142D01*
X119995000Y-116908285D01*
X120042619Y-116860666D01*
X119947380Y-116527333D02*
X119947380Y-115908285D01*
X120328333Y-116241619D01*
X120328333Y-116098761D01*
X120375952Y-116003523D01*
X120423571Y-115955904D01*
X120518809Y-115908285D01*
X120756904Y-115908285D01*
X120852142Y-115955904D01*
X120899761Y-116003523D01*
X120947380Y-116098761D01*
X120947380Y-116384476D01*
X120899761Y-116479714D01*
X120852142Y-116527333D01*
X108787142Y-116860666D02*
X108834761Y-116908285D01*
X108882380Y-117051142D01*
X108882380Y-117146380D01*
X108834761Y-117289238D01*
X108739523Y-117384476D01*
X108644285Y-117432095D01*
X108453809Y-117479714D01*
X108310952Y-117479714D01*
X108120476Y-117432095D01*
X108025238Y-117384476D01*
X107930000Y-117289238D01*
X107882380Y-117146380D01*
X107882380Y-117051142D01*
X107930000Y-116908285D01*
X107977619Y-116860666D01*
X107977619Y-116479714D02*
X107930000Y-116432095D01*
X107882380Y-116336857D01*
X107882380Y-116098761D01*
X107930000Y-116003523D01*
X107977619Y-115955904D01*
X108072857Y-115908285D01*
X108168095Y-115908285D01*
X108310952Y-115955904D01*
X108882380Y-116527333D01*
X108882380Y-115908285D01*
X108853142Y-112542666D02*
X108900761Y-112590285D01*
X108948380Y-112733142D01*
X108948380Y-112828380D01*
X108900761Y-112971238D01*
X108805523Y-113066476D01*
X108710285Y-113114095D01*
X108519809Y-113161714D01*
X108376952Y-113161714D01*
X108186476Y-113114095D01*
X108091238Y-113066476D01*
X107996000Y-112971238D01*
X107948380Y-112828380D01*
X107948380Y-112733142D01*
X107996000Y-112590285D01*
X108043619Y-112542666D01*
X108948380Y-111590285D02*
X108948380Y-112161714D01*
X108948380Y-111876000D02*
X107948380Y-111876000D01*
X108091238Y-111971238D01*
X108186476Y-112066476D01*
X108234095Y-112161714D01*
M02*
