M48
; DRILL file {KiCad (5.1.8)-1} date 12/03/20 10:30:41
; FORMAT={-:-/ absolute / inch / decimal}
; #@! TF.CreationDate,2020-12-03T10:30:41+08:00
; #@! TF.GenerationSoftware,Kicad,Pcbnew,(5.1.8)-1
; #@! TF.FileFunction,Plated,1,2,PTH
FMAT,2
INCH
T1C0.0118
T2C0.0157
T3C0.0197
T4C0.0236
T5C0.0394
T6C0.1260
%
G90
G05
T1
X7.0278Y-4.3799
X7.0278Y-4.4134
X7.0613Y-4.3799
X7.0613Y-4.4134
T2
X4.07Y-2.99
X4.11Y-4.34
X4.18Y-2.99
X4.4323Y-2.2973
X4.47Y-2.265
X4.5091Y-2.44
X4.51Y-2.235
X4.51Y-3.11
X4.54Y-2.41
X4.56Y-4.21
X4.565Y-3.165
X4.5669Y-4.7638
X4.57Y-2.38
X4.57Y-2.99
X4.6Y-2.35
X4.659Y-4.311
X4.69Y-2.54
X4.73Y-4.21
X4.92Y-2.54
X4.975Y-4.82
X4.975Y-4.9213
X5.09Y-4.615
X5.09Y-4.91
X5.105Y-4.4135
X5.135Y-4.615
X5.135Y-4.91
X5.29Y-4.66
X5.29Y-4.79
X5.36Y-3.13
X5.49Y-4.3565
X5.54Y-4.4313
X5.6498Y-4.8252
X5.72Y-4.805
X5.72Y-4.9035
X5.9Y-3.44
X5.9Y-4.04
X6.0236Y-2.9528
X6.063Y-4.7244
X6.07Y-4.21
X6.169Y-4.211
X6.169Y-4.311
X6.4Y-2.9528
X6.4Y-3.44
X6.48Y-4.755
X6.4961Y-2.6378
X6.595Y-4.205
X6.6142Y-4.7244
X6.625Y-4.24
X6.66Y-4.275
X6.6741Y-4.3121
X6.6815Y-4.4175
X6.75Y-4.55
X6.86Y-4.55
X6.9223Y-4.3727
X6.99Y-3.08
X7.18Y-2.86
X7.1875Y-4.21
X7.25Y-3.43
X7.26Y-4.32
X7.275Y-3.03
X7.41Y-3.03
X7.4409Y-3.6614
X7.4409Y-3.7402
X7.4409Y-3.8189
X7.4409Y-3.8976
X7.4409Y-3.9764
X7.52Y-4.05
X7.63Y-3.43
X7.67Y-4.5925
X7.7953Y-4.2126
X7.7953Y-4.2913
X7.7953Y-4.3701
X7.7953Y-4.4488
X7.7953Y-4.5276
T3
X7.5827Y-5.7087
X7.6104Y-5.6418
X7.6104Y-5.7755
X7.6772Y-5.6142
X7.6772Y-5.8031
X7.744Y-5.6418
X7.744Y-5.7755
X7.7717Y-5.7087
X4.0394Y-5.7087
X4.067Y-5.6418
X4.067Y-5.7755
X4.1339Y-5.6142
X4.1339Y-5.8031
X4.2007Y-5.6418
X4.2007Y-5.7755
X4.2283Y-5.7087
X4.0394Y-2.1654
X4.067Y-2.0985
X4.067Y-2.2322
X4.1339Y-2.0709
X4.1339Y-2.2598
X4.2007Y-2.0985
X4.2007Y-2.2322
X4.2283Y-2.1654
X7.5827Y-2.1654
X7.6104Y-2.0985
X7.6104Y-2.2322
X7.6772Y-2.0709
X7.6772Y-2.2598
X7.744Y-2.0985
X7.744Y-2.2322
X7.7717Y-2.1654
T5
X4.51Y-2.13
X4.61Y-2.13
X4.71Y-2.13
X4.81Y-2.13
X4.91Y-2.13
X5.01Y-2.13
X5.11Y-2.13
X5.21Y-2.13
X5.31Y-2.13
X6.9Y-5.6933
X5.7Y-5.6933
X7.19Y-2.555
X7.19Y-2.655
X7.19Y-2.755
X6.5Y-5.6933
X5.215Y-4.51
X4.5Y-5.6933
X6.1Y-5.6933
X5.87Y-2.1304
X5.87Y-2.2304
X5.97Y-2.1304
X5.97Y-2.2304
X6.07Y-2.1304
X6.07Y-2.2304
X6.17Y-2.1304
X6.17Y-2.2304
X6.27Y-2.1304
X6.27Y-2.2304
X4.9Y-5.6933
X7.3Y-5.6933
X6.9Y-2.13
X7.0Y-2.13
X7.1Y-2.13
X7.2Y-2.13
X7.3Y-2.13
X5.215Y-4.2998
X5.215Y-4.7198
X5.3Y-5.6933
T6
X4.1339Y-2.1654
X7.6772Y-2.1654
X7.6772Y-5.7087
X4.1339Y-5.7087
T3
G00X7.1283Y-3.5926
M15
G01X7.1717Y-3.5926
M16
G05
G00X5.1283Y-5.0213
M15
G01X5.1717Y-5.0213
M16
G05
G00X6.1283Y-3.5926
M15
G01X6.1717Y-3.5926
M16
G05
G00X4.6283Y-5.0213
M15
G01X4.6717Y-5.0213
M16
G05
G00X4.1283Y-5.0213
M15
G01X4.1717Y-5.0213
M16
G05
G00X6.1283Y-5.0213
M15
G01X6.1717Y-5.0213
M16
G05
G00X5.6283Y-3.5926
M15
G01X5.6717Y-3.5926
M16
G05
G00X5.6283Y-5.0213
M15
G01X5.6717Y-5.0213
M16
G05
G00X7.6283Y-5.0213
M15
G01X7.6717Y-5.0213
M16
G05
G00X7.6283Y-3.5926
M15
G01X7.6717Y-3.5926
M16
G05
G00X6.6283Y-5.0213
M15
G01X6.6717Y-5.0213
M16
G05
G00X7.1283Y-5.0213
M15
G01X7.1717Y-5.0213
M16
G05
G00X4.6283Y-3.5926
M15
G01X4.6717Y-3.5926
M16
G05
G00X4.1283Y-3.5926
M15
G01X4.1717Y-3.5926
M16
G05
G00X6.6283Y-3.5926
M15
G01X6.6717Y-3.5926
M16
G05
G00X5.1283Y-3.5926
M15
G01X5.1717Y-3.5926
M16
G05
T4
G00X5.1303Y-5.348
M15
G01X5.1697Y-5.348
M16
G05
G00X5.1343Y-5.4701
M15
G01X5.1657Y-5.4701
M16
G05
G00X6.1303Y-3.9194
M15
G01X6.1697Y-3.9194
M16
G05
G00X6.1343Y-4.0414
M15
G01X6.1657Y-4.0414
M16
G05
G00X4.6303Y-5.348
M15
G01X4.6697Y-5.348
M16
G05
G00X4.6343Y-5.4701
M15
G01X4.6657Y-5.4701
M16
G05
G00X4.1303Y-5.348
M15
G01X4.1697Y-5.348
M16
G05
G00X4.1343Y-5.4701
M15
G01X4.1657Y-5.4701
M16
G05
G00X6.1303Y-5.348
M15
G01X6.1697Y-5.348
M16
G05
G00X6.1343Y-5.4701
M15
G01X6.1657Y-5.4701
M16
G05
G00X5.6303Y-3.9194
M15
G01X5.6697Y-3.9194
M16
G05
G00X5.6343Y-4.0414
M15
G01X5.6657Y-4.0414
M16
G05
G00X5.6303Y-5.348
M15
G01X5.6697Y-5.348
M16
G05
G00X5.6343Y-5.4701
M15
G01X5.6657Y-5.4701
M16
G05
G00X7.6303Y-5.348
M15
G01X7.6697Y-5.348
M16
G05
G00X7.6343Y-5.4701
M15
G01X7.6657Y-5.4701
M16
G05
G00X7.6303Y-3.9194
M15
G01X7.6697Y-3.9194
M16
G05
G00X7.6343Y-4.0414
M15
G01X7.6657Y-4.0414
M16
G05
G00X6.6303Y-5.348
M15
G01X6.6697Y-5.348
M16
G05
G00X6.6343Y-5.4701
M15
G01X6.6657Y-5.4701
M16
G05
G00X7.1303Y-5.348
M15
G01X7.1697Y-5.348
M16
G05
G00X7.1343Y-5.4701
M15
G01X7.1657Y-5.4701
M16
G05
G00X4.6303Y-3.9194
M15
G01X4.6697Y-3.9194
M16
G05
G00X4.6343Y-4.0414
M15
G01X4.6657Y-4.0414
M16
G05
G00X4.1303Y-3.9194
M15
G01X4.1697Y-3.9194
M16
G05
G00X4.1343Y-4.0414
M15
G01X4.1657Y-4.0414
M16
G05
G00X6.6303Y-3.9194
M15
G01X6.6697Y-3.9194
M16
G05
G00X6.6343Y-4.0414
M15
G01X6.6657Y-4.0414
M16
G05
G00X5.1303Y-3.9194
M15
G01X5.1697Y-3.9194
M16
G05
G00X5.1343Y-4.0414
M15
G01X5.1657Y-4.0414
M16
G05
G00X7.1303Y-3.9194
M15
G01X7.1697Y-3.9194
M16
G05
G00X7.1343Y-4.0414
M15
G01X7.1657Y-4.0414
M16
G05
T0
M30
