G04 #@! TF.GenerationSoftware,KiCad,Pcbnew,(5.1.8)-1*
G04 #@! TF.CreationDate,2020-12-03T10:30:46+08:00*
G04 #@! TF.ProjectId,ProtoCV,50726f74-6f43-4562-9e6b-696361645f70,rev?*
G04 #@! TF.SameCoordinates,Original*
G04 #@! TF.FileFunction,Paste,Top*
G04 #@! TF.FilePolarity,Positive*
%FSLAX46Y46*%
G04 Gerber Fmt 4.6, Leading zero omitted, Abs format (unit mm)*
G04 Created by KiCad (PCBNEW (5.1.8)-1) date 2020-12-03 10:30:46*
%MOMM*%
%LPD*%
G01*
G04 APERTURE LIST*
%ADD10C,0.100000*%
%ADD11R,0.900000X1.300000*%
%ADD12R,1.450000X0.450000*%
%ADD13R,1.840000X2.200000*%
%ADD14R,1.500000X1.000000*%
%ADD15R,1.800000X1.000000*%
%ADD16R,0.800000X0.900000*%
%ADD17R,1.050000X1.500000*%
%ADD18R,2.400000X1.500000*%
G04 APERTURE END LIST*
D10*
G36*
X134153500Y-67395000D02*
G01*
X134153500Y-70520000D01*
X133737000Y-70520000D01*
X133737000Y-71995000D01*
X132837000Y-71995000D01*
X132837000Y-70520000D01*
X132420500Y-70520000D01*
X132420500Y-67395000D01*
X134153500Y-67395000D01*
G37*
D11*
X134787000Y-71345000D03*
X131787000Y-71345000D03*
G36*
G01*
X179134000Y-111000000D02*
X179449000Y-111000000D01*
G75*
G02*
X179606500Y-111157500I0J-157500D01*
G01*
X179606500Y-111472500D01*
G75*
G02*
X179449000Y-111630000I-157500J0D01*
G01*
X179134000Y-111630000D01*
G75*
G02*
X178976500Y-111472500I0J157500D01*
G01*
X178976500Y-111157500D01*
G75*
G02*
X179134000Y-111000000I157500J0D01*
G01*
G37*
G36*
G01*
X178414000Y-111000000D02*
X178729000Y-111000000D01*
G75*
G02*
X178886500Y-111157500I0J-157500D01*
G01*
X178886500Y-111472500D01*
G75*
G02*
X178729000Y-111630000I-157500J0D01*
G01*
X178414000Y-111630000D01*
G75*
G02*
X178256500Y-111472500I0J157500D01*
G01*
X178256500Y-111157500D01*
G75*
G02*
X178414000Y-111000000I157500J0D01*
G01*
G37*
G36*
G01*
X179134000Y-111720000D02*
X179449000Y-111720000D01*
G75*
G02*
X179606500Y-111877500I0J-157500D01*
G01*
X179606500Y-112192500D01*
G75*
G02*
X179449000Y-112350000I-157500J0D01*
G01*
X179134000Y-112350000D01*
G75*
G02*
X178976500Y-112192500I0J157500D01*
G01*
X178976500Y-111877500D01*
G75*
G02*
X179134000Y-111720000I157500J0D01*
G01*
G37*
G36*
G01*
X178414000Y-111720000D02*
X178729000Y-111720000D01*
G75*
G02*
X178886500Y-111877500I0J-157500D01*
G01*
X178886500Y-112192500D01*
G75*
G02*
X178729000Y-112350000I-157500J0D01*
G01*
X178414000Y-112350000D01*
G75*
G02*
X178256500Y-112192500I0J157500D01*
G01*
X178256500Y-111877500D01*
G75*
G02*
X178414000Y-111720000I157500J0D01*
G01*
G37*
G36*
G01*
X179619000Y-109800000D02*
X179744000Y-109800000D01*
G75*
G02*
X179806500Y-109862500I0J-62500D01*
G01*
X179806500Y-110612500D01*
G75*
G02*
X179744000Y-110675000I-62500J0D01*
G01*
X179619000Y-110675000D01*
G75*
G02*
X179556500Y-110612500I0J62500D01*
G01*
X179556500Y-109862500D01*
G75*
G02*
X179619000Y-109800000I62500J0D01*
G01*
G37*
G36*
G01*
X179119000Y-109800000D02*
X179244000Y-109800000D01*
G75*
G02*
X179306500Y-109862500I0J-62500D01*
G01*
X179306500Y-110612500D01*
G75*
G02*
X179244000Y-110675000I-62500J0D01*
G01*
X179119000Y-110675000D01*
G75*
G02*
X179056500Y-110612500I0J62500D01*
G01*
X179056500Y-109862500D01*
G75*
G02*
X179119000Y-109800000I62500J0D01*
G01*
G37*
G36*
G01*
X178619000Y-109800000D02*
X178744000Y-109800000D01*
G75*
G02*
X178806500Y-109862500I0J-62500D01*
G01*
X178806500Y-110612500D01*
G75*
G02*
X178744000Y-110675000I-62500J0D01*
G01*
X178619000Y-110675000D01*
G75*
G02*
X178556500Y-110612500I0J62500D01*
G01*
X178556500Y-109862500D01*
G75*
G02*
X178619000Y-109800000I62500J0D01*
G01*
G37*
G36*
G01*
X178119000Y-109800000D02*
X178244000Y-109800000D01*
G75*
G02*
X178306500Y-109862500I0J-62500D01*
G01*
X178306500Y-110612500D01*
G75*
G02*
X178244000Y-110675000I-62500J0D01*
G01*
X178119000Y-110675000D01*
G75*
G02*
X178056500Y-110612500I0J62500D01*
G01*
X178056500Y-109862500D01*
G75*
G02*
X178119000Y-109800000I62500J0D01*
G01*
G37*
G36*
G01*
X177119000Y-110800000D02*
X177869000Y-110800000D01*
G75*
G02*
X177931500Y-110862500I0J-62500D01*
G01*
X177931500Y-110987500D01*
G75*
G02*
X177869000Y-111050000I-62500J0D01*
G01*
X177119000Y-111050000D01*
G75*
G02*
X177056500Y-110987500I0J62500D01*
G01*
X177056500Y-110862500D01*
G75*
G02*
X177119000Y-110800000I62500J0D01*
G01*
G37*
G36*
G01*
X177119000Y-111300000D02*
X177869000Y-111300000D01*
G75*
G02*
X177931500Y-111362500I0J-62500D01*
G01*
X177931500Y-111487500D01*
G75*
G02*
X177869000Y-111550000I-62500J0D01*
G01*
X177119000Y-111550000D01*
G75*
G02*
X177056500Y-111487500I0J62500D01*
G01*
X177056500Y-111362500D01*
G75*
G02*
X177119000Y-111300000I62500J0D01*
G01*
G37*
G36*
G01*
X177119000Y-111800000D02*
X177869000Y-111800000D01*
G75*
G02*
X177931500Y-111862500I0J-62500D01*
G01*
X177931500Y-111987500D01*
G75*
G02*
X177869000Y-112050000I-62500J0D01*
G01*
X177119000Y-112050000D01*
G75*
G02*
X177056500Y-111987500I0J62500D01*
G01*
X177056500Y-111862500D01*
G75*
G02*
X177119000Y-111800000I62500J0D01*
G01*
G37*
G36*
G01*
X177119000Y-112300000D02*
X177869000Y-112300000D01*
G75*
G02*
X177931500Y-112362500I0J-62500D01*
G01*
X177931500Y-112487500D01*
G75*
G02*
X177869000Y-112550000I-62500J0D01*
G01*
X177119000Y-112550000D01*
G75*
G02*
X177056500Y-112487500I0J62500D01*
G01*
X177056500Y-112362500D01*
G75*
G02*
X177119000Y-112300000I62500J0D01*
G01*
G37*
G36*
G01*
X178119000Y-112675000D02*
X178244000Y-112675000D01*
G75*
G02*
X178306500Y-112737500I0J-62500D01*
G01*
X178306500Y-113487500D01*
G75*
G02*
X178244000Y-113550000I-62500J0D01*
G01*
X178119000Y-113550000D01*
G75*
G02*
X178056500Y-113487500I0J62500D01*
G01*
X178056500Y-112737500D01*
G75*
G02*
X178119000Y-112675000I62500J0D01*
G01*
G37*
G36*
G01*
X178619000Y-112675000D02*
X178744000Y-112675000D01*
G75*
G02*
X178806500Y-112737500I0J-62500D01*
G01*
X178806500Y-113487500D01*
G75*
G02*
X178744000Y-113550000I-62500J0D01*
G01*
X178619000Y-113550000D01*
G75*
G02*
X178556500Y-113487500I0J62500D01*
G01*
X178556500Y-112737500D01*
G75*
G02*
X178619000Y-112675000I62500J0D01*
G01*
G37*
G36*
G01*
X179119000Y-112675000D02*
X179244000Y-112675000D01*
G75*
G02*
X179306500Y-112737500I0J-62500D01*
G01*
X179306500Y-113487500D01*
G75*
G02*
X179244000Y-113550000I-62500J0D01*
G01*
X179119000Y-113550000D01*
G75*
G02*
X179056500Y-113487500I0J62500D01*
G01*
X179056500Y-112737500D01*
G75*
G02*
X179119000Y-112675000I62500J0D01*
G01*
G37*
G36*
G01*
X179619000Y-112675000D02*
X179744000Y-112675000D01*
G75*
G02*
X179806500Y-112737500I0J-62500D01*
G01*
X179806500Y-113487500D01*
G75*
G02*
X179744000Y-113550000I-62500J0D01*
G01*
X179619000Y-113550000D01*
G75*
G02*
X179556500Y-113487500I0J62500D01*
G01*
X179556500Y-112737500D01*
G75*
G02*
X179619000Y-112675000I62500J0D01*
G01*
G37*
G36*
G01*
X179994000Y-112300000D02*
X180744000Y-112300000D01*
G75*
G02*
X180806500Y-112362500I0J-62500D01*
G01*
X180806500Y-112487500D01*
G75*
G02*
X180744000Y-112550000I-62500J0D01*
G01*
X179994000Y-112550000D01*
G75*
G02*
X179931500Y-112487500I0J62500D01*
G01*
X179931500Y-112362500D01*
G75*
G02*
X179994000Y-112300000I62500J0D01*
G01*
G37*
G36*
G01*
X179994000Y-111800000D02*
X180744000Y-111800000D01*
G75*
G02*
X180806500Y-111862500I0J-62500D01*
G01*
X180806500Y-111987500D01*
G75*
G02*
X180744000Y-112050000I-62500J0D01*
G01*
X179994000Y-112050000D01*
G75*
G02*
X179931500Y-111987500I0J62500D01*
G01*
X179931500Y-111862500D01*
G75*
G02*
X179994000Y-111800000I62500J0D01*
G01*
G37*
G36*
G01*
X179994000Y-111300000D02*
X180744000Y-111300000D01*
G75*
G02*
X180806500Y-111362500I0J-62500D01*
G01*
X180806500Y-111487500D01*
G75*
G02*
X180744000Y-111550000I-62500J0D01*
G01*
X179994000Y-111550000D01*
G75*
G02*
X179931500Y-111487500I0J62500D01*
G01*
X179931500Y-111362500D01*
G75*
G02*
X179994000Y-111300000I62500J0D01*
G01*
G37*
G36*
G01*
X179994000Y-110800000D02*
X180744000Y-110800000D01*
G75*
G02*
X180806500Y-110862500I0J-62500D01*
G01*
X180806500Y-110987500D01*
G75*
G02*
X180744000Y-111050000I-62500J0D01*
G01*
X179994000Y-111050000D01*
G75*
G02*
X179931500Y-110987500I0J62500D01*
G01*
X179931500Y-110862500D01*
G75*
G02*
X179994000Y-110800000I62500J0D01*
G01*
G37*
G36*
G01*
X173898850Y-113341900D02*
X174411350Y-113341900D01*
G75*
G02*
X174630100Y-113560650I0J-218750D01*
G01*
X174630100Y-113998150D01*
G75*
G02*
X174411350Y-114216900I-218750J0D01*
G01*
X173898850Y-114216900D01*
G75*
G02*
X173680100Y-113998150I0J218750D01*
G01*
X173680100Y-113560650D01*
G75*
G02*
X173898850Y-113341900I218750J0D01*
G01*
G37*
G36*
G01*
X173898850Y-111766900D02*
X174411350Y-111766900D01*
G75*
G02*
X174630100Y-111985650I0J-218750D01*
G01*
X174630100Y-112423150D01*
G75*
G02*
X174411350Y-112641900I-218750J0D01*
G01*
X173898850Y-112641900D01*
G75*
G02*
X173680100Y-112423150I0J218750D01*
G01*
X173680100Y-111985650D01*
G75*
G02*
X173898850Y-111766900I218750J0D01*
G01*
G37*
G36*
G01*
X172154000Y-62813250D02*
X172154000Y-61900750D01*
G75*
G02*
X172397750Y-61657000I243750J0D01*
G01*
X172885250Y-61657000D01*
G75*
G02*
X173129000Y-61900750I0J-243750D01*
G01*
X173129000Y-62813250D01*
G75*
G02*
X172885250Y-63057000I-243750J0D01*
G01*
X172397750Y-63057000D01*
G75*
G02*
X172154000Y-62813250I0J243750D01*
G01*
G37*
G36*
G01*
X170279000Y-62813250D02*
X170279000Y-61900750D01*
G75*
G02*
X170522750Y-61657000I243750J0D01*
G01*
X171010250Y-61657000D01*
G75*
G02*
X171254000Y-61900750I0J-243750D01*
G01*
X171254000Y-62813250D01*
G75*
G02*
X171010250Y-63057000I-243750J0D01*
G01*
X170522750Y-63057000D01*
G75*
G02*
X170279000Y-62813250I0J243750D01*
G01*
G37*
D12*
X109318000Y-72013000D03*
X109318000Y-71363000D03*
X109318000Y-70713000D03*
X109318000Y-70063000D03*
X109318000Y-69413000D03*
X109318000Y-68763000D03*
X109318000Y-68113000D03*
X109318000Y-67463000D03*
X109318000Y-66813000D03*
X109318000Y-66163000D03*
X115218000Y-66163000D03*
X115218000Y-66813000D03*
X115218000Y-67463000D03*
X115218000Y-68113000D03*
X115218000Y-68763000D03*
X115218000Y-69413000D03*
X115218000Y-70063000D03*
X115218000Y-70713000D03*
X115218000Y-71363000D03*
X115218000Y-72013000D03*
D10*
G36*
X189810700Y-112207000D02*
G01*
X190810700Y-112907000D01*
X190810700Y-113707000D01*
X189810700Y-114407000D01*
X189810700Y-112207000D01*
G37*
D13*
X188901000Y-113307000D03*
D14*
X191714500Y-111807000D03*
D15*
X191568000Y-113307000D03*
D14*
X191714500Y-114807000D03*
D10*
G36*
X187992500Y-114407000D02*
G01*
X187142500Y-113807000D01*
X187142500Y-112807000D01*
X187992500Y-112207000D01*
X187992500Y-114407000D01*
G37*
D12*
X156904400Y-112966000D03*
X156904400Y-113616000D03*
X156904400Y-114266000D03*
X156904400Y-114916000D03*
X156904400Y-115566000D03*
X156904400Y-116216000D03*
X156904400Y-116866000D03*
X151004400Y-116866000D03*
X151004400Y-116216000D03*
X151004400Y-115566000D03*
X151004400Y-114916000D03*
X151004400Y-114266000D03*
X151004400Y-113616000D03*
X151004400Y-112966000D03*
X118779000Y-112966000D03*
X118779000Y-113616000D03*
X118779000Y-114266000D03*
X118779000Y-114916000D03*
X118779000Y-115566000D03*
X118779000Y-116216000D03*
X118779000Y-116866000D03*
X112879000Y-116866000D03*
X112879000Y-116216000D03*
X112879000Y-115566000D03*
X112879000Y-114916000D03*
X112879000Y-114266000D03*
X112879000Y-113616000D03*
X112879000Y-112966000D03*
G36*
G01*
X191562000Y-82039750D02*
X191562000Y-82552250D01*
G75*
G02*
X191343250Y-82771000I-218750J0D01*
G01*
X190905750Y-82771000D01*
G75*
G02*
X190687000Y-82552250I0J218750D01*
G01*
X190687000Y-82039750D01*
G75*
G02*
X190905750Y-81821000I218750J0D01*
G01*
X191343250Y-81821000D01*
G75*
G02*
X191562000Y-82039750I0J-218750D01*
G01*
G37*
G36*
G01*
X193137000Y-82039750D02*
X193137000Y-82552250D01*
G75*
G02*
X192918250Y-82771000I-218750J0D01*
G01*
X192480750Y-82771000D01*
G75*
G02*
X192262000Y-82552250I0J218750D01*
G01*
X192262000Y-82039750D01*
G75*
G02*
X192480750Y-81821000I218750J0D01*
G01*
X192918250Y-81821000D01*
G75*
G02*
X193137000Y-82039750I0J-218750D01*
G01*
G37*
G36*
G01*
X178754000Y-82166750D02*
X178754000Y-82679250D01*
G75*
G02*
X178535250Y-82898000I-218750J0D01*
G01*
X178097750Y-82898000D01*
G75*
G02*
X177879000Y-82679250I0J218750D01*
G01*
X177879000Y-82166750D01*
G75*
G02*
X178097750Y-81948000I218750J0D01*
G01*
X178535250Y-81948000D01*
G75*
G02*
X178754000Y-82166750I0J-218750D01*
G01*
G37*
G36*
G01*
X180329000Y-82166750D02*
X180329000Y-82679250D01*
G75*
G02*
X180110250Y-82898000I-218750J0D01*
G01*
X179672750Y-82898000D01*
G75*
G02*
X179454000Y-82679250I0J218750D01*
G01*
X179454000Y-82166750D01*
G75*
G02*
X179672750Y-81948000I218750J0D01*
G01*
X180110250Y-81948000D01*
G75*
G02*
X180329000Y-82166750I0J-218750D01*
G01*
G37*
G36*
G01*
X165927000Y-82039750D02*
X165927000Y-82552250D01*
G75*
G02*
X165708250Y-82771000I-218750J0D01*
G01*
X165270750Y-82771000D01*
G75*
G02*
X165052000Y-82552250I0J218750D01*
G01*
X165052000Y-82039750D01*
G75*
G02*
X165270750Y-81821000I218750J0D01*
G01*
X165708250Y-81821000D01*
G75*
G02*
X165927000Y-82039750I0J-218750D01*
G01*
G37*
G36*
G01*
X167502000Y-82039750D02*
X167502000Y-82552250D01*
G75*
G02*
X167283250Y-82771000I-218750J0D01*
G01*
X166845750Y-82771000D01*
G75*
G02*
X166627000Y-82552250I0J218750D01*
G01*
X166627000Y-82039750D01*
G75*
G02*
X166845750Y-81821000I218750J0D01*
G01*
X167283250Y-81821000D01*
G75*
G02*
X167502000Y-82039750I0J-218750D01*
G01*
G37*
G36*
G01*
X153214000Y-81785750D02*
X153214000Y-82298250D01*
G75*
G02*
X152995250Y-82517000I-218750J0D01*
G01*
X152557750Y-82517000D01*
G75*
G02*
X152339000Y-82298250I0J218750D01*
G01*
X152339000Y-81785750D01*
G75*
G02*
X152557750Y-81567000I218750J0D01*
G01*
X152995250Y-81567000D01*
G75*
G02*
X153214000Y-81785750I0J-218750D01*
G01*
G37*
G36*
G01*
X154789000Y-81785750D02*
X154789000Y-82298250D01*
G75*
G02*
X154570250Y-82517000I-218750J0D01*
G01*
X154132750Y-82517000D01*
G75*
G02*
X153914000Y-82298250I0J218750D01*
G01*
X153914000Y-81785750D01*
G75*
G02*
X154132750Y-81567000I218750J0D01*
G01*
X154570250Y-81567000D01*
G75*
G02*
X154789000Y-81785750I0J-218750D01*
G01*
G37*
G36*
G01*
X140654000Y-82039750D02*
X140654000Y-82552250D01*
G75*
G02*
X140435250Y-82771000I-218750J0D01*
G01*
X139997750Y-82771000D01*
G75*
G02*
X139779000Y-82552250I0J218750D01*
G01*
X139779000Y-82039750D01*
G75*
G02*
X139997750Y-81821000I218750J0D01*
G01*
X140435250Y-81821000D01*
G75*
G02*
X140654000Y-82039750I0J-218750D01*
G01*
G37*
G36*
G01*
X142229000Y-82039750D02*
X142229000Y-82552250D01*
G75*
G02*
X142010250Y-82771000I-218750J0D01*
G01*
X141572750Y-82771000D01*
G75*
G02*
X141354000Y-82552250I0J218750D01*
G01*
X141354000Y-82039750D01*
G75*
G02*
X141572750Y-81821000I218750J0D01*
G01*
X142010250Y-81821000D01*
G75*
G02*
X142229000Y-82039750I0J-218750D01*
G01*
G37*
G36*
G01*
X127934000Y-82039750D02*
X127934000Y-82552250D01*
G75*
G02*
X127715250Y-82771000I-218750J0D01*
G01*
X127277750Y-82771000D01*
G75*
G02*
X127059000Y-82552250I0J218750D01*
G01*
X127059000Y-82039750D01*
G75*
G02*
X127277750Y-81821000I218750J0D01*
G01*
X127715250Y-81821000D01*
G75*
G02*
X127934000Y-82039750I0J-218750D01*
G01*
G37*
G36*
G01*
X129509000Y-82039750D02*
X129509000Y-82552250D01*
G75*
G02*
X129290250Y-82771000I-218750J0D01*
G01*
X128852750Y-82771000D01*
G75*
G02*
X128634000Y-82552250I0J218750D01*
G01*
X128634000Y-82039750D01*
G75*
G02*
X128852750Y-81821000I218750J0D01*
G01*
X129290250Y-81821000D01*
G75*
G02*
X129509000Y-82039750I0J-218750D01*
G01*
G37*
G36*
G01*
X115217000Y-81912750D02*
X115217000Y-82425250D01*
G75*
G02*
X114998250Y-82644000I-218750J0D01*
G01*
X114560750Y-82644000D01*
G75*
G02*
X114342000Y-82425250I0J218750D01*
G01*
X114342000Y-81912750D01*
G75*
G02*
X114560750Y-81694000I218750J0D01*
G01*
X114998250Y-81694000D01*
G75*
G02*
X115217000Y-81912750I0J-218750D01*
G01*
G37*
G36*
G01*
X116792000Y-81912750D02*
X116792000Y-82425250D01*
G75*
G02*
X116573250Y-82644000I-218750J0D01*
G01*
X116135750Y-82644000D01*
G75*
G02*
X115917000Y-82425250I0J218750D01*
G01*
X115917000Y-81912750D01*
G75*
G02*
X116135750Y-81694000I218750J0D01*
G01*
X116573250Y-81694000D01*
G75*
G02*
X116792000Y-81912750I0J-218750D01*
G01*
G37*
G36*
G01*
X102561000Y-81912750D02*
X102561000Y-82425250D01*
G75*
G02*
X102342250Y-82644000I-218750J0D01*
G01*
X101904750Y-82644000D01*
G75*
G02*
X101686000Y-82425250I0J218750D01*
G01*
X101686000Y-81912750D01*
G75*
G02*
X101904750Y-81694000I218750J0D01*
G01*
X102342250Y-81694000D01*
G75*
G02*
X102561000Y-81912750I0J-218750D01*
G01*
G37*
G36*
G01*
X104136000Y-81912750D02*
X104136000Y-82425250D01*
G75*
G02*
X103917250Y-82644000I-218750J0D01*
G01*
X103479750Y-82644000D01*
G75*
G02*
X103261000Y-82425250I0J218750D01*
G01*
X103261000Y-81912750D01*
G75*
G02*
X103479750Y-81694000I218750J0D01*
G01*
X103917250Y-81694000D01*
G75*
G02*
X104136000Y-81912750I0J-218750D01*
G01*
G37*
G36*
G01*
X192262000Y-85609250D02*
X192262000Y-85096750D01*
G75*
G02*
X192480750Y-84878000I218750J0D01*
G01*
X192918250Y-84878000D01*
G75*
G02*
X193137000Y-85096750I0J-218750D01*
G01*
X193137000Y-85609250D01*
G75*
G02*
X192918250Y-85828000I-218750J0D01*
G01*
X192480750Y-85828000D01*
G75*
G02*
X192262000Y-85609250I0J218750D01*
G01*
G37*
G36*
G01*
X190687000Y-85609250D02*
X190687000Y-85096750D01*
G75*
G02*
X190905750Y-84878000I218750J0D01*
G01*
X191343250Y-84878000D01*
G75*
G02*
X191562000Y-85096750I0J-218750D01*
G01*
X191562000Y-85609250D01*
G75*
G02*
X191343250Y-85828000I-218750J0D01*
G01*
X190905750Y-85828000D01*
G75*
G02*
X190687000Y-85609250I0J218750D01*
G01*
G37*
G36*
G01*
X179454000Y-85736250D02*
X179454000Y-85223750D01*
G75*
G02*
X179672750Y-85005000I218750J0D01*
G01*
X180110250Y-85005000D01*
G75*
G02*
X180329000Y-85223750I0J-218750D01*
G01*
X180329000Y-85736250D01*
G75*
G02*
X180110250Y-85955000I-218750J0D01*
G01*
X179672750Y-85955000D01*
G75*
G02*
X179454000Y-85736250I0J218750D01*
G01*
G37*
G36*
G01*
X177879000Y-85736250D02*
X177879000Y-85223750D01*
G75*
G02*
X178097750Y-85005000I218750J0D01*
G01*
X178535250Y-85005000D01*
G75*
G02*
X178754000Y-85223750I0J-218750D01*
G01*
X178754000Y-85736250D01*
G75*
G02*
X178535250Y-85955000I-218750J0D01*
G01*
X178097750Y-85955000D01*
G75*
G02*
X177879000Y-85736250I0J218750D01*
G01*
G37*
G36*
G01*
X166627000Y-85609250D02*
X166627000Y-85096750D01*
G75*
G02*
X166845750Y-84878000I218750J0D01*
G01*
X167283250Y-84878000D01*
G75*
G02*
X167502000Y-85096750I0J-218750D01*
G01*
X167502000Y-85609250D01*
G75*
G02*
X167283250Y-85828000I-218750J0D01*
G01*
X166845750Y-85828000D01*
G75*
G02*
X166627000Y-85609250I0J218750D01*
G01*
G37*
G36*
G01*
X165052000Y-85609250D02*
X165052000Y-85096750D01*
G75*
G02*
X165270750Y-84878000I218750J0D01*
G01*
X165708250Y-84878000D01*
G75*
G02*
X165927000Y-85096750I0J-218750D01*
G01*
X165927000Y-85609250D01*
G75*
G02*
X165708250Y-85828000I-218750J0D01*
G01*
X165270750Y-85828000D01*
G75*
G02*
X165052000Y-85609250I0J218750D01*
G01*
G37*
G36*
G01*
X153914000Y-85609250D02*
X153914000Y-85096750D01*
G75*
G02*
X154132750Y-84878000I218750J0D01*
G01*
X154570250Y-84878000D01*
G75*
G02*
X154789000Y-85096750I0J-218750D01*
G01*
X154789000Y-85609250D01*
G75*
G02*
X154570250Y-85828000I-218750J0D01*
G01*
X154132750Y-85828000D01*
G75*
G02*
X153914000Y-85609250I0J218750D01*
G01*
G37*
G36*
G01*
X152339000Y-85609250D02*
X152339000Y-85096750D01*
G75*
G02*
X152557750Y-84878000I218750J0D01*
G01*
X152995250Y-84878000D01*
G75*
G02*
X153214000Y-85096750I0J-218750D01*
G01*
X153214000Y-85609250D01*
G75*
G02*
X152995250Y-85828000I-218750J0D01*
G01*
X152557750Y-85828000D01*
G75*
G02*
X152339000Y-85609250I0J218750D01*
G01*
G37*
G36*
G01*
X141354000Y-85609250D02*
X141354000Y-85096750D01*
G75*
G02*
X141572750Y-84878000I218750J0D01*
G01*
X142010250Y-84878000D01*
G75*
G02*
X142229000Y-85096750I0J-218750D01*
G01*
X142229000Y-85609250D01*
G75*
G02*
X142010250Y-85828000I-218750J0D01*
G01*
X141572750Y-85828000D01*
G75*
G02*
X141354000Y-85609250I0J218750D01*
G01*
G37*
G36*
G01*
X139779000Y-85609250D02*
X139779000Y-85096750D01*
G75*
G02*
X139997750Y-84878000I218750J0D01*
G01*
X140435250Y-84878000D01*
G75*
G02*
X140654000Y-85096750I0J-218750D01*
G01*
X140654000Y-85609250D01*
G75*
G02*
X140435250Y-85828000I-218750J0D01*
G01*
X139997750Y-85828000D01*
G75*
G02*
X139779000Y-85609250I0J218750D01*
G01*
G37*
G36*
G01*
X128634000Y-85609250D02*
X128634000Y-85096750D01*
G75*
G02*
X128852750Y-84878000I218750J0D01*
G01*
X129290250Y-84878000D01*
G75*
G02*
X129509000Y-85096750I0J-218750D01*
G01*
X129509000Y-85609250D01*
G75*
G02*
X129290250Y-85828000I-218750J0D01*
G01*
X128852750Y-85828000D01*
G75*
G02*
X128634000Y-85609250I0J218750D01*
G01*
G37*
G36*
G01*
X127059000Y-85609250D02*
X127059000Y-85096750D01*
G75*
G02*
X127277750Y-84878000I218750J0D01*
G01*
X127715250Y-84878000D01*
G75*
G02*
X127934000Y-85096750I0J-218750D01*
G01*
X127934000Y-85609250D01*
G75*
G02*
X127715250Y-85828000I-218750J0D01*
G01*
X127277750Y-85828000D01*
G75*
G02*
X127059000Y-85609250I0J218750D01*
G01*
G37*
G36*
G01*
X115917000Y-85482250D02*
X115917000Y-84969750D01*
G75*
G02*
X116135750Y-84751000I218750J0D01*
G01*
X116573250Y-84751000D01*
G75*
G02*
X116792000Y-84969750I0J-218750D01*
G01*
X116792000Y-85482250D01*
G75*
G02*
X116573250Y-85701000I-218750J0D01*
G01*
X116135750Y-85701000D01*
G75*
G02*
X115917000Y-85482250I0J218750D01*
G01*
G37*
G36*
G01*
X114342000Y-85482250D02*
X114342000Y-84969750D01*
G75*
G02*
X114560750Y-84751000I218750J0D01*
G01*
X114998250Y-84751000D01*
G75*
G02*
X115217000Y-84969750I0J-218750D01*
G01*
X115217000Y-85482250D01*
G75*
G02*
X114998250Y-85701000I-218750J0D01*
G01*
X114560750Y-85701000D01*
G75*
G02*
X114342000Y-85482250I0J218750D01*
G01*
G37*
G36*
G01*
X103261000Y-85482250D02*
X103261000Y-84969750D01*
G75*
G02*
X103479750Y-84751000I218750J0D01*
G01*
X103917250Y-84751000D01*
G75*
G02*
X104136000Y-84969750I0J-218750D01*
G01*
X104136000Y-85482250D01*
G75*
G02*
X103917250Y-85701000I-218750J0D01*
G01*
X103479750Y-85701000D01*
G75*
G02*
X103261000Y-85482250I0J218750D01*
G01*
G37*
G36*
G01*
X101686000Y-85482250D02*
X101686000Y-84969750D01*
G75*
G02*
X101904750Y-84751000I218750J0D01*
G01*
X102342250Y-84751000D01*
G75*
G02*
X102561000Y-84969750I0J-218750D01*
G01*
X102561000Y-85482250D01*
G75*
G02*
X102342250Y-85701000I-218750J0D01*
G01*
X101904750Y-85701000D01*
G75*
G02*
X101686000Y-85482250I0J218750D01*
G01*
G37*
G36*
G01*
X143098000Y-56898250D02*
X143098000Y-56385750D01*
G75*
G02*
X143316750Y-56167000I218750J0D01*
G01*
X143754250Y-56167000D01*
G75*
G02*
X143973000Y-56385750I0J-218750D01*
G01*
X143973000Y-56898250D01*
G75*
G02*
X143754250Y-57117000I-218750J0D01*
G01*
X143316750Y-57117000D01*
G75*
G02*
X143098000Y-56898250I0J218750D01*
G01*
G37*
G36*
G01*
X141523000Y-56898250D02*
X141523000Y-56385750D01*
G75*
G02*
X141741750Y-56167000I218750J0D01*
G01*
X142179250Y-56167000D01*
G75*
G02*
X142398000Y-56385750I0J-218750D01*
G01*
X142398000Y-56898250D01*
G75*
G02*
X142179250Y-57117000I-218750J0D01*
G01*
X141741750Y-57117000D01*
G75*
G02*
X141523000Y-56898250I0J218750D01*
G01*
G37*
G36*
G01*
X136556000Y-117975750D02*
X136556000Y-118488250D01*
G75*
G02*
X136337250Y-118707000I-218750J0D01*
G01*
X135899750Y-118707000D01*
G75*
G02*
X135681000Y-118488250I0J218750D01*
G01*
X135681000Y-117975750D01*
G75*
G02*
X135899750Y-117757000I218750J0D01*
G01*
X136337250Y-117757000D01*
G75*
G02*
X136556000Y-117975750I0J-218750D01*
G01*
G37*
G36*
G01*
X138131000Y-117975750D02*
X138131000Y-118488250D01*
G75*
G02*
X137912250Y-118707000I-218750J0D01*
G01*
X137474750Y-118707000D01*
G75*
G02*
X137256000Y-118488250I0J218750D01*
G01*
X137256000Y-117975750D01*
G75*
G02*
X137474750Y-117757000I218750J0D01*
G01*
X137912250Y-117757000D01*
G75*
G02*
X138131000Y-117975750I0J-218750D01*
G01*
G37*
G36*
G01*
X137411750Y-115026000D02*
X137924250Y-115026000D01*
G75*
G02*
X138143000Y-115244750I0J-218750D01*
G01*
X138143000Y-115682250D01*
G75*
G02*
X137924250Y-115901000I-218750J0D01*
G01*
X137411750Y-115901000D01*
G75*
G02*
X137193000Y-115682250I0J218750D01*
G01*
X137193000Y-115244750D01*
G75*
G02*
X137411750Y-115026000I218750J0D01*
G01*
G37*
G36*
G01*
X137411750Y-113451000D02*
X137924250Y-113451000D01*
G75*
G02*
X138143000Y-113669750I0J-218750D01*
G01*
X138143000Y-114107250D01*
G75*
G02*
X137924250Y-114326000I-218750J0D01*
G01*
X137411750Y-114326000D01*
G75*
G02*
X137193000Y-114107250I0J218750D01*
G01*
X137193000Y-113669750D01*
G75*
G02*
X137411750Y-113451000I218750J0D01*
G01*
G37*
G36*
G01*
X160799400Y-107687000D02*
X160799400Y-108937000D01*
G75*
G02*
X160549400Y-109187000I-250000J0D01*
G01*
X159799400Y-109187000D01*
G75*
G02*
X159549400Y-108937000I0J250000D01*
G01*
X159549400Y-107687000D01*
G75*
G02*
X159799400Y-107437000I250000J0D01*
G01*
X160549400Y-107437000D01*
G75*
G02*
X160799400Y-107687000I0J-250000D01*
G01*
G37*
G36*
G01*
X163599400Y-107687000D02*
X163599400Y-108937000D01*
G75*
G02*
X163349400Y-109187000I-250000J0D01*
G01*
X162599400Y-109187000D01*
G75*
G02*
X162349400Y-108937000I0J250000D01*
G01*
X162349400Y-107687000D01*
G75*
G02*
X162599400Y-107437000I250000J0D01*
G01*
X163349400Y-107437000D01*
G75*
G02*
X163599400Y-107687000I0J-250000D01*
G01*
G37*
G36*
G01*
X160799400Y-120133000D02*
X160799400Y-121383000D01*
G75*
G02*
X160549400Y-121633000I-250000J0D01*
G01*
X159799400Y-121633000D01*
G75*
G02*
X159549400Y-121383000I0J250000D01*
G01*
X159549400Y-120133000D01*
G75*
G02*
X159799400Y-119883000I250000J0D01*
G01*
X160549400Y-119883000D01*
G75*
G02*
X160799400Y-120133000I0J-250000D01*
G01*
G37*
G36*
G01*
X163599400Y-120133000D02*
X163599400Y-121383000D01*
G75*
G02*
X163349400Y-121633000I-250000J0D01*
G01*
X162599400Y-121633000D01*
G75*
G02*
X162349400Y-121383000I0J250000D01*
G01*
X162349400Y-120133000D01*
G75*
G02*
X162599400Y-119883000I250000J0D01*
G01*
X163349400Y-119883000D01*
G75*
G02*
X163599400Y-120133000I0J-250000D01*
G01*
G37*
G36*
G01*
X147363400Y-121383000D02*
X147363400Y-120133000D01*
G75*
G02*
X147613400Y-119883000I250000J0D01*
G01*
X148363400Y-119883000D01*
G75*
G02*
X148613400Y-120133000I0J-250000D01*
G01*
X148613400Y-121383000D01*
G75*
G02*
X148363400Y-121633000I-250000J0D01*
G01*
X147613400Y-121633000D01*
G75*
G02*
X147363400Y-121383000I0J250000D01*
G01*
G37*
G36*
G01*
X144563400Y-121383000D02*
X144563400Y-120133000D01*
G75*
G02*
X144813400Y-119883000I250000J0D01*
G01*
X145563400Y-119883000D01*
G75*
G02*
X145813400Y-120133000I0J-250000D01*
G01*
X145813400Y-121383000D01*
G75*
G02*
X145563400Y-121633000I-250000J0D01*
G01*
X144813400Y-121633000D01*
G75*
G02*
X144563400Y-121383000I0J250000D01*
G01*
G37*
G36*
G01*
X147363400Y-108937000D02*
X147363400Y-107687000D01*
G75*
G02*
X147613400Y-107437000I250000J0D01*
G01*
X148363400Y-107437000D01*
G75*
G02*
X148613400Y-107687000I0J-250000D01*
G01*
X148613400Y-108937000D01*
G75*
G02*
X148363400Y-109187000I-250000J0D01*
G01*
X147613400Y-109187000D01*
G75*
G02*
X147363400Y-108937000I0J250000D01*
G01*
G37*
G36*
G01*
X144563400Y-108937000D02*
X144563400Y-107687000D01*
G75*
G02*
X144813400Y-107437000I250000J0D01*
G01*
X145563400Y-107437000D01*
G75*
G02*
X145813400Y-107687000I0J-250000D01*
G01*
X145813400Y-108937000D01*
G75*
G02*
X145563400Y-109187000I-250000J0D01*
G01*
X144813400Y-109187000D01*
G75*
G02*
X144563400Y-108937000I0J250000D01*
G01*
G37*
G36*
G01*
X162588150Y-112726000D02*
X163100650Y-112726000D01*
G75*
G02*
X163319400Y-112944750I0J-218750D01*
G01*
X163319400Y-113382250D01*
G75*
G02*
X163100650Y-113601000I-218750J0D01*
G01*
X162588150Y-113601000D01*
G75*
G02*
X162369400Y-113382250I0J218750D01*
G01*
X162369400Y-112944750D01*
G75*
G02*
X162588150Y-112726000I218750J0D01*
G01*
G37*
G36*
G01*
X162588150Y-111151000D02*
X163100650Y-111151000D01*
G75*
G02*
X163319400Y-111369750I0J-218750D01*
G01*
X163319400Y-111807250D01*
G75*
G02*
X163100650Y-112026000I-218750J0D01*
G01*
X162588150Y-112026000D01*
G75*
G02*
X162369400Y-111807250I0J218750D01*
G01*
X162369400Y-111369750D01*
G75*
G02*
X162588150Y-111151000I218750J0D01*
G01*
G37*
G36*
G01*
X163100650Y-116344000D02*
X162588150Y-116344000D01*
G75*
G02*
X162369400Y-116125250I0J218750D01*
G01*
X162369400Y-115687750D01*
G75*
G02*
X162588150Y-115469000I218750J0D01*
G01*
X163100650Y-115469000D01*
G75*
G02*
X163319400Y-115687750I0J-218750D01*
G01*
X163319400Y-116125250D01*
G75*
G02*
X163100650Y-116344000I-218750J0D01*
G01*
G37*
G36*
G01*
X163100650Y-117919000D02*
X162588150Y-117919000D01*
G75*
G02*
X162369400Y-117700250I0J218750D01*
G01*
X162369400Y-117262750D01*
G75*
G02*
X162588150Y-117044000I218750J0D01*
G01*
X163100650Y-117044000D01*
G75*
G02*
X163319400Y-117262750I0J-218750D01*
G01*
X163319400Y-117700250D01*
G75*
G02*
X163100650Y-117919000I-218750J0D01*
G01*
G37*
G36*
G01*
X145574650Y-116344000D02*
X145062150Y-116344000D01*
G75*
G02*
X144843400Y-116125250I0J218750D01*
G01*
X144843400Y-115687750D01*
G75*
G02*
X145062150Y-115469000I218750J0D01*
G01*
X145574650Y-115469000D01*
G75*
G02*
X145793400Y-115687750I0J-218750D01*
G01*
X145793400Y-116125250D01*
G75*
G02*
X145574650Y-116344000I-218750J0D01*
G01*
G37*
G36*
G01*
X145574650Y-117919000D02*
X145062150Y-117919000D01*
G75*
G02*
X144843400Y-117700250I0J218750D01*
G01*
X144843400Y-117262750D01*
G75*
G02*
X145062150Y-117044000I218750J0D01*
G01*
X145574650Y-117044000D01*
G75*
G02*
X145793400Y-117262750I0J-218750D01*
G01*
X145793400Y-117700250D01*
G75*
G02*
X145574650Y-117919000I-218750J0D01*
G01*
G37*
G36*
G01*
X145062150Y-112726000D02*
X145574650Y-112726000D01*
G75*
G02*
X145793400Y-112944750I0J-218750D01*
G01*
X145793400Y-113382250D01*
G75*
G02*
X145574650Y-113601000I-218750J0D01*
G01*
X145062150Y-113601000D01*
G75*
G02*
X144843400Y-113382250I0J218750D01*
G01*
X144843400Y-112944750D01*
G75*
G02*
X145062150Y-112726000I218750J0D01*
G01*
G37*
G36*
G01*
X145062150Y-111151000D02*
X145574650Y-111151000D01*
G75*
G02*
X145793400Y-111369750I0J-218750D01*
G01*
X145793400Y-111807250D01*
G75*
G02*
X145574650Y-112026000I-218750J0D01*
G01*
X145062150Y-112026000D01*
G75*
G02*
X144843400Y-111807250I0J218750D01*
G01*
X144843400Y-111369750D01*
G75*
G02*
X145062150Y-111151000I218750J0D01*
G01*
G37*
G36*
G01*
X165767650Y-112026000D02*
X165255150Y-112026000D01*
G75*
G02*
X165036400Y-111807250I0J218750D01*
G01*
X165036400Y-111369750D01*
G75*
G02*
X165255150Y-111151000I218750J0D01*
G01*
X165767650Y-111151000D01*
G75*
G02*
X165986400Y-111369750I0J-218750D01*
G01*
X165986400Y-111807250D01*
G75*
G02*
X165767650Y-112026000I-218750J0D01*
G01*
G37*
G36*
G01*
X165767650Y-113601000D02*
X165255150Y-113601000D01*
G75*
G02*
X165036400Y-113382250I0J218750D01*
G01*
X165036400Y-112944750D01*
G75*
G02*
X165255150Y-112726000I218750J0D01*
G01*
X165767650Y-112726000D01*
G75*
G02*
X165986400Y-112944750I0J-218750D01*
G01*
X165986400Y-113382250D01*
G75*
G02*
X165767650Y-113601000I-218750J0D01*
G01*
G37*
G36*
G01*
X165255150Y-117044000D02*
X165767650Y-117044000D01*
G75*
G02*
X165986400Y-117262750I0J-218750D01*
G01*
X165986400Y-117700250D01*
G75*
G02*
X165767650Y-117919000I-218750J0D01*
G01*
X165255150Y-117919000D01*
G75*
G02*
X165036400Y-117700250I0J218750D01*
G01*
X165036400Y-117262750D01*
G75*
G02*
X165255150Y-117044000I218750J0D01*
G01*
G37*
G36*
G01*
X165255150Y-115469000D02*
X165767650Y-115469000D01*
G75*
G02*
X165986400Y-115687750I0J-218750D01*
G01*
X165986400Y-116125250D01*
G75*
G02*
X165767650Y-116344000I-218750J0D01*
G01*
X165255150Y-116344000D01*
G75*
G02*
X165036400Y-116125250I0J218750D01*
G01*
X165036400Y-115687750D01*
G75*
G02*
X165255150Y-115469000I218750J0D01*
G01*
G37*
G36*
G01*
X142268150Y-117044000D02*
X142780650Y-117044000D01*
G75*
G02*
X142999400Y-117262750I0J-218750D01*
G01*
X142999400Y-117700250D01*
G75*
G02*
X142780650Y-117919000I-218750J0D01*
G01*
X142268150Y-117919000D01*
G75*
G02*
X142049400Y-117700250I0J218750D01*
G01*
X142049400Y-117262750D01*
G75*
G02*
X142268150Y-117044000I218750J0D01*
G01*
G37*
G36*
G01*
X142268150Y-115469000D02*
X142780650Y-115469000D01*
G75*
G02*
X142999400Y-115687750I0J-218750D01*
G01*
X142999400Y-116125250D01*
G75*
G02*
X142780650Y-116344000I-218750J0D01*
G01*
X142268150Y-116344000D01*
G75*
G02*
X142049400Y-116125250I0J218750D01*
G01*
X142049400Y-115687750D01*
G75*
G02*
X142268150Y-115469000I218750J0D01*
G01*
G37*
G36*
G01*
X142780650Y-112026000D02*
X142268150Y-112026000D01*
G75*
G02*
X142049400Y-111807250I0J218750D01*
G01*
X142049400Y-111369750D01*
G75*
G02*
X142268150Y-111151000I218750J0D01*
G01*
X142780650Y-111151000D01*
G75*
G02*
X142999400Y-111369750I0J-218750D01*
G01*
X142999400Y-111807250D01*
G75*
G02*
X142780650Y-112026000I-218750J0D01*
G01*
G37*
G36*
G01*
X142780650Y-113601000D02*
X142268150Y-113601000D01*
G75*
G02*
X142049400Y-113382250I0J218750D01*
G01*
X142049400Y-112944750D01*
G75*
G02*
X142268150Y-112726000I218750J0D01*
G01*
X142780650Y-112726000D01*
G75*
G02*
X142999400Y-112944750I0J-218750D01*
G01*
X142999400Y-113382250D01*
G75*
G02*
X142780650Y-113601000I-218750J0D01*
G01*
G37*
G36*
G01*
X122674000Y-107687000D02*
X122674000Y-108937000D01*
G75*
G02*
X122424000Y-109187000I-250000J0D01*
G01*
X121674000Y-109187000D01*
G75*
G02*
X121424000Y-108937000I0J250000D01*
G01*
X121424000Y-107687000D01*
G75*
G02*
X121674000Y-107437000I250000J0D01*
G01*
X122424000Y-107437000D01*
G75*
G02*
X122674000Y-107687000I0J-250000D01*
G01*
G37*
G36*
G01*
X125474000Y-107687000D02*
X125474000Y-108937000D01*
G75*
G02*
X125224000Y-109187000I-250000J0D01*
G01*
X124474000Y-109187000D01*
G75*
G02*
X124224000Y-108937000I0J250000D01*
G01*
X124224000Y-107687000D01*
G75*
G02*
X124474000Y-107437000I250000J0D01*
G01*
X125224000Y-107437000D01*
G75*
G02*
X125474000Y-107687000I0J-250000D01*
G01*
G37*
G36*
G01*
X122674000Y-120133000D02*
X122674000Y-121383000D01*
G75*
G02*
X122424000Y-121633000I-250000J0D01*
G01*
X121674000Y-121633000D01*
G75*
G02*
X121424000Y-121383000I0J250000D01*
G01*
X121424000Y-120133000D01*
G75*
G02*
X121674000Y-119883000I250000J0D01*
G01*
X122424000Y-119883000D01*
G75*
G02*
X122674000Y-120133000I0J-250000D01*
G01*
G37*
G36*
G01*
X125474000Y-120133000D02*
X125474000Y-121383000D01*
G75*
G02*
X125224000Y-121633000I-250000J0D01*
G01*
X124474000Y-121633000D01*
G75*
G02*
X124224000Y-121383000I0J250000D01*
G01*
X124224000Y-120133000D01*
G75*
G02*
X124474000Y-119883000I250000J0D01*
G01*
X125224000Y-119883000D01*
G75*
G02*
X125474000Y-120133000I0J-250000D01*
G01*
G37*
G36*
G01*
X109238000Y-121383000D02*
X109238000Y-120133000D01*
G75*
G02*
X109488000Y-119883000I250000J0D01*
G01*
X110238000Y-119883000D01*
G75*
G02*
X110488000Y-120133000I0J-250000D01*
G01*
X110488000Y-121383000D01*
G75*
G02*
X110238000Y-121633000I-250000J0D01*
G01*
X109488000Y-121633000D01*
G75*
G02*
X109238000Y-121383000I0J250000D01*
G01*
G37*
G36*
G01*
X106438000Y-121383000D02*
X106438000Y-120133000D01*
G75*
G02*
X106688000Y-119883000I250000J0D01*
G01*
X107438000Y-119883000D01*
G75*
G02*
X107688000Y-120133000I0J-250000D01*
G01*
X107688000Y-121383000D01*
G75*
G02*
X107438000Y-121633000I-250000J0D01*
G01*
X106688000Y-121633000D01*
G75*
G02*
X106438000Y-121383000I0J250000D01*
G01*
G37*
G36*
G01*
X109238000Y-108937000D02*
X109238000Y-107687000D01*
G75*
G02*
X109488000Y-107437000I250000J0D01*
G01*
X110238000Y-107437000D01*
G75*
G02*
X110488000Y-107687000I0J-250000D01*
G01*
X110488000Y-108937000D01*
G75*
G02*
X110238000Y-109187000I-250000J0D01*
G01*
X109488000Y-109187000D01*
G75*
G02*
X109238000Y-108937000I0J250000D01*
G01*
G37*
G36*
G01*
X106438000Y-108937000D02*
X106438000Y-107687000D01*
G75*
G02*
X106688000Y-107437000I250000J0D01*
G01*
X107438000Y-107437000D01*
G75*
G02*
X107688000Y-107687000I0J-250000D01*
G01*
X107688000Y-108937000D01*
G75*
G02*
X107438000Y-109187000I-250000J0D01*
G01*
X106688000Y-109187000D01*
G75*
G02*
X106438000Y-108937000I0J250000D01*
G01*
G37*
G36*
G01*
X124462750Y-112726000D02*
X124975250Y-112726000D01*
G75*
G02*
X125194000Y-112944750I0J-218750D01*
G01*
X125194000Y-113382250D01*
G75*
G02*
X124975250Y-113601000I-218750J0D01*
G01*
X124462750Y-113601000D01*
G75*
G02*
X124244000Y-113382250I0J218750D01*
G01*
X124244000Y-112944750D01*
G75*
G02*
X124462750Y-112726000I218750J0D01*
G01*
G37*
G36*
G01*
X124462750Y-111151000D02*
X124975250Y-111151000D01*
G75*
G02*
X125194000Y-111369750I0J-218750D01*
G01*
X125194000Y-111807250D01*
G75*
G02*
X124975250Y-112026000I-218750J0D01*
G01*
X124462750Y-112026000D01*
G75*
G02*
X124244000Y-111807250I0J218750D01*
G01*
X124244000Y-111369750D01*
G75*
G02*
X124462750Y-111151000I218750J0D01*
G01*
G37*
G36*
G01*
X124975250Y-116344000D02*
X124462750Y-116344000D01*
G75*
G02*
X124244000Y-116125250I0J218750D01*
G01*
X124244000Y-115687750D01*
G75*
G02*
X124462750Y-115469000I218750J0D01*
G01*
X124975250Y-115469000D01*
G75*
G02*
X125194000Y-115687750I0J-218750D01*
G01*
X125194000Y-116125250D01*
G75*
G02*
X124975250Y-116344000I-218750J0D01*
G01*
G37*
G36*
G01*
X124975250Y-117919000D02*
X124462750Y-117919000D01*
G75*
G02*
X124244000Y-117700250I0J218750D01*
G01*
X124244000Y-117262750D01*
G75*
G02*
X124462750Y-117044000I218750J0D01*
G01*
X124975250Y-117044000D01*
G75*
G02*
X125194000Y-117262750I0J-218750D01*
G01*
X125194000Y-117700250D01*
G75*
G02*
X124975250Y-117919000I-218750J0D01*
G01*
G37*
G36*
G01*
X107449250Y-116344000D02*
X106936750Y-116344000D01*
G75*
G02*
X106718000Y-116125250I0J218750D01*
G01*
X106718000Y-115687750D01*
G75*
G02*
X106936750Y-115469000I218750J0D01*
G01*
X107449250Y-115469000D01*
G75*
G02*
X107668000Y-115687750I0J-218750D01*
G01*
X107668000Y-116125250D01*
G75*
G02*
X107449250Y-116344000I-218750J0D01*
G01*
G37*
G36*
G01*
X107449250Y-117919000D02*
X106936750Y-117919000D01*
G75*
G02*
X106718000Y-117700250I0J218750D01*
G01*
X106718000Y-117262750D01*
G75*
G02*
X106936750Y-117044000I218750J0D01*
G01*
X107449250Y-117044000D01*
G75*
G02*
X107668000Y-117262750I0J-218750D01*
G01*
X107668000Y-117700250D01*
G75*
G02*
X107449250Y-117919000I-218750J0D01*
G01*
G37*
G36*
G01*
X106936750Y-112726000D02*
X107449250Y-112726000D01*
G75*
G02*
X107668000Y-112944750I0J-218750D01*
G01*
X107668000Y-113382250D01*
G75*
G02*
X107449250Y-113601000I-218750J0D01*
G01*
X106936750Y-113601000D01*
G75*
G02*
X106718000Y-113382250I0J218750D01*
G01*
X106718000Y-112944750D01*
G75*
G02*
X106936750Y-112726000I218750J0D01*
G01*
G37*
G36*
G01*
X106936750Y-111151000D02*
X107449250Y-111151000D01*
G75*
G02*
X107668000Y-111369750I0J-218750D01*
G01*
X107668000Y-111807250D01*
G75*
G02*
X107449250Y-112026000I-218750J0D01*
G01*
X106936750Y-112026000D01*
G75*
G02*
X106718000Y-111807250I0J218750D01*
G01*
X106718000Y-111369750D01*
G75*
G02*
X106936750Y-111151000I218750J0D01*
G01*
G37*
G36*
G01*
X127642250Y-112026000D02*
X127129750Y-112026000D01*
G75*
G02*
X126911000Y-111807250I0J218750D01*
G01*
X126911000Y-111369750D01*
G75*
G02*
X127129750Y-111151000I218750J0D01*
G01*
X127642250Y-111151000D01*
G75*
G02*
X127861000Y-111369750I0J-218750D01*
G01*
X127861000Y-111807250D01*
G75*
G02*
X127642250Y-112026000I-218750J0D01*
G01*
G37*
G36*
G01*
X127642250Y-113601000D02*
X127129750Y-113601000D01*
G75*
G02*
X126911000Y-113382250I0J218750D01*
G01*
X126911000Y-112944750D01*
G75*
G02*
X127129750Y-112726000I218750J0D01*
G01*
X127642250Y-112726000D01*
G75*
G02*
X127861000Y-112944750I0J-218750D01*
G01*
X127861000Y-113382250D01*
G75*
G02*
X127642250Y-113601000I-218750J0D01*
G01*
G37*
G36*
G01*
X127129750Y-117044000D02*
X127642250Y-117044000D01*
G75*
G02*
X127861000Y-117262750I0J-218750D01*
G01*
X127861000Y-117700250D01*
G75*
G02*
X127642250Y-117919000I-218750J0D01*
G01*
X127129750Y-117919000D01*
G75*
G02*
X126911000Y-117700250I0J218750D01*
G01*
X126911000Y-117262750D01*
G75*
G02*
X127129750Y-117044000I218750J0D01*
G01*
G37*
G36*
G01*
X127129750Y-115469000D02*
X127642250Y-115469000D01*
G75*
G02*
X127861000Y-115687750I0J-218750D01*
G01*
X127861000Y-116125250D01*
G75*
G02*
X127642250Y-116344000I-218750J0D01*
G01*
X127129750Y-116344000D01*
G75*
G02*
X126911000Y-116125250I0J218750D01*
G01*
X126911000Y-115687750D01*
G75*
G02*
X127129750Y-115469000I218750J0D01*
G01*
G37*
G36*
G01*
X104142750Y-117044000D02*
X104655250Y-117044000D01*
G75*
G02*
X104874000Y-117262750I0J-218750D01*
G01*
X104874000Y-117700250D01*
G75*
G02*
X104655250Y-117919000I-218750J0D01*
G01*
X104142750Y-117919000D01*
G75*
G02*
X103924000Y-117700250I0J218750D01*
G01*
X103924000Y-117262750D01*
G75*
G02*
X104142750Y-117044000I218750J0D01*
G01*
G37*
G36*
G01*
X104142750Y-115469000D02*
X104655250Y-115469000D01*
G75*
G02*
X104874000Y-115687750I0J-218750D01*
G01*
X104874000Y-116125250D01*
G75*
G02*
X104655250Y-116344000I-218750J0D01*
G01*
X104142750Y-116344000D01*
G75*
G02*
X103924000Y-116125250I0J218750D01*
G01*
X103924000Y-115687750D01*
G75*
G02*
X104142750Y-115469000I218750J0D01*
G01*
G37*
G36*
G01*
X104655250Y-112026000D02*
X104142750Y-112026000D01*
G75*
G02*
X103924000Y-111807250I0J218750D01*
G01*
X103924000Y-111369750D01*
G75*
G02*
X104142750Y-111151000I218750J0D01*
G01*
X104655250Y-111151000D01*
G75*
G02*
X104874000Y-111369750I0J-218750D01*
G01*
X104874000Y-111807250D01*
G75*
G02*
X104655250Y-112026000I-218750J0D01*
G01*
G37*
G36*
G01*
X104655250Y-113601000D02*
X104142750Y-113601000D01*
G75*
G02*
X103924000Y-113382250I0J218750D01*
G01*
X103924000Y-112944750D01*
G75*
G02*
X104142750Y-112726000I218750J0D01*
G01*
X104655250Y-112726000D01*
G75*
G02*
X104874000Y-112944750I0J-218750D01*
G01*
X104874000Y-113382250D01*
G75*
G02*
X104655250Y-113601000I-218750J0D01*
G01*
G37*
D16*
X196850000Y-85328000D03*
X195900000Y-83328000D03*
X197800000Y-83328000D03*
X184150000Y-85455000D03*
X183200000Y-83455000D03*
X185100000Y-83455000D03*
X171450000Y-85328000D03*
X170500000Y-83328000D03*
X172400000Y-83328000D03*
X158750000Y-85074000D03*
X157800000Y-83074000D03*
X159700000Y-83074000D03*
X146050000Y-85328000D03*
X145100000Y-83328000D03*
X147000000Y-83328000D03*
X133350000Y-85328000D03*
X132400000Y-83328000D03*
X134300000Y-83328000D03*
X120380000Y-85201000D03*
X119430000Y-83201000D03*
X121330000Y-83201000D03*
X107950000Y-85210000D03*
X107000000Y-83210000D03*
X108900000Y-83210000D03*
G36*
G01*
X136527250Y-62261000D02*
X136014750Y-62261000D01*
G75*
G02*
X135796000Y-62042250I0J218750D01*
G01*
X135796000Y-61604750D01*
G75*
G02*
X136014750Y-61386000I218750J0D01*
G01*
X136527250Y-61386000D01*
G75*
G02*
X136746000Y-61604750I0J-218750D01*
G01*
X136746000Y-62042250D01*
G75*
G02*
X136527250Y-62261000I-218750J0D01*
G01*
G37*
G36*
G01*
X136527250Y-63836000D02*
X136014750Y-63836000D01*
G75*
G02*
X135796000Y-63617250I0J218750D01*
G01*
X135796000Y-63179750D01*
G75*
G02*
X136014750Y-62961000I218750J0D01*
G01*
X136527250Y-62961000D01*
G75*
G02*
X136746000Y-63179750I0J-218750D01*
G01*
X136746000Y-63617250D01*
G75*
G02*
X136527250Y-63836000I-218750J0D01*
G01*
G37*
G36*
G01*
X190772500Y-107820750D02*
X190772500Y-108333250D01*
G75*
G02*
X190553750Y-108552000I-218750J0D01*
G01*
X190116250Y-108552000D01*
G75*
G02*
X189897500Y-108333250I0J218750D01*
G01*
X189897500Y-107820750D01*
G75*
G02*
X190116250Y-107602000I218750J0D01*
G01*
X190553750Y-107602000D01*
G75*
G02*
X190772500Y-107820750I0J-218750D01*
G01*
G37*
G36*
G01*
X189197500Y-107820750D02*
X189197500Y-108333250D01*
G75*
G02*
X188978750Y-108552000I-218750J0D01*
G01*
X188541250Y-108552000D01*
G75*
G02*
X188322500Y-108333250I0J218750D01*
G01*
X188322500Y-107820750D01*
G75*
G02*
X188541250Y-107602000I218750J0D01*
G01*
X188978750Y-107602000D01*
G75*
G02*
X189197500Y-107820750I0J-218750D01*
G01*
G37*
G36*
G01*
X150210000Y-64772250D02*
X150210000Y-64259750D01*
G75*
G02*
X150428750Y-64041000I218750J0D01*
G01*
X150866250Y-64041000D01*
G75*
G02*
X151085000Y-64259750I0J-218750D01*
G01*
X151085000Y-64772250D01*
G75*
G02*
X150866250Y-64991000I-218750J0D01*
G01*
X150428750Y-64991000D01*
G75*
G02*
X150210000Y-64772250I0J218750D01*
G01*
G37*
G36*
G01*
X148635000Y-64772250D02*
X148635000Y-64259750D01*
G75*
G02*
X148853750Y-64041000I218750J0D01*
G01*
X149291250Y-64041000D01*
G75*
G02*
X149510000Y-64259750I0J-218750D01*
G01*
X149510000Y-64772250D01*
G75*
G02*
X149291250Y-64991000I-218750J0D01*
G01*
X148853750Y-64991000D01*
G75*
G02*
X148635000Y-64772250I0J218750D01*
G01*
G37*
G36*
G01*
X158146000Y-64259750D02*
X158146000Y-64772250D01*
G75*
G02*
X157927250Y-64991000I-218750J0D01*
G01*
X157489750Y-64991000D01*
G75*
G02*
X157271000Y-64772250I0J218750D01*
G01*
X157271000Y-64259750D01*
G75*
G02*
X157489750Y-64041000I218750J0D01*
G01*
X157927250Y-64041000D01*
G75*
G02*
X158146000Y-64259750I0J-218750D01*
G01*
G37*
G36*
G01*
X159721000Y-64259750D02*
X159721000Y-64772250D01*
G75*
G02*
X159502250Y-64991000I-218750J0D01*
G01*
X159064750Y-64991000D01*
G75*
G02*
X158846000Y-64772250I0J218750D01*
G01*
X158846000Y-64259750D01*
G75*
G02*
X159064750Y-64041000I218750J0D01*
G01*
X159502250Y-64041000D01*
G75*
G02*
X159721000Y-64259750I0J-218750D01*
G01*
G37*
G36*
G01*
X194272000Y-78938500D02*
X194272000Y-79363500D01*
G75*
G02*
X194059500Y-79576000I-212500J0D01*
G01*
X193259500Y-79576000D01*
G75*
G02*
X193047000Y-79363500I0J212500D01*
G01*
X193047000Y-78938500D01*
G75*
G02*
X193259500Y-78726000I212500J0D01*
G01*
X194059500Y-78726000D01*
G75*
G02*
X194272000Y-78938500I0J-212500D01*
G01*
G37*
G36*
G01*
X195897000Y-78938500D02*
X195897000Y-79363500D01*
G75*
G02*
X195684500Y-79576000I-212500J0D01*
G01*
X194884500Y-79576000D01*
G75*
G02*
X194672000Y-79363500I0J212500D01*
G01*
X194672000Y-78938500D01*
G75*
G02*
X194884500Y-78726000I212500J0D01*
G01*
X195684500Y-78726000D01*
G75*
G02*
X195897000Y-78938500I0J-212500D01*
G01*
G37*
G36*
G01*
X181464000Y-79065500D02*
X181464000Y-79490500D01*
G75*
G02*
X181251500Y-79703000I-212500J0D01*
G01*
X180451500Y-79703000D01*
G75*
G02*
X180239000Y-79490500I0J212500D01*
G01*
X180239000Y-79065500D01*
G75*
G02*
X180451500Y-78853000I212500J0D01*
G01*
X181251500Y-78853000D01*
G75*
G02*
X181464000Y-79065500I0J-212500D01*
G01*
G37*
G36*
G01*
X183089000Y-79065500D02*
X183089000Y-79490500D01*
G75*
G02*
X182876500Y-79703000I-212500J0D01*
G01*
X182076500Y-79703000D01*
G75*
G02*
X181864000Y-79490500I0J212500D01*
G01*
X181864000Y-79065500D01*
G75*
G02*
X182076500Y-78853000I212500J0D01*
G01*
X182876500Y-78853000D01*
G75*
G02*
X183089000Y-79065500I0J-212500D01*
G01*
G37*
G36*
G01*
X168637000Y-78938500D02*
X168637000Y-79363500D01*
G75*
G02*
X168424500Y-79576000I-212500J0D01*
G01*
X167624500Y-79576000D01*
G75*
G02*
X167412000Y-79363500I0J212500D01*
G01*
X167412000Y-78938500D01*
G75*
G02*
X167624500Y-78726000I212500J0D01*
G01*
X168424500Y-78726000D01*
G75*
G02*
X168637000Y-78938500I0J-212500D01*
G01*
G37*
G36*
G01*
X170262000Y-78938500D02*
X170262000Y-79363500D01*
G75*
G02*
X170049500Y-79576000I-212500J0D01*
G01*
X169249500Y-79576000D01*
G75*
G02*
X169037000Y-79363500I0J212500D01*
G01*
X169037000Y-78938500D01*
G75*
G02*
X169249500Y-78726000I212500J0D01*
G01*
X170049500Y-78726000D01*
G75*
G02*
X170262000Y-78938500I0J-212500D01*
G01*
G37*
G36*
G01*
X155924000Y-78914500D02*
X155924000Y-79339500D01*
G75*
G02*
X155711500Y-79552000I-212500J0D01*
G01*
X154911500Y-79552000D01*
G75*
G02*
X154699000Y-79339500I0J212500D01*
G01*
X154699000Y-78914500D01*
G75*
G02*
X154911500Y-78702000I212500J0D01*
G01*
X155711500Y-78702000D01*
G75*
G02*
X155924000Y-78914500I0J-212500D01*
G01*
G37*
G36*
G01*
X157549000Y-78914500D02*
X157549000Y-79339500D01*
G75*
G02*
X157336500Y-79552000I-212500J0D01*
G01*
X156536500Y-79552000D01*
G75*
G02*
X156324000Y-79339500I0J212500D01*
G01*
X156324000Y-78914500D01*
G75*
G02*
X156536500Y-78702000I212500J0D01*
G01*
X157336500Y-78702000D01*
G75*
G02*
X157549000Y-78914500I0J-212500D01*
G01*
G37*
G36*
G01*
X143364000Y-78938500D02*
X143364000Y-79363500D01*
G75*
G02*
X143151500Y-79576000I-212500J0D01*
G01*
X142351500Y-79576000D01*
G75*
G02*
X142139000Y-79363500I0J212500D01*
G01*
X142139000Y-78938500D01*
G75*
G02*
X142351500Y-78726000I212500J0D01*
G01*
X143151500Y-78726000D01*
G75*
G02*
X143364000Y-78938500I0J-212500D01*
G01*
G37*
G36*
G01*
X144989000Y-78938500D02*
X144989000Y-79363500D01*
G75*
G02*
X144776500Y-79576000I-212500J0D01*
G01*
X143976500Y-79576000D01*
G75*
G02*
X143764000Y-79363500I0J212500D01*
G01*
X143764000Y-78938500D01*
G75*
G02*
X143976500Y-78726000I212500J0D01*
G01*
X144776500Y-78726000D01*
G75*
G02*
X144989000Y-78938500I0J-212500D01*
G01*
G37*
G36*
G01*
X130644000Y-78938500D02*
X130644000Y-79363500D01*
G75*
G02*
X130431500Y-79576000I-212500J0D01*
G01*
X129631500Y-79576000D01*
G75*
G02*
X129419000Y-79363500I0J212500D01*
G01*
X129419000Y-78938500D01*
G75*
G02*
X129631500Y-78726000I212500J0D01*
G01*
X130431500Y-78726000D01*
G75*
G02*
X130644000Y-78938500I0J-212500D01*
G01*
G37*
G36*
G01*
X132269000Y-78938500D02*
X132269000Y-79363500D01*
G75*
G02*
X132056500Y-79576000I-212500J0D01*
G01*
X131256500Y-79576000D01*
G75*
G02*
X131044000Y-79363500I0J212500D01*
G01*
X131044000Y-78938500D01*
G75*
G02*
X131256500Y-78726000I212500J0D01*
G01*
X132056500Y-78726000D01*
G75*
G02*
X132269000Y-78938500I0J-212500D01*
G01*
G37*
G36*
G01*
X117927000Y-78811500D02*
X117927000Y-79236500D01*
G75*
G02*
X117714500Y-79449000I-212500J0D01*
G01*
X116914500Y-79449000D01*
G75*
G02*
X116702000Y-79236500I0J212500D01*
G01*
X116702000Y-78811500D01*
G75*
G02*
X116914500Y-78599000I212500J0D01*
G01*
X117714500Y-78599000D01*
G75*
G02*
X117927000Y-78811500I0J-212500D01*
G01*
G37*
G36*
G01*
X119552000Y-78811500D02*
X119552000Y-79236500D01*
G75*
G02*
X119339500Y-79449000I-212500J0D01*
G01*
X118539500Y-79449000D01*
G75*
G02*
X118327000Y-79236500I0J212500D01*
G01*
X118327000Y-78811500D01*
G75*
G02*
X118539500Y-78599000I212500J0D01*
G01*
X119339500Y-78599000D01*
G75*
G02*
X119552000Y-78811500I0J-212500D01*
G01*
G37*
G36*
G01*
X105271000Y-78781500D02*
X105271000Y-79206500D01*
G75*
G02*
X105058500Y-79419000I-212500J0D01*
G01*
X104258500Y-79419000D01*
G75*
G02*
X104046000Y-79206500I0J212500D01*
G01*
X104046000Y-78781500D01*
G75*
G02*
X104258500Y-78569000I212500J0D01*
G01*
X105058500Y-78569000D01*
G75*
G02*
X105271000Y-78781500I0J-212500D01*
G01*
G37*
G36*
G01*
X106896000Y-78781500D02*
X106896000Y-79206500D01*
G75*
G02*
X106683500Y-79419000I-212500J0D01*
G01*
X105883500Y-79419000D01*
G75*
G02*
X105671000Y-79206500I0J212500D01*
G01*
X105671000Y-78781500D01*
G75*
G02*
X105883500Y-78569000I212500J0D01*
G01*
X106683500Y-78569000D01*
G75*
G02*
X106896000Y-78781500I0J-212500D01*
G01*
G37*
G36*
G01*
X142846000Y-54066500D02*
X142846000Y-53641500D01*
G75*
G02*
X143058500Y-53429000I212500J0D01*
G01*
X143858500Y-53429000D01*
G75*
G02*
X144071000Y-53641500I0J-212500D01*
G01*
X144071000Y-54066500D01*
G75*
G02*
X143858500Y-54279000I-212500J0D01*
G01*
X143058500Y-54279000D01*
G75*
G02*
X142846000Y-54066500I0J212500D01*
G01*
G37*
G36*
G01*
X141221000Y-54066500D02*
X141221000Y-53641500D01*
G75*
G02*
X141433500Y-53429000I212500J0D01*
G01*
X142233500Y-53429000D01*
G75*
G02*
X142446000Y-53641500I0J-212500D01*
G01*
X142446000Y-54066500D01*
G75*
G02*
X142233500Y-54279000I-212500J0D01*
G01*
X141433500Y-54279000D01*
G75*
G02*
X141221000Y-54066500I0J212500D01*
G01*
G37*
D17*
X151385000Y-60452000D03*
D18*
X149010000Y-60452000D03*
D17*
X160021000Y-60706000D03*
D18*
X157646000Y-60706000D03*
G36*
G01*
X105915750Y-73121000D02*
X106428250Y-73121000D01*
G75*
G02*
X106647000Y-73339750I0J-218750D01*
G01*
X106647000Y-73777250D01*
G75*
G02*
X106428250Y-73996000I-218750J0D01*
G01*
X105915750Y-73996000D01*
G75*
G02*
X105697000Y-73777250I0J218750D01*
G01*
X105697000Y-73339750D01*
G75*
G02*
X105915750Y-73121000I218750J0D01*
G01*
G37*
G36*
G01*
X105915750Y-71546000D02*
X106428250Y-71546000D01*
G75*
G02*
X106647000Y-71764750I0J-218750D01*
G01*
X106647000Y-72202250D01*
G75*
G02*
X106428250Y-72421000I-218750J0D01*
G01*
X105915750Y-72421000D01*
G75*
G02*
X105697000Y-72202250I0J218750D01*
G01*
X105697000Y-71764750D01*
G75*
G02*
X105915750Y-71546000I218750J0D01*
G01*
G37*
G36*
G01*
X125053000Y-70477000D02*
X126153000Y-70477000D01*
G75*
G02*
X126403000Y-70727000I0J-250000D01*
G01*
X126403000Y-72827000D01*
G75*
G02*
X126153000Y-73077000I-250000J0D01*
G01*
X125053000Y-73077000D01*
G75*
G02*
X124803000Y-72827000I0J250000D01*
G01*
X124803000Y-70727000D01*
G75*
G02*
X125053000Y-70477000I250000J0D01*
G01*
G37*
G36*
G01*
X125053000Y-66877000D02*
X126153000Y-66877000D01*
G75*
G02*
X126403000Y-67127000I0J-250000D01*
G01*
X126403000Y-69227000D01*
G75*
G02*
X126153000Y-69477000I-250000J0D01*
G01*
X125053000Y-69477000D01*
G75*
G02*
X124803000Y-69227000I0J250000D01*
G01*
X124803000Y-67127000D01*
G75*
G02*
X125053000Y-66877000I250000J0D01*
G01*
G37*
G36*
G01*
X130431250Y-62261000D02*
X129918750Y-62261000D01*
G75*
G02*
X129700000Y-62042250I0J218750D01*
G01*
X129700000Y-61604750D01*
G75*
G02*
X129918750Y-61386000I218750J0D01*
G01*
X130431250Y-61386000D01*
G75*
G02*
X130650000Y-61604750I0J-218750D01*
G01*
X130650000Y-62042250D01*
G75*
G02*
X130431250Y-62261000I-218750J0D01*
G01*
G37*
G36*
G01*
X130431250Y-63836000D02*
X129918750Y-63836000D01*
G75*
G02*
X129700000Y-63617250I0J218750D01*
G01*
X129700000Y-63179750D01*
G75*
G02*
X129918750Y-62961000I218750J0D01*
G01*
X130431250Y-62961000D01*
G75*
G02*
X130650000Y-63179750I0J-218750D01*
G01*
X130650000Y-63617250D01*
G75*
G02*
X130431250Y-63836000I-218750J0D01*
G01*
G37*
G36*
G01*
X133479250Y-62261000D02*
X132966750Y-62261000D01*
G75*
G02*
X132748000Y-62042250I0J218750D01*
G01*
X132748000Y-61604750D01*
G75*
G02*
X132966750Y-61386000I218750J0D01*
G01*
X133479250Y-61386000D01*
G75*
G02*
X133698000Y-61604750I0J-218750D01*
G01*
X133698000Y-62042250D01*
G75*
G02*
X133479250Y-62261000I-218750J0D01*
G01*
G37*
G36*
G01*
X133479250Y-63836000D02*
X132966750Y-63836000D01*
G75*
G02*
X132748000Y-63617250I0J218750D01*
G01*
X132748000Y-63179750D01*
G75*
G02*
X132966750Y-62961000I218750J0D01*
G01*
X133479250Y-62961000D01*
G75*
G02*
X133698000Y-63179750I0J-218750D01*
G01*
X133698000Y-63617250D01*
G75*
G02*
X133479250Y-63836000I-218750J0D01*
G01*
G37*
G36*
G01*
X138948000Y-70752000D02*
X140198000Y-70752000D01*
G75*
G02*
X140448000Y-71002000I0J-250000D01*
G01*
X140448000Y-71752000D01*
G75*
G02*
X140198000Y-72002000I-250000J0D01*
G01*
X138948000Y-72002000D01*
G75*
G02*
X138698000Y-71752000I0J250000D01*
G01*
X138698000Y-71002000D01*
G75*
G02*
X138948000Y-70752000I250000J0D01*
G01*
G37*
G36*
G01*
X138948000Y-67952000D02*
X140198000Y-67952000D01*
G75*
G02*
X140448000Y-68202000I0J-250000D01*
G01*
X140448000Y-68952000D01*
G75*
G02*
X140198000Y-69202000I-250000J0D01*
G01*
X138948000Y-69202000D01*
G75*
G02*
X138698000Y-68952000I0J250000D01*
G01*
X138698000Y-68202000D01*
G75*
G02*
X138948000Y-67952000I250000J0D01*
G01*
G37*
G36*
G01*
X171104850Y-113341900D02*
X171617350Y-113341900D01*
G75*
G02*
X171836100Y-113560650I0J-218750D01*
G01*
X171836100Y-113998150D01*
G75*
G02*
X171617350Y-114216900I-218750J0D01*
G01*
X171104850Y-114216900D01*
G75*
G02*
X170886100Y-113998150I0J218750D01*
G01*
X170886100Y-113560650D01*
G75*
G02*
X171104850Y-113341900I218750J0D01*
G01*
G37*
G36*
G01*
X171104850Y-111766900D02*
X171617350Y-111766900D01*
G75*
G02*
X171836100Y-111985650I0J-218750D01*
G01*
X171836100Y-112423150D01*
G75*
G02*
X171617350Y-112641900I-218750J0D01*
G01*
X171104850Y-112641900D01*
G75*
G02*
X170886100Y-112423150I0J218750D01*
G01*
X170886100Y-111985650D01*
G75*
G02*
X171104850Y-111766900I218750J0D01*
G01*
G37*
G36*
G01*
X183674500Y-108333250D02*
X183674500Y-107820750D01*
G75*
G02*
X183893250Y-107602000I218750J0D01*
G01*
X184330750Y-107602000D01*
G75*
G02*
X184549500Y-107820750I0J-218750D01*
G01*
X184549500Y-108333250D01*
G75*
G02*
X184330750Y-108552000I-218750J0D01*
G01*
X183893250Y-108552000D01*
G75*
G02*
X183674500Y-108333250I0J218750D01*
G01*
G37*
G36*
G01*
X182099500Y-108333250D02*
X182099500Y-107820750D01*
G75*
G02*
X182318250Y-107602000I218750J0D01*
G01*
X182755750Y-107602000D01*
G75*
G02*
X182974500Y-107820750I0J-218750D01*
G01*
X182974500Y-108333250D01*
G75*
G02*
X182755750Y-108552000I-218750J0D01*
G01*
X182318250Y-108552000D01*
G75*
G02*
X182099500Y-108333250I0J218750D01*
G01*
G37*
G36*
G01*
X197346500Y-119211000D02*
X197346500Y-120311000D01*
G75*
G02*
X197096500Y-120561000I-250000J0D01*
G01*
X194996500Y-120561000D01*
G75*
G02*
X194746500Y-120311000I0J250000D01*
G01*
X194746500Y-119211000D01*
G75*
G02*
X194996500Y-118961000I250000J0D01*
G01*
X197096500Y-118961000D01*
G75*
G02*
X197346500Y-119211000I0J-250000D01*
G01*
G37*
G36*
G01*
X193746500Y-119211000D02*
X193746500Y-120311000D01*
G75*
G02*
X193496500Y-120561000I-250000J0D01*
G01*
X191396500Y-120561000D01*
G75*
G02*
X191146500Y-120311000I0J250000D01*
G01*
X191146500Y-119211000D01*
G75*
G02*
X191396500Y-118961000I250000J0D01*
G01*
X193496500Y-118961000D01*
G75*
G02*
X193746500Y-119211000I0J-250000D01*
G01*
G37*
G36*
G01*
X172220000Y-70697000D02*
X172220000Y-71797000D01*
G75*
G02*
X171970000Y-72047000I-250000J0D01*
G01*
X169870000Y-72047000D01*
G75*
G02*
X169620000Y-71797000I0J250000D01*
G01*
X169620000Y-70697000D01*
G75*
G02*
X169870000Y-70447000I250000J0D01*
G01*
X171970000Y-70447000D01*
G75*
G02*
X172220000Y-70697000I0J-250000D01*
G01*
G37*
G36*
G01*
X175820000Y-70697000D02*
X175820000Y-71797000D01*
G75*
G02*
X175570000Y-72047000I-250000J0D01*
G01*
X173470000Y-72047000D01*
G75*
G02*
X173220000Y-71797000I0J250000D01*
G01*
X173220000Y-70697000D01*
G75*
G02*
X173470000Y-70447000I250000J0D01*
G01*
X175570000Y-70447000D01*
G75*
G02*
X175820000Y-70697000I0J-250000D01*
G01*
G37*
G36*
G01*
X195956500Y-115087250D02*
X195956500Y-114574750D01*
G75*
G02*
X196175250Y-114356000I218750J0D01*
G01*
X196612750Y-114356000D01*
G75*
G02*
X196831500Y-114574750I0J-218750D01*
G01*
X196831500Y-115087250D01*
G75*
G02*
X196612750Y-115306000I-218750J0D01*
G01*
X196175250Y-115306000D01*
G75*
G02*
X195956500Y-115087250I0J218750D01*
G01*
G37*
G36*
G01*
X194381500Y-115087250D02*
X194381500Y-114574750D01*
G75*
G02*
X194600250Y-114356000I218750J0D01*
G01*
X195037750Y-114356000D01*
G75*
G02*
X195256500Y-114574750I0J-218750D01*
G01*
X195256500Y-115087250D01*
G75*
G02*
X195037750Y-115306000I-218750J0D01*
G01*
X194600250Y-115306000D01*
G75*
G02*
X194381500Y-115087250I0J218750D01*
G01*
G37*
G36*
G01*
X176688000Y-68450750D02*
X176688000Y-68963250D01*
G75*
G02*
X176469250Y-69182000I-218750J0D01*
G01*
X176031750Y-69182000D01*
G75*
G02*
X175813000Y-68963250I0J218750D01*
G01*
X175813000Y-68450750D01*
G75*
G02*
X176031750Y-68232000I218750J0D01*
G01*
X176469250Y-68232000D01*
G75*
G02*
X176688000Y-68450750I0J-218750D01*
G01*
G37*
G36*
G01*
X178263000Y-68450750D02*
X178263000Y-68963250D01*
G75*
G02*
X178044250Y-69182000I-218750J0D01*
G01*
X177606750Y-69182000D01*
G75*
G02*
X177388000Y-68963250I0J218750D01*
G01*
X177388000Y-68450750D01*
G75*
G02*
X177606750Y-68232000I218750J0D01*
G01*
X178044250Y-68232000D01*
G75*
G02*
X178263000Y-68450750I0J-218750D01*
G01*
G37*
G36*
G01*
X194381500Y-112039250D02*
X194381500Y-111526750D01*
G75*
G02*
X194600250Y-111308000I218750J0D01*
G01*
X195037750Y-111308000D01*
G75*
G02*
X195256500Y-111526750I0J-218750D01*
G01*
X195256500Y-112039250D01*
G75*
G02*
X195037750Y-112258000I-218750J0D01*
G01*
X194600250Y-112258000D01*
G75*
G02*
X194381500Y-112039250I0J218750D01*
G01*
G37*
G36*
G01*
X195956500Y-112039250D02*
X195956500Y-111526750D01*
G75*
G02*
X196175250Y-111308000I218750J0D01*
G01*
X196612750Y-111308000D01*
G75*
G02*
X196831500Y-111526750I0J-218750D01*
G01*
X196831500Y-112039250D01*
G75*
G02*
X196612750Y-112258000I-218750J0D01*
G01*
X196175250Y-112258000D01*
G75*
G02*
X195956500Y-112039250I0J218750D01*
G01*
G37*
G36*
G01*
X176688000Y-65656750D02*
X176688000Y-66169250D01*
G75*
G02*
X176469250Y-66388000I-218750J0D01*
G01*
X176031750Y-66388000D01*
G75*
G02*
X175813000Y-66169250I0J218750D01*
G01*
X175813000Y-65656750D01*
G75*
G02*
X176031750Y-65438000I218750J0D01*
G01*
X176469250Y-65438000D01*
G75*
G02*
X176688000Y-65656750I0J-218750D01*
G01*
G37*
G36*
G01*
X178263000Y-65656750D02*
X178263000Y-66169250D01*
G75*
G02*
X178044250Y-66388000I-218750J0D01*
G01*
X177606750Y-66388000D01*
G75*
G02*
X177388000Y-66169250I0J218750D01*
G01*
X177388000Y-65656750D01*
G75*
G02*
X177606750Y-65438000I218750J0D01*
G01*
X178044250Y-65438000D01*
G75*
G02*
X178263000Y-65656750I0J-218750D01*
G01*
G37*
G36*
G01*
X195656500Y-109083000D02*
X195656500Y-107833000D01*
G75*
G02*
X195906500Y-107583000I250000J0D01*
G01*
X196656500Y-107583000D01*
G75*
G02*
X196906500Y-107833000I0J-250000D01*
G01*
X196906500Y-109083000D01*
G75*
G02*
X196656500Y-109333000I-250000J0D01*
G01*
X195906500Y-109333000D01*
G75*
G02*
X195656500Y-109083000I0J250000D01*
G01*
G37*
G36*
G01*
X192856500Y-109083000D02*
X192856500Y-107833000D01*
G75*
G02*
X193106500Y-107583000I250000J0D01*
G01*
X193856500Y-107583000D01*
G75*
G02*
X194106500Y-107833000I0J-250000D01*
G01*
X194106500Y-109083000D01*
G75*
G02*
X193856500Y-109333000I-250000J0D01*
G01*
X193106500Y-109333000D01*
G75*
G02*
X192856500Y-109083000I0J250000D01*
G01*
G37*
G36*
G01*
X175501000Y-61986000D02*
X175501000Y-63236000D01*
G75*
G02*
X175251000Y-63486000I-250000J0D01*
G01*
X174501000Y-63486000D01*
G75*
G02*
X174251000Y-63236000I0J250000D01*
G01*
X174251000Y-61986000D01*
G75*
G02*
X174501000Y-61736000I250000J0D01*
G01*
X175251000Y-61736000D01*
G75*
G02*
X175501000Y-61986000I0J-250000D01*
G01*
G37*
G36*
G01*
X178301000Y-61986000D02*
X178301000Y-63236000D01*
G75*
G02*
X178051000Y-63486000I-250000J0D01*
G01*
X177301000Y-63486000D01*
G75*
G02*
X177051000Y-63236000I0J250000D01*
G01*
X177051000Y-61986000D01*
G75*
G02*
X177301000Y-61736000I250000J0D01*
G01*
X178051000Y-61736000D01*
G75*
G02*
X178301000Y-61986000I0J-250000D01*
G01*
G37*
G36*
G01*
X150410000Y-70928000D02*
X149310000Y-70928000D01*
G75*
G02*
X149060000Y-70678000I0J250000D01*
G01*
X149060000Y-68178000D01*
G75*
G02*
X149310000Y-67928000I250000J0D01*
G01*
X150410000Y-67928000D01*
G75*
G02*
X150660000Y-68178000I0J-250000D01*
G01*
X150660000Y-70678000D01*
G75*
G02*
X150410000Y-70928000I-250000J0D01*
G01*
G37*
G36*
G01*
X150410000Y-75328000D02*
X149310000Y-75328000D01*
G75*
G02*
X149060000Y-75078000I0J250000D01*
G01*
X149060000Y-72578000D01*
G75*
G02*
X149310000Y-72328000I250000J0D01*
G01*
X150410000Y-72328000D01*
G75*
G02*
X150660000Y-72578000I0J-250000D01*
G01*
X150660000Y-75078000D01*
G75*
G02*
X150410000Y-75328000I-250000J0D01*
G01*
G37*
G36*
G01*
X157946000Y-72328000D02*
X159046000Y-72328000D01*
G75*
G02*
X159296000Y-72578000I0J-250000D01*
G01*
X159296000Y-75078000D01*
G75*
G02*
X159046000Y-75328000I-250000J0D01*
G01*
X157946000Y-75328000D01*
G75*
G02*
X157696000Y-75078000I0J250000D01*
G01*
X157696000Y-72578000D01*
G75*
G02*
X157946000Y-72328000I250000J0D01*
G01*
G37*
G36*
G01*
X157946000Y-67928000D02*
X159046000Y-67928000D01*
G75*
G02*
X159296000Y-68178000I0J-250000D01*
G01*
X159296000Y-70678000D01*
G75*
G02*
X159046000Y-70928000I-250000J0D01*
G01*
X157946000Y-70928000D01*
G75*
G02*
X157696000Y-70678000I0J250000D01*
G01*
X157696000Y-68178000D01*
G75*
G02*
X157946000Y-67928000I250000J0D01*
G01*
G37*
G36*
G01*
X172987000Y-66538000D02*
X172987000Y-65288000D01*
G75*
G02*
X173237000Y-65038000I250000J0D01*
G01*
X173987000Y-65038000D01*
G75*
G02*
X174237000Y-65288000I0J-250000D01*
G01*
X174237000Y-66538000D01*
G75*
G02*
X173987000Y-66788000I-250000J0D01*
G01*
X173237000Y-66788000D01*
G75*
G02*
X172987000Y-66538000I0J250000D01*
G01*
G37*
G36*
G01*
X170187000Y-66538000D02*
X170187000Y-65288000D01*
G75*
G02*
X170437000Y-65038000I250000J0D01*
G01*
X171187000Y-65038000D01*
G75*
G02*
X171437000Y-65288000I0J-250000D01*
G01*
X171437000Y-66538000D01*
G75*
G02*
X171187000Y-66788000I-250000J0D01*
G01*
X170437000Y-66788000D01*
G75*
G02*
X170187000Y-66538000I0J250000D01*
G01*
G37*
G36*
G01*
X136556000Y-120769750D02*
X136556000Y-121282250D01*
G75*
G02*
X136337250Y-121501000I-218750J0D01*
G01*
X135899750Y-121501000D01*
G75*
G02*
X135681000Y-121282250I0J218750D01*
G01*
X135681000Y-120769750D01*
G75*
G02*
X135899750Y-120551000I218750J0D01*
G01*
X136337250Y-120551000D01*
G75*
G02*
X136556000Y-120769750I0J-218750D01*
G01*
G37*
G36*
G01*
X138131000Y-120769750D02*
X138131000Y-121282250D01*
G75*
G02*
X137912250Y-121501000I-218750J0D01*
G01*
X137474750Y-121501000D01*
G75*
G02*
X137256000Y-121282250I0J218750D01*
G01*
X137256000Y-120769750D01*
G75*
G02*
X137474750Y-120551000I218750J0D01*
G01*
X137912250Y-120551000D01*
G75*
G02*
X138131000Y-120769750I0J-218750D01*
G01*
G37*
G36*
G01*
X136556000Y-110863750D02*
X136556000Y-111376250D01*
G75*
G02*
X136337250Y-111595000I-218750J0D01*
G01*
X135899750Y-111595000D01*
G75*
G02*
X135681000Y-111376250I0J218750D01*
G01*
X135681000Y-110863750D01*
G75*
G02*
X135899750Y-110645000I218750J0D01*
G01*
X136337250Y-110645000D01*
G75*
G02*
X136556000Y-110863750I0J-218750D01*
G01*
G37*
G36*
G01*
X138131000Y-110863750D02*
X138131000Y-111376250D01*
G75*
G02*
X137912250Y-111595000I-218750J0D01*
G01*
X137474750Y-111595000D01*
G75*
G02*
X137256000Y-111376250I0J218750D01*
G01*
X137256000Y-110863750D01*
G75*
G02*
X137474750Y-110645000I218750J0D01*
G01*
X137912250Y-110645000D01*
G75*
G02*
X138131000Y-110863750I0J-218750D01*
G01*
G37*
G36*
G01*
X136556000Y-108069750D02*
X136556000Y-108582250D01*
G75*
G02*
X136337250Y-108801000I-218750J0D01*
G01*
X135899750Y-108801000D01*
G75*
G02*
X135681000Y-108582250I0J218750D01*
G01*
X135681000Y-108069750D01*
G75*
G02*
X135899750Y-107851000I218750J0D01*
G01*
X136337250Y-107851000D01*
G75*
G02*
X136556000Y-108069750I0J-218750D01*
G01*
G37*
G36*
G01*
X138131000Y-108069750D02*
X138131000Y-108582250D01*
G75*
G02*
X137912250Y-108801000I-218750J0D01*
G01*
X137474750Y-108801000D01*
G75*
G02*
X137256000Y-108582250I0J218750D01*
G01*
X137256000Y-108069750D01*
G75*
G02*
X137474750Y-107851000I218750J0D01*
G01*
X137912250Y-107851000D01*
G75*
G02*
X138131000Y-108069750I0J-218750D01*
G01*
G37*
G36*
G01*
X155191750Y-109062000D02*
X155704250Y-109062000D01*
G75*
G02*
X155923000Y-109280750I0J-218750D01*
G01*
X155923000Y-109718250D01*
G75*
G02*
X155704250Y-109937000I-218750J0D01*
G01*
X155191750Y-109937000D01*
G75*
G02*
X154973000Y-109718250I0J218750D01*
G01*
X154973000Y-109280750D01*
G75*
G02*
X155191750Y-109062000I218750J0D01*
G01*
G37*
G36*
G01*
X155191750Y-107487000D02*
X155704250Y-107487000D01*
G75*
G02*
X155923000Y-107705750I0J-218750D01*
G01*
X155923000Y-108143250D01*
G75*
G02*
X155704250Y-108362000I-218750J0D01*
G01*
X155191750Y-108362000D01*
G75*
G02*
X154973000Y-108143250I0J218750D01*
G01*
X154973000Y-107705750D01*
G75*
G02*
X155191750Y-107487000I218750J0D01*
G01*
G37*
G36*
G01*
X152910250Y-108362000D02*
X152397750Y-108362000D01*
G75*
G02*
X152179000Y-108143250I0J218750D01*
G01*
X152179000Y-107705750D01*
G75*
G02*
X152397750Y-107487000I218750J0D01*
G01*
X152910250Y-107487000D01*
G75*
G02*
X153129000Y-107705750I0J-218750D01*
G01*
X153129000Y-108143250D01*
G75*
G02*
X152910250Y-108362000I-218750J0D01*
G01*
G37*
G36*
G01*
X152910250Y-109937000D02*
X152397750Y-109937000D01*
G75*
G02*
X152179000Y-109718250I0J218750D01*
G01*
X152179000Y-109280750D01*
G75*
G02*
X152397750Y-109062000I218750J0D01*
G01*
X152910250Y-109062000D01*
G75*
G02*
X153129000Y-109280750I0J-218750D01*
G01*
X153129000Y-109718250D01*
G75*
G02*
X152910250Y-109937000I-218750J0D01*
G01*
G37*
G36*
G01*
X159794150Y-112726000D02*
X160306650Y-112726000D01*
G75*
G02*
X160525400Y-112944750I0J-218750D01*
G01*
X160525400Y-113382250D01*
G75*
G02*
X160306650Y-113601000I-218750J0D01*
G01*
X159794150Y-113601000D01*
G75*
G02*
X159575400Y-113382250I0J218750D01*
G01*
X159575400Y-112944750D01*
G75*
G02*
X159794150Y-112726000I218750J0D01*
G01*
G37*
G36*
G01*
X159794150Y-111151000D02*
X160306650Y-111151000D01*
G75*
G02*
X160525400Y-111369750I0J-218750D01*
G01*
X160525400Y-111807250D01*
G75*
G02*
X160306650Y-112026000I-218750J0D01*
G01*
X159794150Y-112026000D01*
G75*
G02*
X159575400Y-111807250I0J218750D01*
G01*
X159575400Y-111369750D01*
G75*
G02*
X159794150Y-111151000I218750J0D01*
G01*
G37*
G36*
G01*
X160306650Y-116344000D02*
X159794150Y-116344000D01*
G75*
G02*
X159575400Y-116125250I0J218750D01*
G01*
X159575400Y-115687750D01*
G75*
G02*
X159794150Y-115469000I218750J0D01*
G01*
X160306650Y-115469000D01*
G75*
G02*
X160525400Y-115687750I0J-218750D01*
G01*
X160525400Y-116125250D01*
G75*
G02*
X160306650Y-116344000I-218750J0D01*
G01*
G37*
G36*
G01*
X160306650Y-117919000D02*
X159794150Y-117919000D01*
G75*
G02*
X159575400Y-117700250I0J218750D01*
G01*
X159575400Y-117262750D01*
G75*
G02*
X159794150Y-117044000I218750J0D01*
G01*
X160306650Y-117044000D01*
G75*
G02*
X160525400Y-117262750I0J-218750D01*
G01*
X160525400Y-117700250D01*
G75*
G02*
X160306650Y-117919000I-218750J0D01*
G01*
G37*
G36*
G01*
X148241650Y-116344000D02*
X147729150Y-116344000D01*
G75*
G02*
X147510400Y-116125250I0J218750D01*
G01*
X147510400Y-115687750D01*
G75*
G02*
X147729150Y-115469000I218750J0D01*
G01*
X148241650Y-115469000D01*
G75*
G02*
X148460400Y-115687750I0J-218750D01*
G01*
X148460400Y-116125250D01*
G75*
G02*
X148241650Y-116344000I-218750J0D01*
G01*
G37*
G36*
G01*
X148241650Y-117919000D02*
X147729150Y-117919000D01*
G75*
G02*
X147510400Y-117700250I0J218750D01*
G01*
X147510400Y-117262750D01*
G75*
G02*
X147729150Y-117044000I218750J0D01*
G01*
X148241650Y-117044000D01*
G75*
G02*
X148460400Y-117262750I0J-218750D01*
G01*
X148460400Y-117700250D01*
G75*
G02*
X148241650Y-117919000I-218750J0D01*
G01*
G37*
G36*
G01*
X147729150Y-112726000D02*
X148241650Y-112726000D01*
G75*
G02*
X148460400Y-112944750I0J-218750D01*
G01*
X148460400Y-113382250D01*
G75*
G02*
X148241650Y-113601000I-218750J0D01*
G01*
X147729150Y-113601000D01*
G75*
G02*
X147510400Y-113382250I0J218750D01*
G01*
X147510400Y-112944750D01*
G75*
G02*
X147729150Y-112726000I218750J0D01*
G01*
G37*
G36*
G01*
X147729150Y-111151000D02*
X148241650Y-111151000D01*
G75*
G02*
X148460400Y-111369750I0J-218750D01*
G01*
X148460400Y-111807250D01*
G75*
G02*
X148241650Y-112026000I-218750J0D01*
G01*
X147729150Y-112026000D01*
G75*
G02*
X147510400Y-111807250I0J218750D01*
G01*
X147510400Y-111369750D01*
G75*
G02*
X147729150Y-111151000I218750J0D01*
G01*
G37*
G36*
G01*
X116837750Y-109062000D02*
X117350250Y-109062000D01*
G75*
G02*
X117569000Y-109280750I0J-218750D01*
G01*
X117569000Y-109718250D01*
G75*
G02*
X117350250Y-109937000I-218750J0D01*
G01*
X116837750Y-109937000D01*
G75*
G02*
X116619000Y-109718250I0J218750D01*
G01*
X116619000Y-109280750D01*
G75*
G02*
X116837750Y-109062000I218750J0D01*
G01*
G37*
G36*
G01*
X116837750Y-107487000D02*
X117350250Y-107487000D01*
G75*
G02*
X117569000Y-107705750I0J-218750D01*
G01*
X117569000Y-108143250D01*
G75*
G02*
X117350250Y-108362000I-218750J0D01*
G01*
X116837750Y-108362000D01*
G75*
G02*
X116619000Y-108143250I0J218750D01*
G01*
X116619000Y-107705750D01*
G75*
G02*
X116837750Y-107487000I218750J0D01*
G01*
G37*
G36*
G01*
X114556250Y-108362000D02*
X114043750Y-108362000D01*
G75*
G02*
X113825000Y-108143250I0J218750D01*
G01*
X113825000Y-107705750D01*
G75*
G02*
X114043750Y-107487000I218750J0D01*
G01*
X114556250Y-107487000D01*
G75*
G02*
X114775000Y-107705750I0J-218750D01*
G01*
X114775000Y-108143250D01*
G75*
G02*
X114556250Y-108362000I-218750J0D01*
G01*
G37*
G36*
G01*
X114556250Y-109937000D02*
X114043750Y-109937000D01*
G75*
G02*
X113825000Y-109718250I0J218750D01*
G01*
X113825000Y-109280750D01*
G75*
G02*
X114043750Y-109062000I218750J0D01*
G01*
X114556250Y-109062000D01*
G75*
G02*
X114775000Y-109280750I0J-218750D01*
G01*
X114775000Y-109718250D01*
G75*
G02*
X114556250Y-109937000I-218750J0D01*
G01*
G37*
G36*
G01*
X121668750Y-112726000D02*
X122181250Y-112726000D01*
G75*
G02*
X122400000Y-112944750I0J-218750D01*
G01*
X122400000Y-113382250D01*
G75*
G02*
X122181250Y-113601000I-218750J0D01*
G01*
X121668750Y-113601000D01*
G75*
G02*
X121450000Y-113382250I0J218750D01*
G01*
X121450000Y-112944750D01*
G75*
G02*
X121668750Y-112726000I218750J0D01*
G01*
G37*
G36*
G01*
X121668750Y-111151000D02*
X122181250Y-111151000D01*
G75*
G02*
X122400000Y-111369750I0J-218750D01*
G01*
X122400000Y-111807250D01*
G75*
G02*
X122181250Y-112026000I-218750J0D01*
G01*
X121668750Y-112026000D01*
G75*
G02*
X121450000Y-111807250I0J218750D01*
G01*
X121450000Y-111369750D01*
G75*
G02*
X121668750Y-111151000I218750J0D01*
G01*
G37*
G36*
G01*
X122181250Y-116344000D02*
X121668750Y-116344000D01*
G75*
G02*
X121450000Y-116125250I0J218750D01*
G01*
X121450000Y-115687750D01*
G75*
G02*
X121668750Y-115469000I218750J0D01*
G01*
X122181250Y-115469000D01*
G75*
G02*
X122400000Y-115687750I0J-218750D01*
G01*
X122400000Y-116125250D01*
G75*
G02*
X122181250Y-116344000I-218750J0D01*
G01*
G37*
G36*
G01*
X122181250Y-117919000D02*
X121668750Y-117919000D01*
G75*
G02*
X121450000Y-117700250I0J218750D01*
G01*
X121450000Y-117262750D01*
G75*
G02*
X121668750Y-117044000I218750J0D01*
G01*
X122181250Y-117044000D01*
G75*
G02*
X122400000Y-117262750I0J-218750D01*
G01*
X122400000Y-117700250D01*
G75*
G02*
X122181250Y-117919000I-218750J0D01*
G01*
G37*
G36*
G01*
X110116250Y-116344000D02*
X109603750Y-116344000D01*
G75*
G02*
X109385000Y-116125250I0J218750D01*
G01*
X109385000Y-115687750D01*
G75*
G02*
X109603750Y-115469000I218750J0D01*
G01*
X110116250Y-115469000D01*
G75*
G02*
X110335000Y-115687750I0J-218750D01*
G01*
X110335000Y-116125250D01*
G75*
G02*
X110116250Y-116344000I-218750J0D01*
G01*
G37*
G36*
G01*
X110116250Y-117919000D02*
X109603750Y-117919000D01*
G75*
G02*
X109385000Y-117700250I0J218750D01*
G01*
X109385000Y-117262750D01*
G75*
G02*
X109603750Y-117044000I218750J0D01*
G01*
X110116250Y-117044000D01*
G75*
G02*
X110335000Y-117262750I0J-218750D01*
G01*
X110335000Y-117700250D01*
G75*
G02*
X110116250Y-117919000I-218750J0D01*
G01*
G37*
G36*
G01*
X109603750Y-112726000D02*
X110116250Y-112726000D01*
G75*
G02*
X110335000Y-112944750I0J-218750D01*
G01*
X110335000Y-113382250D01*
G75*
G02*
X110116250Y-113601000I-218750J0D01*
G01*
X109603750Y-113601000D01*
G75*
G02*
X109385000Y-113382250I0J218750D01*
G01*
X109385000Y-112944750D01*
G75*
G02*
X109603750Y-112726000I218750J0D01*
G01*
G37*
G36*
G01*
X109603750Y-111151000D02*
X110116250Y-111151000D01*
G75*
G02*
X110335000Y-111369750I0J-218750D01*
G01*
X110335000Y-111807250D01*
G75*
G02*
X110116250Y-112026000I-218750J0D01*
G01*
X109603750Y-112026000D01*
G75*
G02*
X109385000Y-111807250I0J218750D01*
G01*
X109385000Y-111369750D01*
G75*
G02*
X109603750Y-111151000I218750J0D01*
G01*
G37*
M02*
