G04 #@! TF.GenerationSoftware,KiCad,Pcbnew,(5.1.8)-1*
G04 #@! TF.CreationDate,2020-12-03T10:30:47+08:00*
G04 #@! TF.ProjectId,ProtoCV,50726f74-6f43-4562-9e6b-696361645f70,rev?*
G04 #@! TF.SameCoordinates,Original*
G04 #@! TF.FileFunction,Soldermask,Bot*
G04 #@! TF.FilePolarity,Negative*
%FSLAX46Y46*%
G04 Gerber Fmt 4.6, Leading zero omitted, Abs format (unit mm)*
G04 Created by KiCad (PCBNEW (5.1.8)-1) date 2020-12-03 10:30:47*
%MOMM*%
%LPD*%
G01*
G04 APERTURE LIST*
%ADD10O,2.402000X1.602000*%
%ADD11O,2.702000X1.602000*%
%ADD12O,2.502000X1.702000*%
%ADD13O,2.702000X1.702000*%
%ADD14O,1.802000X1.802000*%
%ADD15C,0.902000*%
%ADD16C,6.502000*%
G04 APERTURE END LIST*
G36*
G01*
X131611000Y-108314000D02*
X133311000Y-108314000D01*
G75*
G02*
X133362000Y-108365000I0J-51000D01*
G01*
X133362000Y-110065000D01*
G75*
G02*
X133311000Y-110116000I-51000J0D01*
G01*
X131611000Y-110116000D01*
G75*
G02*
X131560000Y-110065000I0J51000D01*
G01*
X131560000Y-108365000D01*
G75*
G02*
X131611000Y-108314000I51000J0D01*
G01*
G37*
G36*
G01*
X113399000Y-145460000D02*
X113399000Y-143760000D01*
G75*
G02*
X113450000Y-143709000I51000J0D01*
G01*
X115150000Y-143709000D01*
G75*
G02*
X115201000Y-143760000I0J-51000D01*
G01*
X115201000Y-145460000D01*
G75*
G02*
X115150000Y-145511000I-51000J0D01*
G01*
X113450000Y-145511000D01*
G75*
G02*
X113399000Y-145460000I0J51000D01*
G01*
G37*
G36*
G01*
X123559000Y-145460000D02*
X123559000Y-143760000D01*
G75*
G02*
X123610000Y-143709000I51000J0D01*
G01*
X125310000Y-143709000D01*
G75*
G02*
X125361000Y-143760000I0J-51000D01*
G01*
X125361000Y-145460000D01*
G75*
G02*
X125310000Y-145511000I-51000J0D01*
G01*
X123610000Y-145511000D01*
G75*
G02*
X123559000Y-145460000I0J51000D01*
G01*
G37*
G36*
G01*
X133719000Y-145460000D02*
X133719000Y-143760000D01*
G75*
G02*
X133770000Y-143709000I51000J0D01*
G01*
X135470000Y-143709000D01*
G75*
G02*
X135521000Y-143760000I0J-51000D01*
G01*
X135521000Y-145460000D01*
G75*
G02*
X135470000Y-145511000I-51000J0D01*
G01*
X133770000Y-145511000D01*
G75*
G02*
X133719000Y-145460000I0J51000D01*
G01*
G37*
G36*
G01*
X143879000Y-145460000D02*
X143879000Y-143760000D01*
G75*
G02*
X143930000Y-143709000I51000J0D01*
G01*
X145630000Y-143709000D01*
G75*
G02*
X145681000Y-143760000I0J-51000D01*
G01*
X145681000Y-145460000D01*
G75*
G02*
X145630000Y-145511000I-51000J0D01*
G01*
X143930000Y-145511000D01*
G75*
G02*
X143879000Y-145460000I0J51000D01*
G01*
G37*
G36*
G01*
X154039000Y-145460000D02*
X154039000Y-143760000D01*
G75*
G02*
X154090000Y-143709000I51000J0D01*
G01*
X155790000Y-143709000D01*
G75*
G02*
X155841000Y-143760000I0J-51000D01*
G01*
X155841000Y-145460000D01*
G75*
G02*
X155790000Y-145511000I-51000J0D01*
G01*
X154090000Y-145511000D01*
G75*
G02*
X154039000Y-145460000I0J51000D01*
G01*
G37*
G36*
G01*
X164199000Y-145460000D02*
X164199000Y-143760000D01*
G75*
G02*
X164250000Y-143709000I51000J0D01*
G01*
X165950000Y-143709000D01*
G75*
G02*
X166001000Y-143760000I0J-51000D01*
G01*
X166001000Y-145460000D01*
G75*
G02*
X165950000Y-145511000I-51000J0D01*
G01*
X164250000Y-145511000D01*
G75*
G02*
X164199000Y-145460000I0J51000D01*
G01*
G37*
G36*
G01*
X174359000Y-145460000D02*
X174359000Y-143760000D01*
G75*
G02*
X174410000Y-143709000I51000J0D01*
G01*
X176110000Y-143709000D01*
G75*
G02*
X176161000Y-143760000I0J-51000D01*
G01*
X176161000Y-145460000D01*
G75*
G02*
X176110000Y-145511000I-51000J0D01*
G01*
X174410000Y-145511000D01*
G75*
G02*
X174359000Y-145460000I0J51000D01*
G01*
G37*
G36*
G01*
X184519000Y-145460000D02*
X184519000Y-143760000D01*
G75*
G02*
X184570000Y-143709000I51000J0D01*
G01*
X186270000Y-143709000D01*
G75*
G02*
X186321000Y-143760000I0J-51000D01*
G01*
X186321000Y-145460000D01*
G75*
G02*
X186270000Y-145511000I-51000J0D01*
G01*
X184570000Y-145511000D01*
G75*
G02*
X184519000Y-145460000I0J51000D01*
G01*
G37*
G36*
G01*
X131611000Y-118982000D02*
X133311000Y-118982000D01*
G75*
G02*
X133362000Y-119033000I0J-51000D01*
G01*
X133362000Y-120733000D01*
G75*
G02*
X133311000Y-120784000I-51000J0D01*
G01*
X131611000Y-120784000D01*
G75*
G02*
X131560000Y-120733000I0J51000D01*
G01*
X131560000Y-119033000D01*
G75*
G02*
X131611000Y-118982000I51000J0D01*
G01*
G37*
G36*
G01*
X131611000Y-113653000D02*
X133311000Y-113653000D01*
G75*
G02*
X133362000Y-113704000I0J-51000D01*
G01*
X133362000Y-115404000D01*
G75*
G02*
X133311000Y-115455000I-51000J0D01*
G01*
X131611000Y-115455000D01*
G75*
G02*
X131560000Y-115404000I0J51000D01*
G01*
X131560000Y-113704000D01*
G75*
G02*
X131611000Y-113653000I51000J0D01*
G01*
G37*
D10*
X182626000Y-69977000D03*
X182626000Y-67437000D03*
G36*
G01*
X181476000Y-64096000D02*
X183776000Y-64096000D01*
G75*
G02*
X183827000Y-64147000I0J-51000D01*
G01*
X183827000Y-65647000D01*
G75*
G02*
X183776000Y-65698000I-51000J0D01*
G01*
X181476000Y-65698000D01*
G75*
G02*
X181425000Y-65647000I0J51000D01*
G01*
X181425000Y-64147000D01*
G75*
G02*
X181476000Y-64096000I51000J0D01*
G01*
G37*
D11*
X194310000Y-91252000D03*
D12*
X194310000Y-102652000D03*
D13*
X194310000Y-99552000D03*
D11*
X181610000Y-91252000D03*
D12*
X181610000Y-102652000D03*
D13*
X181610000Y-99552000D03*
D11*
X168910000Y-91252000D03*
D12*
X168910000Y-102652000D03*
D13*
X168910000Y-99552000D03*
D11*
X156210000Y-91252000D03*
D12*
X156210000Y-102652000D03*
D13*
X156210000Y-99552000D03*
D11*
X143510000Y-91252000D03*
D12*
X143510000Y-102652000D03*
D13*
X143510000Y-99552000D03*
D11*
X130810000Y-91252000D03*
D12*
X130810000Y-102652000D03*
D13*
X130810000Y-99552000D03*
D11*
X118110000Y-91252000D03*
D12*
X118110000Y-102652000D03*
D13*
X118110000Y-99552000D03*
D11*
X105410000Y-91252000D03*
D12*
X105410000Y-102652000D03*
D13*
X105410000Y-99552000D03*
D14*
X134874000Y-54102000D03*
X132334000Y-54102000D03*
X129794000Y-54102000D03*
X127254000Y-54102000D03*
X124714000Y-54102000D03*
X122174000Y-54102000D03*
X119634000Y-54102000D03*
X117094000Y-54102000D03*
G36*
G01*
X115404000Y-55003000D02*
X113704000Y-55003000D01*
G75*
G02*
X113653000Y-54952000I0J51000D01*
G01*
X113653000Y-53252000D01*
G75*
G02*
X113704000Y-53201000I51000J0D01*
G01*
X115404000Y-53201000D01*
G75*
G02*
X115455000Y-53252000I0J-51000D01*
G01*
X115455000Y-54952000D01*
G75*
G02*
X115404000Y-55003000I-51000J0D01*
G01*
G37*
X185420000Y-54102000D03*
X182880000Y-54102000D03*
X180340000Y-54102000D03*
X177800000Y-54102000D03*
G36*
G01*
X176110000Y-55003000D02*
X174410000Y-55003000D01*
G75*
G02*
X174359000Y-54952000I0J51000D01*
G01*
X174359000Y-53252000D01*
G75*
G02*
X174410000Y-53201000I51000J0D01*
G01*
X176110000Y-53201000D01*
G75*
G02*
X176161000Y-53252000I0J-51000D01*
G01*
X176161000Y-54952000D01*
G75*
G02*
X176110000Y-55003000I-51000J0D01*
G01*
G37*
X159258000Y-54112000D03*
X159258000Y-56652000D03*
X156718000Y-54112000D03*
X156718000Y-56652000D03*
X154178000Y-54112000D03*
X154178000Y-56652000D03*
X151638000Y-54112000D03*
X151638000Y-56652000D03*
X149098000Y-54112000D03*
G36*
G01*
X149948000Y-57553000D02*
X148248000Y-57553000D01*
G75*
G02*
X148197000Y-57502000I0J51000D01*
G01*
X148197000Y-55802000D01*
G75*
G02*
X148248000Y-55751000I51000J0D01*
G01*
X149948000Y-55751000D01*
G75*
G02*
X149999000Y-55802000I0J-51000D01*
G01*
X149999000Y-57502000D01*
G75*
G02*
X149948000Y-57553000I-51000J0D01*
G01*
G37*
D11*
X194310000Y-127540000D03*
D12*
X194310000Y-138940000D03*
D13*
X194310000Y-135840000D03*
D11*
X181610000Y-127540000D03*
D12*
X181610000Y-138940000D03*
D13*
X181610000Y-135840000D03*
D11*
X168910000Y-127540000D03*
D12*
X168910000Y-138940000D03*
D13*
X168910000Y-135840000D03*
D11*
X156210000Y-127540000D03*
D12*
X156210000Y-138940000D03*
D13*
X156210000Y-135840000D03*
D11*
X143510000Y-127540000D03*
D12*
X143510000Y-138940000D03*
D13*
X143510000Y-135840000D03*
D11*
X130810000Y-127540000D03*
D12*
X130810000Y-138940000D03*
D13*
X130810000Y-135840000D03*
D11*
X118110000Y-127540000D03*
D12*
X118110000Y-138940000D03*
D13*
X118110000Y-135840000D03*
D11*
X105410000Y-127540000D03*
D12*
X105410000Y-138940000D03*
D13*
X105410000Y-135840000D03*
D15*
X106697056Y-143302944D03*
X105000000Y-142600000D03*
X103302944Y-143302944D03*
X102600000Y-145000000D03*
X103302944Y-146697056D03*
X105000000Y-147400000D03*
X106697056Y-146697056D03*
X107400000Y-145000000D03*
D16*
X105000000Y-145000000D03*
D15*
X196697056Y-143302944D03*
X195000000Y-142600000D03*
X193302944Y-143302944D03*
X192600000Y-145000000D03*
X193302944Y-146697056D03*
X195000000Y-147400000D03*
X196697056Y-146697056D03*
X197400000Y-145000000D03*
D16*
X195000000Y-145000000D03*
D15*
X196697056Y-53302944D03*
X195000000Y-52600000D03*
X193302944Y-53302944D03*
X192600000Y-55000000D03*
X193302944Y-56697056D03*
X195000000Y-57400000D03*
X196697056Y-56697056D03*
X197400000Y-55000000D03*
D16*
X195000000Y-55000000D03*
D15*
X106697056Y-53302944D03*
X105000000Y-52600000D03*
X103302944Y-53302944D03*
X102600000Y-55000000D03*
X103302944Y-56697056D03*
X105000000Y-57400000D03*
X106697056Y-56697056D03*
X107400000Y-55000000D03*
D16*
X105000000Y-55000000D03*
M02*
